<?xml version="1.0" encoding="UTF-8" standalone="no"?>
<!-- Created with Inkscape (http://www.inkscape.org/) -->

<svg
   width="100.37mm"
   height="100.66967mm"
   viewBox="0 0 100.37 100.66967"
   version="1.1"
   id="svg5"
   sodipodi:docname="interface_prob.svg"
   inkscape:version="1.2.2 (b0a8486541, 2022-12-01)"
   xmlns:inkscape="http://www.inkscape.org/namespaces/inkscape"
   xmlns:sodipodi="http://sodipodi.sourceforge.net/DTD/sodipodi-0.dtd"
   xmlns="http://www.w3.org/2000/svg"
   xmlns:svg="http://www.w3.org/2000/svg">
  <sodipodi:namedview
     id="namedview7"
     pagecolor="#ffffff"
     bordercolor="#000000"
     borderopacity="0.25"
     inkscape:showpageshadow="2"
     inkscape:pageopacity="0.0"
     inkscape:pagecheckerboard="0"
     inkscape:deskcolor="#d1d1d1"
     inkscape:document-units="mm"
     showgrid="false"
     showguides="false"
     inkscape:zoom="0.77326038"
     inkscape:cx="270.28412"
     inkscape:cy="257.99848"
     inkscape:window-width="1854"
     inkscape:window-height="1011"
     inkscape:window-x="1986"
     inkscape:window-y="32"
     inkscape:window-maximized="1"
     inkscape:current-layer="layer1" />
  <defs
     id="defs2">
    <clipPath
       id="clipPath5503">
      <path
         clip-rule="nonzero"
         d="M 0,1 H 14 V 15.765625 H 0 Z m 0,0"
         id="path2562" />
    </clipPath>
    <clipPath
       id="clipPath3465">
      <path
         clip-rule="nonzero"
         d="M 0,6 H 16 V 23.453125 H 0 Z m 0,0"
         id="path3844" />
    </clipPath>
    <clipPath
       id="clipPath7879">
      <path
         clip-rule="nonzero"
         d="M 1,0 H 14 V 16.933594 H 1 Z m 0,0"
         id="path6063" />
    </clipPath>
    <clipPath
       id="clipPath6107">
      <path
         clip-rule="nonzero"
         d="M 0,5 H 16 V 22.960938 H 0 Z m 0,0"
         id="path166" />
    </clipPath>
  </defs>
  <g
     inkscape:label="Layer 1"
     inkscape:groupmode="layer"
     id="layer1"
     transform="translate(-59.9138, -69.3407)">
    <rect
       style="fill:none;stroke:#000000;stroke-width:0.37;stroke-dasharray:none;stroke-opacity:1"
       id="rect234"
       width="100"
       height="100.29967"
       x="60.09882"
       y="69.525658" />
    <path
       style="fill:none;stroke:#000000;stroke-width:0.37;stroke-dasharray:none;stroke-opacity:1"
       d="m 112.91307,69.580873 c 0,0 -9.97099,27.125213 -9.84155,41.236117 0.0996,10.86334 8.24155,20.74554 8.15773,31.60901 -0.073,9.45962 -7.52749,27.41735 -7.52749,27.41735"
       id="path407"
       sodipodi:nodetypes="caac" />
    <g
       inkscape:label=""
       transform="translate(131.07164,122.87886)"
       id="g2956">
      <g
         clip-path="url(#clipPath3465)"
         id="g2948"
         transform="matrix(0.352778,0,0,0.352778,-0.314193,-2.16107)">
        <g
           fill="#000000"
           fill-opacity="1"
           id="g2946">
          <g
             id="g2944"
             transform="translate(0,23.454)">
            <path
               d="M 15.640625,-3.625 H 15.1875 c -0.21875,1.140625 -0.296875,1.4375 -0.421875,1.84375 -0.125,0.375 -0.1875,0.5625 -1.625,0.5625 H 11.125 c 0.28125,-1.4375 0.875,-2.5 1.90625,-4.15625 1.296875,-2.109375 2.359375,-3.8125 2.359375,-5.875 0,-3.34375 -3.171875,-6.078125 -7.109375,-6.078125 -4.046875,0 -7.140625,2.75 -7.140625,6.078125 0,2.0625 1.09375,3.8125 2.296875,5.765625 1.09375,1.765625 1.6875,2.828125 1.96875,4.265625 H 3.390625 c -1.40625,0 -1.484375,-0.1875 -1.609375,-0.546875 C 1.640625,-2.15625 1.59375,-2.484375 1.34375,-3.625 H 0.890625 L 1.609375,0 h 3.75 c 0.515625,0 0.53125,-0.03125 0.53125,-0.390625 0,-1.765625 -0.90625,-4.0625 -1.328125,-5.140625 -0.796875,-1.921875 -1.546875,-3.8125 -1.546875,-5.75 0,-3.6875 2.65625,-5.640625 5.234375,-5.640625 2.703125,0 5.25,2.03125 5.25,5.640625 0,1.90625 -0.65625,3.625 -1.578125,5.875 C 11.515625,-4.390625 10.625,-2.125 10.625,-0.390625 10.625,0 10.65625,0 11.171875,0 h 3.75 z m 0,0"
               id="path2942" />
          </g>
        </g>
      </g>
      <g
         fill="#000000"
         fill-opacity="1"
         id="g2954"
         transform="matrix(0.352778,0,0,0.352778,-0.314193,-2.16107)">
        <g
           id="g2952"
           transform="translate(16.548,14.459)">
          <path
             d="m 16.328125,-5.703125 c 0.421875,0 0.875,0 0.875,-0.484375 0,-0.5 -0.453125,-0.5 -0.875,-0.5 H 2.921875 c -0.421875,0 -0.859375,0 -0.859375,0.5 0,0.484375 0.4375,0.484375 0.859375,0.484375 z m 0,0"
             id="path2950" />
        </g>
      </g>
    </g>
    <g
       inkscape:label=""
       transform="translate(106.08484,106.57962)"
       id="g3026">
      <g
         clip-path="url(#clipPath7879)"
         id="g16"
         transform="matrix(0.352778,0,0,0.352778,-0.446484,-0.0208139)">
        <g
           fill="#000000"
           fill-opacity="1"
           id="g14">
          <g
             id="use12"
             transform="translate(0,16.934)">
            <path
               d="M 12.84375,-16.875 H 1.265625 v 0.640625 c 1.703125,0 1.984375,0 1.984375,1.125 v 13.34375 c 0,1.125 -0.28125,1.125 -1.984375,1.125 V 0 c 0.71875,-0.046875 2.109375,-0.046875 2.875,-0.046875 1.015625,0 2.203125,0 3.21875,0.046875 V -0.640625 H 6.8125 c -1.875,0 -1.9375,-0.25 -1.9375,-1.140625 v -13.484375 c 0,-0.84375 0.0625,-0.96875 1.046875,-0.96875 H 8.65625 c 3.765625,0 3.953125,1.734375 4.328125,4.828125 H 13.4375 Z m 0,0"
               id="path22" />
          </g>
        </g>
      </g>
    </g>
    <g
       inkscape:label=""
       transform="translate(70.88026,116.15462)"
       id="g3117">
      <g
         clip-path="url(#clipPath6107)"
         id="g3109"
         transform="matrix(0.352778,0,0,0.352778,-0.314193,-0.00454187)">
        <g
           fill="#000000"
           fill-opacity="1"
           id="g3107">
          <g
             id="g3105"
             transform="translate(0,22.961)">
            <path
               d="M 15.640625,-3.625 H 15.1875 c -0.21875,1.140625 -0.296875,1.4375 -0.421875,1.84375 -0.125,0.375 -0.1875,0.5625 -1.625,0.5625 H 11.125 c 0.28125,-1.4375 0.875,-2.5 1.90625,-4.15625 1.296875,-2.109375 2.359375,-3.8125 2.359375,-5.875 0,-3.34375 -3.171875,-6.078125 -7.109375,-6.078125 -4.046875,0 -7.140625,2.75 -7.140625,6.078125 0,2.0625 1.09375,3.8125 2.296875,5.765625 1.09375,1.765625 1.6875,2.828125 1.96875,4.265625 H 3.390625 c -1.40625,0 -1.484375,-0.1875 -1.609375,-0.546875 C 1.640625,-2.15625 1.59375,-2.484375 1.34375,-3.625 H 0.890625 L 1.609375,0 h 3.75 c 0.515625,0 0.53125,-0.03125 0.53125,-0.390625 0,-1.765625 -0.90625,-4.0625 -1.328125,-5.140625 -0.796875,-1.921875 -1.546875,-3.8125 -1.546875,-5.75 0,-3.6875 2.65625,-5.640625 5.234375,-5.640625 2.703125,0 5.25,2.03125 5.25,5.640625 0,1.90625 -0.65625,3.625 -1.578125,5.875 C 11.515625,-4.390625 10.625,-2.125 10.625,-0.390625 10.625,0 10.65625,0 11.171875,0 h 3.75 z m 0,0"
               id="path3103" />
          </g>
        </g>
      </g>
      <g
         fill="#000000"
         fill-opacity="1"
         id="g3115"
         transform="matrix(0.352778,0,0,0.352778,-0.314193,-0.00454187)">
        <g
           id="g3113"
           transform="translate(16.548,13.966)">
          <path
             d="m 9.34375,-5.75 h 6.5625 c 0.34375,0 0.765625,0 0.765625,-0.421875 0,-0.4375 -0.390625,-0.4375 -0.765625,-0.4375 H 9.34375 V -13.1875 c 0,-0.34375 0,-0.765625 -0.421875,-0.765625 -0.453125,0 -0.453125,0.390625 -0.453125,0.765625 v 6.578125 h -6.5625 c -0.34375,0 -0.765625,0 -0.765625,0.421875 0,0.4375 0.390625,0.4375 0.765625,0.4375 h 6.5625 v 6.5625 c 0,0.359375 0,0.78125 0.421875,0.78125 0.453125,0 0.453125,-0.40625 0.453125,-0.78125 z m 0,0"
             id="path3111" />
        </g>
      </g>
    </g>
  </g>
</svg>
