<?xml version="1.0" encoding="UTF-8" standalone="no"?>
<!-- Created with Inkscape (http://www.inkscape.org/) -->

<svg
   width="148.44165mm"
   height="122.74656mm"
   viewBox="0 0 148.44165 122.74656"
   version="1.1"
   id="svg3709"
   inkscape:version="1.1.2 (0a00cf5339, 2022-02-04)"
   sodipodi:docname="lagrange_phi0.svg"
   xmlns:inkscape="http://www.inkscape.org/namespaces/inkscape"
   xmlns:sodipodi="http://sodipodi.sourceforge.net/DTD/sodipodi-0.dtd"
   xmlns:xlink="http://www.w3.org/1999/xlink"
   xmlns="http://www.w3.org/2000/svg"
   xmlns:svg="http://www.w3.org/2000/svg">
  <sodipodi:namedview
     id="namedview3711"
     pagecolor="#ffffff"
     bordercolor="#000000"
     borderopacity="0.25"
     inkscape:showpageshadow="2"
     inkscape:pageopacity="0.0"
     inkscape:pagecheckerboard="0"
     inkscape:deskcolor="#d1d1d1"
     inkscape:document-units="mm"
     showgrid="false"
     inkscape:zoom="0.7786055"
     inkscape:cx="306.95904"
     inkscape:cy="270.35514"
     inkscape:window-width="1850"
     inkscape:window-height="1016"
     inkscape:window-x="0"
     inkscape:window-y="0"
     inkscape:window-maximized="1"
     inkscape:current-layer="layer1"
     inkscape:pageshadow="2"
     fit-margin-top="0"
     fit-margin-left="0"
     fit-margin-right="0"
     fit-margin-bottom="0" />
  <defs
     id="defs3706">
    <g
       id="g9727">
      <symbol
         overflow="visible"
         id="symbol6999">
        <path
           style="stroke:none"
           d=""
           id="path5664" />
      </symbol>
      <symbol
         overflow="visible"
         id="symbol7000">
        <path
           style="stroke:none"
           d="m 4.359375,-6.671875 c 0,-0.03125 0.03125,-0.140625 0.03125,-0.140625 0,-0.015625 0,-0.109375 -0.125,-0.109375 -0.09375,0 -0.109375,0.03125 -0.15625,0.203125 L 3.53125,-4.421875 c -1.578125,0.0625 -3.046875,1.375 -3.046875,2.734375 0,0.953125 0.703125,1.734375 1.921875,1.8125 C 2.328125,0.421875 2.25,0.75 2.171875,1.0625 c -0.125,0.46875 -0.21875,0.84375 -0.21875,0.875 0,0.09375 0.078125,0.109375 0.125,0.109375 C 2.125,2.046875 2.140625,2.03125 2.171875,2 2.1875,1.984375 2.25,1.75 2.28125,1.609375 L 2.65625,0.125 c 1.609375,-0.0625 3.0625,-1.40625 3.0625,-2.734375 0,-0.796875 -0.53125,-1.703125 -1.921875,-1.8125 z m -1.90625,6.578125 c -0.59375,-0.03125 -1.3125,-0.390625 -1.3125,-1.375 0,-1.203125 0.859375,-2.59375 2.34375,-2.734375 z m 1.28125,-4.109375 c 0.765625,0.046875 1.328125,0.5 1.328125,1.375 0,1.1875 -0.859375,2.609375 -2.34375,2.734375 z m 0,0"
           id="path6159" />
      </symbol>
      <symbol
         overflow="visible"
         id="symbol9516">
        <path
           style="stroke:none"
           d=""
           id="path1918" />
      </symbol>
      <symbol
         overflow="visible"
         id="symbol6916">
        <path
           style="stroke:none"
           d="M 3.59375,-2.21875 C 3.59375,-2.984375 3.5,-3.546875 3.1875,-4.03125 2.96875,-4.34375 2.53125,-4.625 1.984375,-4.625 c -1.625,0 -1.625,1.90625 -1.625,2.40625 0,0.5 0,2.359375 1.625,2.359375 1.609375,0 1.609375,-1.859375 1.609375,-2.359375 z M 1.984375,-0.0625 c -0.328125,0 -0.75,-0.1875 -0.890625,-0.75 C 1,-1.21875 1,-1.796875 1,-2.3125 1,-2.828125 1,-3.359375 1.09375,-3.734375 1.25,-4.28125 1.6875,-4.4375 1.984375,-4.4375 c 0.375,0 0.734375,0.234375 0.859375,0.640625 0.109375,0.375 0.125,0.875 0.125,1.484375 0,0.515625 0,1.03125 -0.09375,1.46875 -0.140625,0.640625 -0.609375,0.78125 -0.890625,0.78125 z m 0,0"
           id="path4274" />
      </symbol>
    </g>
  </defs>
  <g
     inkscape:label="Layer 1"
     inkscape:groupmode="layer"
     id="layer1"
     transform="translate(-50.944946,-94.870705)">
    <path
       style="fill:none;stroke:#000000;stroke-width:0.57;stroke-dasharray:none"
       d="m 99.933722,96.049522 -47.811396,56.341818 42.776779,63.46689 103.138175,-20.9531 -5.9789,-78.08668 z"
       id="path3895" />
    <path
       style="fill:none;stroke:#000000;stroke-width:0.57;stroke-dasharray:1.14, 3.42;stroke-dashoffset:0"
       d="M 99.941768,96.136506 120.7826,158.05216 191.82591,116.95355"
       id="path3897"
       sodipodi:nodetypes="ccc" />
    <path
       style="fill:none;stroke:#000000;stroke-width:0.57;stroke-dasharray:1.14, 3.42;stroke-dashoffset:0"
       d="m 52.55755,152.33383 68.51683,5.70807 -26.325154,58.31075"
       id="path3899" />
    <path
       style="fill:none;stroke:#000000;stroke-width:0.57;stroke-dasharray:1.14, 3.42;stroke-dashoffset:0"
       d="m 120.72115,158.15029 76.48496,35.94117"
       id="path3901" />
    <ellipse
       style="fill:#000000;fill-opacity:1;fill-rule:evenodd;stroke:#003d07;stroke-width:0.0752102"
       id="path847"
       cx="100.0618"
       cy="96.370705"
       rx="1.4623948"
       ry="1.462395" />
    <ellipse
       style="fill:#000000;fill-opacity:1;fill-rule:evenodd;stroke:#003d07;stroke-width:0.0752102"
       id="path847-3"
       cx="52.444946"
       cy="152.14316"
       rx="1.4623948"
       ry="1.462395" />
    <ellipse
       style="fill:#000000;fill-opacity:1;fill-rule:evenodd;stroke:#003d07;stroke-width:0.0752102"
       id="path847-6"
       cx="94.956879"
       cy="216.11726"
       rx="1.4623948"
       ry="1.462395" />
    <ellipse
       style="fill:#000000;fill-opacity:1;fill-rule:evenodd;stroke:#003d07;stroke-width:0.0752102"
       id="path847-7"
       cx="197.8866"
       cy="195.29991"
       rx="1.4623948"
       ry="1.462395" />
    <ellipse
       style="fill:#000000;fill-opacity:1;fill-rule:evenodd;stroke:#003d07;stroke-width:0.0752102"
       id="path847-5"
       cx="192.19466"
       cy="117.22697"
       rx="1.4623948"
       ry="1.462395" />
    <ellipse
       style="fill:#000000;fill-opacity:1;fill-rule:evenodd;stroke:#003d07;stroke-width:0.0752102"
       id="path847-35"
       cx="120.6075"
       cy="158.08798"
       rx="1.4623948"
       ry="1.462395" />
    <g
       inkscape:label=""
       transform="translate(31.180759,68.126515)"
       id="g1363">
      <g
         id="g2375">
        <g
           style="fill:#000000;fill-opacity:1"
           id="g2697">
          <use
             xlink:href="#symbol7000"
             x="91.925003"
             y="81.962997"
             id="use9407"
             width="100%"
             height="100%" />
        </g>
        <g
           style="fill:#000000;fill-opacity:1"
           id="g8257">
          <use
             xlink:href="#symbol6916"
             x="97.861"
             y="83.457001"
             id="use6562"
             width="100%"
             height="100%" />
        </g>
      </g>
    </g>
  </g>
</svg>
