<?xml version="1.0" encoding="UTF-8" standalone="no"?>
<!-- Created with Inkscape (http://www.inkscape.org/) -->

<svg
   width="100mm"
   height="100mm"
   viewBox="0 0 100 100"
   version="1.1"
   id="svg1"
   inkscape:version="1.3.2 (091e20e, 2023-11-25)"
   sodipodi:docname="mesh_points.svg"
   xmlns:inkscape="http://www.inkscape.org/namespaces/inkscape"
   xmlns:sodipodi="http://sodipodi.sourceforge.net/DTD/sodipodi-0.dtd"
   xmlns="http://www.w3.org/2000/svg"
   xmlns:svg="http://www.w3.org/2000/svg">
  <sodipodi:namedview
     id="namedview1"
     pagecolor="#ffffff"
     bordercolor="#000000"
     borderopacity="0.25"
     inkscape:showpageshadow="2"
     inkscape:pageopacity="0.0"
     inkscape:pagecheckerboard="0"
     inkscape:deskcolor="#d1d1d1"
     inkscape:document-units="mm"
     inkscape:zoom="1.4538721"
     inkscape:cx="212.19199"
     inkscape:cy="215.97499"
     inkscape:window-width="1846"
     inkscape:window-height="1016"
     inkscape:window-x="0"
     inkscape:window-y="0"
     inkscape:window-maximized="1"
     inkscape:current-layer="layer1" />
  <defs
     id="defs1" />
  <g
     inkscape:label="Layer 1"
     inkscape:groupmode="layer"
     id="layer1"
     transform="translate(-15.6104, -19.5792)">
    <path
       style="fill:none;fill-rule:evenodd;stroke:#400000;stroke-width:0.505928;stroke-linejoin:miter;stroke-dasharray:none;paint-order:stroke fill markers"
       d="M 115.35745,19.832131 H 15.863381 V 119.3262 h 99.494069 z"
       id="path975"
       sodipodi:nodetypes="ccccc" />
    <path
       style="fill:none;fill-rule:evenodd;stroke:#400000;stroke-width:0.499999;stroke-linejoin:miter;stroke-dasharray:none;paint-order:stroke fill markers"
       d="M 15.610417,39.579167 H 115.61042"
       id="path1353"
       sodipodi:nodetypes="cc" />
    <path
       style="fill:none;fill-rule:evenodd;stroke:#400000;stroke-width:0.499999;stroke-linejoin:miter;stroke-dasharray:none;paint-order:stroke fill markers"
       d="M 35.860416,119.57916 V 19.579167"
       id="path1353-8"
       sodipodi:nodetypes="cc" />
    <path
       style="fill:none;fill-rule:evenodd;stroke:#400000;stroke-width:0.499999;stroke-linejoin:miter;stroke-dasharray:none;paint-order:stroke fill markers"
       d="M 55.860416,119.57916 V 19.579167"
       id="path1353-8-7"
       sodipodi:nodetypes="cc" />
    <path
       style="fill:none;fill-rule:evenodd;stroke:#400000;stroke-width:0.499999;stroke-linejoin:miter;stroke-dasharray:none;paint-order:stroke fill markers"
       d="M 75.860416,119.57916 V 19.579167"
       id="path1353-8-9"
       sodipodi:nodetypes="cc" />
    <path
       style="fill:none;fill-rule:evenodd;stroke:#400000;stroke-width:0.499999;stroke-linejoin:miter;stroke-dasharray:none;paint-order:stroke fill markers"
       d="M 95.860416,119.57916 V 19.579167"
       id="path1353-8-2"
       sodipodi:nodetypes="cc" />
    <path
       style="fill:none;fill-rule:evenodd;stroke:#400000;stroke-width:0.499999;stroke-linejoin:miter;stroke-dasharray:none;paint-order:stroke fill markers"
       d="M 15.610417,59.829166 H 115.61042"
       id="path1353-6"
       sodipodi:nodetypes="cc" />
    <path
       style="fill:none;fill-rule:evenodd;stroke:#400000;stroke-width:0.499999;stroke-linejoin:miter;stroke-dasharray:none;paint-order:stroke fill markers"
       d="M 15.610417,79.829166 H 115.61042"
       id="path1353-2"
       sodipodi:nodetypes="cc" />
    <path
       style="fill:none;fill-rule:evenodd;stroke:#400000;stroke-width:0.499999;stroke-linejoin:miter;stroke-dasharray:none;paint-order:stroke fill markers"
       d="M 15.610417,99.829166 H 115.61042"
       id="path1353-61"
       sodipodi:nodetypes="cc" />
    <path
       style="fill:none;fill-rule:evenodd;stroke:#000000;stroke-width:0.5;stroke-dasharray:none;stroke-opacity:1"
       d="m 105.99397,87.082365 c 0,0 -2.94925,-34.733461 -40.641378,-34.683463 -33.657359,0.04465 -39.523188,34.291745 -39.523188,34.291745 z"
       id="path1"
       sodipodi:nodetypes="cscc" />
    <ellipse
       style="fill:#ff0000;fill-opacity:1;fill-rule:evenodd;stroke:#ff0000;stroke-width:0.499999;stroke-opacity:1"
       id="path2"
       cx="25.810999"
       cy="86.635757"
       rx="0.69016325"
       ry="0.66075724" />
    <ellipse
       style="fill:#000000;fill-opacity:1;fill-rule:evenodd;stroke:#000000;stroke-width:0.499999"
       id="path2-9"
       cx="46.022305"
       cy="86.783722"
       rx="0.69016325"
       ry="0.66075724" />
    <ellipse
       style="fill:#000000;fill-opacity:1;fill-rule:evenodd;stroke:#000000;stroke-width:0.499999"
       id="path2-6"
       cx="66.176888"
       cy="86.860077"
       rx="0.69016325"
       ry="0.66075724" />
    <ellipse
       style="fill:#000000;fill-opacity:1;fill-rule:evenodd;stroke:#000000;stroke-width:0.499999"
       id="path2-5"
       cx="30.934883"
       cy="72.842468"
       rx="0.69016325"
       ry="0.66075724" />
    <ellipse
       style="fill:#000000;fill-opacity:1;fill-rule:evenodd;stroke:#000000;stroke-width:0.499999"
       id="path2-89"
       cx="39.304749"
       cy="62.29409"
       rx="0.69016325"
       ry="0.66075724" />
    <ellipse
       style="fill:#000000;fill-opacity:1;fill-rule:evenodd;stroke:#000000;stroke-width:0.499999"
       id="path2-1"
       cx="51.210999"
       cy="54.621174"
       rx="0.69016325"
       ry="0.66075724" />
    <ellipse
       style="fill:#000000;fill-opacity:1;fill-rule:evenodd;stroke:#000000;stroke-width:0.499999"
       id="path2-19"
       cx="67.383095"
       cy="52.532585"
       rx="0.69016325"
       ry="0.66075724" />
    <ellipse
       style="fill:#000000;fill-opacity:1;fill-rule:evenodd;stroke:#000000;stroke-width:0.499999"
       id="path2-4"
       cx="82.645256"
       cy="55.28746"
       rx="0.69016325"
       ry="0.66075724" />
    <ellipse
       style="fill:#000000;fill-opacity:1;fill-rule:evenodd;stroke:#000000;stroke-width:0.499999"
       id="path2-61"
       cx="97.114822"
       cy="65.89489"
       rx="0.69016325"
       ry="0.66075724" />
    <ellipse
       style="fill:#000000;fill-opacity:1;fill-rule:evenodd;stroke:#000000;stroke-width:0.499999"
       id="path2-8"
       cx="87.458916"
       cy="86.900337"
       rx="0.69016325"
       ry="0.66075724" />
    <ellipse
       style="fill:#ff0000;fill-opacity:1;fill-rule:evenodd;stroke:#ff0000;stroke-width:0.499999;stroke-opacity:1"
       id="path2-0"
       cx="106.01738"
       cy="87.010925"
       rx="0.69016325"
       ry="0.66075724" />
    <ellipse
       style="fill:#000000;fill-opacity:1;fill-rule:evenodd;stroke:#000000;stroke-width:0.499999"
       id="path2-2"
       cx="103.16869"
       cy="76.280754"
       rx="0.69016325"
       ry="0.66075724" />
    <g
       inkscape:label=""
       transform="translate(104.59863,73.499698)"
       id="g9">
      <g
         fill="#000000"
         fill-opacity="1"
         id="g6"
         transform="matrix(0.352778,0,0,0.352778,-0.642452,-0.67019)">
        <g
           id="g5"
           transform="translate(1.993,7.3060002)">
          <path
             d="M 0.625,1.546875 C 0.578125,1.703125 0.5625,1.71875 0.546875,1.734375 0.484375,1.75 0.34375,1.75 0.234375,1.75 c -0.203125,0 -0.40625,0 -0.40625,0.34375 0,0.125 0.09375,0.21875 0.21875,0.21875 0.34375,0 0.734375,-0.03125 1.09375,-0.03125 0.421875,0 0.875,0.03125 1.28125,0.03125 0.09375,0 0.3125,0 0.3125,-0.34375 0,-0.203125 -0.1875,-0.21875 -0.3125,-0.21875 -0.15625,0 -0.359375,0 -0.515625,0 L 2.421875,-0.328125 C 2.609375,-0.171875 3,0.09375 3.640625,0.09375 5.71875,0.09375 7,-1.796875 7,-3.4375 7,-4.90625 5.90625,-5.40625 4.90625,-5.40625 4.0625,-5.40625 3.4375,-4.9375 3.25,-4.75 2.796875,-5.40625 2.015625,-5.40625 1.875,-5.40625 c -0.4375,0 -0.78125,0.25 -1.03125,0.6875 -0.3125,0.46875 -0.46875,1.125 -0.46875,1.1875 0,0.15625 0.1875,0.15625 0.296875,0.15625 0.125,0 0.171875,0 0.234375,-0.0625 C 0.9375,-3.453125 0.9375,-3.484375 1,-3.78125 c 0.25,-0.953125 0.515625,-1.1875 0.8125,-1.1875 0.140625,0 0.28125,0.046875 0.28125,0.4375 0,0.1875 -0.03125,0.34375 -0.078125,0.515625 z m 2.75,-5.75 c 0.34375,-0.40625 0.90625,-0.765625 1.484375,-0.765625 0.734375,0 0.796875,0.640625 0.796875,0.90625 0,0.625 -0.40625,2.09375 -0.59375,2.5625 -0.375,0.859375 -0.96875,1.171875 -1.453125,1.171875 -0.703125,0 -0.984375,-0.5625 -0.984375,-0.703125 L 2.640625,-1.1875 Z m 0,0"
             id="path3" />
        </g>
      </g>
      <g
         fill="#000000"
         fill-opacity="1"
         id="g8"
         transform="matrix(0.352778,0,0,0.352778,-0.642452,-0.67019)">
        <g
           id="g7"
           transform="translate(9.177,10.128)">
          <path
             d="m 2.5,-5.078125 c 0,-0.21875 -0.015625,-0.21875 -0.234375,-0.21875 -0.328125,0.3125 -0.75,0.5 -1.5,0.5 v 0.265625 c 0.21875,0 0.640625,0 1.109375,-0.203125 v 4.078125 c 0,0.296875 -0.03125,0.390625 -0.78125,0.390625 H 0.8125 V 0 c 0.328125,-0.03125 1.015625,-0.03125 1.375,-0.03125 0.359375,0 1.046875,0 1.375,0.03125 V -0.265625 H 3.28125 c -0.75,0 -0.78125,-0.09375 -0.78125,-0.390625 z m 0,0"
             id="path6" />
        </g>
      </g>
    </g>
    <g
       inkscape:label=""
       transform="translate(104.60873,89.644329)"
       id="g10">
      <g
         fill="#000000"
         fill-opacity="1"
         id="g3"
         transform="matrix(0.352778,0,0,0.352778,-0.642452,-0.67019)">
        <g
           id="use2"
           transform="translate(1.993,7.3060002)">
          <path
             d="M 0.625,1.546875 C 0.578125,1.703125 0.5625,1.71875 0.546875,1.734375 0.484375,1.75 0.34375,1.75 0.234375,1.75 c -0.203125,0 -0.40625,0 -0.40625,0.34375 0,0.125 0.09375,0.21875 0.21875,0.21875 0.34375,0 0.734375,-0.03125 1.09375,-0.03125 0.421875,0 0.875,0.03125 1.28125,0.03125 0.09375,0 0.3125,0 0.3125,-0.34375 0,-0.203125 -0.1875,-0.21875 -0.3125,-0.21875 -0.15625,0 -0.359375,0 -0.515625,0 L 2.421875,-0.328125 C 2.609375,-0.171875 3,0.09375 3.640625,0.09375 5.71875,0.09375 7,-1.796875 7,-3.4375 7,-4.90625 5.90625,-5.40625 4.90625,-5.40625 4.0625,-5.40625 3.4375,-4.9375 3.25,-4.75 2.796875,-5.40625 2.015625,-5.40625 1.875,-5.40625 c -0.4375,0 -0.78125,0.25 -1.03125,0.6875 -0.3125,0.46875 -0.46875,1.125 -0.46875,1.1875 0,0.15625 0.1875,0.15625 0.296875,0.15625 0.125,0 0.171875,0 0.234375,-0.0625 C 0.9375,-3.453125 0.9375,-3.484375 1,-3.78125 c 0.25,-0.953125 0.515625,-1.1875 0.8125,-1.1875 0.140625,0 0.28125,0.046875 0.28125,0.4375 0,0.1875 -0.03125,0.34375 -0.078125,0.515625 z m 2.75,-5.75 c 0.34375,-0.40625 0.90625,-0.765625 1.484375,-0.765625 0.734375,0 0.796875,0.640625 0.796875,0.90625 0,0.625 -0.40625,2.09375 -0.59375,2.5625 -0.375,0.859375 -0.96875,1.171875 -1.453125,1.171875 -0.703125,0 -0.984375,-0.5625 -0.984375,-0.703125 L 2.640625,-1.1875 Z m 0,0"
             id="path4" />
        </g>
      </g>
      <g
         fill="#000000"
         fill-opacity="1"
         id="g4"
         transform="matrix(0.352778,0,0,0.352778,-0.642452,-0.67019)">
        <g
           id="use3"
           transform="translate(9.177,10.128)">
          <path
             d="m 3.890625,-2.546875 c 0,-0.84375 -0.078125,-1.359375 -0.34375,-1.875 -0.34375,-0.703125 -1,-0.875 -1.4375,-0.875 -1,0 -1.375,0.75 -1.484375,0.96875 -0.28125,0.578125 -0.296875,1.375 -0.296875,1.78125 0,0.53125 0.015625,1.328125 0.40625,1.96875 0.359375,0.59375 0.953125,0.75 1.375,0.75 0.390625,0 1.0625,-0.125 1.46875,-0.90625 0.296875,-0.578125 0.3125,-1.296875 0.3125,-1.8125 z M 2.109375,-0.0625 C 1.84375,-0.0625 1.296875,-0.1875 1.125,-1.015625 1.03125,-1.46875 1.03125,-2.21875 1.03125,-2.640625 1.03125,-3.1875 1.03125,-3.75 1.125,-4.1875 1.296875,-5 1.90625,-5.078125 2.109375,-5.078125 c 0.265625,0 0.828125,0.140625 0.984375,0.859375 0.09375,0.4375 0.09375,1.046875 0.09375,1.578125 0,0.46875 0,1.1875 -0.09375,1.640625 -0.171875,0.828125 -0.71875,0.9375 -0.984375,0.9375 z m 0,0"
             id="path5" />
        </g>
      </g>
    </g>
    <g
       inkscape:label=""
       transform="translate(99.670551,63.079545)"
       id="g15">
      <g
         fill="#000000"
         fill-opacity="1"
         id="g12"
         transform="matrix(0.352778,0,0,0.352778,-0.642452,-0.67019)">
        <g
           id="g11"
           transform="translate(1.993,7.3060002)">
          <path
             d="M 0.625,1.546875 C 0.578125,1.703125 0.5625,1.71875 0.546875,1.734375 0.484375,1.75 0.34375,1.75 0.234375,1.75 c -0.203125,0 -0.40625,0 -0.40625,0.34375 0,0.125 0.09375,0.21875 0.21875,0.21875 0.34375,0 0.734375,-0.03125 1.09375,-0.03125 0.421875,0 0.875,0.03125 1.28125,0.03125 0.09375,0 0.3125,0 0.3125,-0.34375 0,-0.203125 -0.1875,-0.21875 -0.3125,-0.21875 -0.15625,0 -0.359375,0 -0.515625,0 L 2.421875,-0.328125 C 2.609375,-0.171875 3,0.09375 3.640625,0.09375 5.71875,0.09375 7,-1.796875 7,-3.4375 7,-4.90625 5.90625,-5.40625 4.90625,-5.40625 4.0625,-5.40625 3.4375,-4.9375 3.25,-4.75 2.796875,-5.40625 2.015625,-5.40625 1.875,-5.40625 c -0.4375,0 -0.78125,0.25 -1.03125,0.6875 -0.3125,0.46875 -0.46875,1.125 -0.46875,1.1875 0,0.15625 0.1875,0.15625 0.296875,0.15625 0.125,0 0.171875,0 0.234375,-0.0625 C 0.9375,-3.453125 0.9375,-3.484375 1,-3.78125 c 0.25,-0.953125 0.515625,-1.1875 0.8125,-1.1875 0.140625,0 0.28125,0.046875 0.28125,0.4375 0,0.1875 -0.03125,0.34375 -0.078125,0.515625 z m 2.75,-5.75 c 0.34375,-0.40625 0.90625,-0.765625 1.484375,-0.765625 0.734375,0 0.796875,0.640625 0.796875,0.90625 0,0.625 -0.40625,2.09375 -0.59375,2.5625 -0.375,0.859375 -0.96875,1.171875 -1.453125,1.171875 -0.703125,0 -0.984375,-0.5625 -0.984375,-0.703125 L 2.640625,-1.1875 Z m 0,0"
             id="path10" />
        </g>
      </g>
      <g
         fill="#000000"
         fill-opacity="1"
         id="g14"
         transform="matrix(0.352778,0,0,0.352778,-0.642452,-0.67019)">
        <g
           id="g13"
           transform="translate(9.177,10.128)">
          <path
             d="m 2.25,-1.625 c 0.125,-0.125 0.453125,-0.390625 0.59375,-0.5 0.484375,-0.453125 0.953125,-0.890625 0.953125,-1.609375 0,-0.953125 -0.796875,-1.5625 -1.78125,-1.5625 -0.96875,0 -1.59375,0.71875 -1.59375,1.4375 0,0.390625 0.3125,0.4375 0.421875,0.4375 0.171875,0 0.421875,-0.109375 0.421875,-0.421875 0,-0.40625 -0.40625,-0.40625 -0.5,-0.40625 C 1,-4.84375 1.53125,-5.03125 1.921875,-5.03125 c 0.734375,0 1.125,0.625 1.125,1.296875 0,0.828125 -0.578125,1.4375 -1.53125,2.390625 l -1,1.046875 C 0.421875,-0.21875 0.421875,-0.203125 0.421875,0 H 3.5625 l 0.234375,-1.421875 h -0.25 C 3.53125,-1.265625 3.46875,-0.875 3.375,-0.71875 c -0.046875,0.0625 -0.65625,0.0625 -0.78125,0.0625 H 1.171875 Z m 0,0"
             id="path12" />
        </g>
      </g>
    </g>
    <g
       inkscape:label=""
       transform="translate(80.759674,50.696317)"
       id="g20">
      <g
         fill="#000000"
         fill-opacity="1"
         id="g17"
         transform="matrix(0.352778,0,0,0.352778,-0.642452,-0.67019)">
        <g
           id="g16"
           transform="translate(1.993,7.3060002)">
          <path
             d="M 0.625,1.546875 C 0.578125,1.703125 0.5625,1.71875 0.546875,1.734375 0.484375,1.75 0.34375,1.75 0.234375,1.75 c -0.203125,0 -0.40625,0 -0.40625,0.34375 0,0.125 0.09375,0.21875 0.21875,0.21875 0.34375,0 0.734375,-0.03125 1.09375,-0.03125 0.421875,0 0.875,0.03125 1.28125,0.03125 0.09375,0 0.3125,0 0.3125,-0.34375 0,-0.203125 -0.1875,-0.21875 -0.3125,-0.21875 -0.15625,0 -0.359375,0 -0.515625,0 L 2.421875,-0.328125 C 2.609375,-0.171875 3,0.09375 3.640625,0.09375 5.71875,0.09375 7,-1.796875 7,-3.4375 7,-4.90625 5.90625,-5.40625 4.90625,-5.40625 4.0625,-5.40625 3.4375,-4.9375 3.25,-4.75 2.796875,-5.40625 2.015625,-5.40625 1.875,-5.40625 c -0.4375,0 -0.78125,0.25 -1.03125,0.6875 -0.3125,0.46875 -0.46875,1.125 -0.46875,1.1875 0,0.15625 0.1875,0.15625 0.296875,0.15625 0.125,0 0.171875,0 0.234375,-0.0625 C 0.9375,-3.453125 0.9375,-3.484375 1,-3.78125 c 0.25,-0.953125 0.515625,-1.1875 0.8125,-1.1875 0.140625,0 0.28125,0.046875 0.28125,0.4375 0,0.1875 -0.03125,0.34375 -0.078125,0.515625 z m 2.75,-5.75 c 0.34375,-0.40625 0.90625,-0.765625 1.484375,-0.765625 0.734375,0 0.796875,0.640625 0.796875,0.90625 0,0.625 -0.40625,2.09375 -0.59375,2.5625 -0.375,0.859375 -0.96875,1.171875 -1.453125,1.171875 -0.703125,0 -0.984375,-0.5625 -0.984375,-0.703125 L 2.640625,-1.1875 Z m 0,0"
             id="path15" />
        </g>
      </g>
      <g
         fill="#000000"
         fill-opacity="1"
         id="g19"
         transform="matrix(0.352778,0,0,0.352778,-0.642452,-0.67019)">
        <g
           id="g18"
           transform="translate(9.177,10.128)">
          <path
             d="m 2.015625,-2.65625 c 0.625,0 1.03125,0.453125 1.03125,1.296875 0,1 -0.5625,1.28125 -0.984375,1.28125 -0.4375,0 -1.046875,-0.15625 -1.328125,-0.578125 0.296875,0 0.5,-0.1875 0.5,-0.4375 0,-0.265625 -0.1875,-0.4375 -0.453125,-0.4375 -0.203125,0 -0.4375,0.125 -0.4375,0.453125 0,0.75 0.8125,1.25 1.734375,1.25 C 3.125,0.171875 3.875,-0.5625 3.875,-1.359375 3.875,-2.03125 3.34375,-2.625 2.53125,-2.8125 c 0.625,-0.21875 1.109375,-0.75 1.109375,-1.390625 0,-0.640625 -0.71875,-1.09375 -1.546875,-1.09375 -0.859375,0 -1.5,0.453125 -1.5,1.0625 0,0.296875 0.1875,0.421875 0.40625,0.421875 0.25,0 0.40625,-0.171875 0.40625,-0.40625 0,-0.296875 -0.265625,-0.40625 -0.4375,-0.40625 0.34375,-0.4375 0.953125,-0.46875 1.09375,-0.46875 0.203125,0 0.8125,0.0625 0.8125,0.890625 0,0.546875 -0.234375,0.890625 -0.34375,1.015625 -0.234375,0.25 -0.421875,0.265625 -0.90625,0.296875 -0.15625,0 -0.21875,0.015625 -0.21875,0.125 0,0.109375 0.078125,0.109375 0.21875,0.109375 z m 0,0"
             id="path17" />
        </g>
      </g>
    </g>
    <g
       inkscape:label=""
       transform="translate(65.480574,54.34066)"
       id="g25">
      <g
         fill="#000000"
         fill-opacity="1"
         id="g22"
         transform="matrix(0.352778,0,0,0.352778,-0.642452,-0.67019)">
        <g
           id="g21"
           transform="translate(1.993,7.3060002)">
          <path
             d="M 0.625,1.546875 C 0.578125,1.703125 0.5625,1.71875 0.546875,1.734375 0.484375,1.75 0.34375,1.75 0.234375,1.75 c -0.203125,0 -0.40625,0 -0.40625,0.34375 0,0.125 0.09375,0.21875 0.21875,0.21875 0.34375,0 0.734375,-0.03125 1.09375,-0.03125 0.421875,0 0.875,0.03125 1.28125,0.03125 0.09375,0 0.3125,0 0.3125,-0.34375 0,-0.203125 -0.1875,-0.21875 -0.3125,-0.21875 -0.15625,0 -0.359375,0 -0.515625,0 L 2.421875,-0.328125 C 2.609375,-0.171875 3,0.09375 3.640625,0.09375 5.71875,0.09375 7,-1.796875 7,-3.4375 7,-4.90625 5.90625,-5.40625 4.90625,-5.40625 4.0625,-5.40625 3.4375,-4.9375 3.25,-4.75 2.796875,-5.40625 2.015625,-5.40625 1.875,-5.40625 c -0.4375,0 -0.78125,0.25 -1.03125,0.6875 -0.3125,0.46875 -0.46875,1.125 -0.46875,1.1875 0,0.15625 0.1875,0.15625 0.296875,0.15625 0.125,0 0.171875,0 0.234375,-0.0625 C 0.9375,-3.453125 0.9375,-3.484375 1,-3.78125 c 0.25,-0.953125 0.515625,-1.1875 0.8125,-1.1875 0.140625,0 0.28125,0.046875 0.28125,0.4375 0,0.1875 -0.03125,0.34375 -0.078125,0.515625 z m 2.75,-5.75 c 0.34375,-0.40625 0.90625,-0.765625 1.484375,-0.765625 0.734375,0 0.796875,0.640625 0.796875,0.90625 0,0.625 -0.40625,2.09375 -0.59375,2.5625 -0.375,0.859375 -0.96875,1.171875 -1.453125,1.171875 -0.703125,0 -0.984375,-0.5625 -0.984375,-0.703125 L 2.640625,-1.1875 Z m 0,0"
             id="path20" />
        </g>
      </g>
      <g
         fill="#000000"
         fill-opacity="1"
         id="g24"
         transform="matrix(0.352778,0,0,0.352778,-0.642452,-0.67019)">
        <g
           id="g23"
           transform="translate(9.177,10.128)">
          <path
             d="m 3.140625,-5.15625 c 0,-0.15625 0,-0.21875 -0.171875,-0.21875 -0.09375,0 -0.109375,0 -0.1875,0.109375 L 0.234375,-1.5625 v 0.25 h 2.25 v 0.671875 c 0,0.296875 -0.015625,0.375 -0.640625,0.375 H 1.671875 V 0 c 0.671875,-0.03125 0.6875,-0.03125 1.140625,-0.03125 0.453125,0 0.46875,0 1.140625,0.03125 V -0.265625 H 3.78125 c -0.625,0 -0.640625,-0.078125 -0.640625,-0.375 V -1.3125 h 0.84375 v -0.25 h -0.84375 z m -0.59375,0.640625 V -1.5625 h -2.03125 z m 0,0"
             id="path22" />
        </g>
      </g>
    </g>
    <g
       inkscape:label=""
       transform="translate(48.813105,50.162986)"
       id="g30">
      <g
         fill="#000000"
         fill-opacity="1"
         id="g27"
         transform="matrix(0.352778,0,0,0.352778,-0.642452,-0.67019)">
        <g
           id="g26"
           transform="translate(1.993,7.3060002)">
          <path
             d="M 0.625,1.546875 C 0.578125,1.703125 0.5625,1.71875 0.546875,1.734375 0.484375,1.75 0.34375,1.75 0.234375,1.75 c -0.203125,0 -0.40625,0 -0.40625,0.34375 0,0.125 0.09375,0.21875 0.21875,0.21875 0.34375,0 0.734375,-0.03125 1.09375,-0.03125 0.421875,0 0.875,0.03125 1.28125,0.03125 0.09375,0 0.3125,0 0.3125,-0.34375 0,-0.203125 -0.1875,-0.21875 -0.3125,-0.21875 -0.15625,0 -0.359375,0 -0.515625,0 L 2.421875,-0.328125 C 2.609375,-0.171875 3,0.09375 3.640625,0.09375 5.71875,0.09375 7,-1.796875 7,-3.4375 7,-4.90625 5.90625,-5.40625 4.90625,-5.40625 4.0625,-5.40625 3.4375,-4.9375 3.25,-4.75 2.796875,-5.40625 2.015625,-5.40625 1.875,-5.40625 c -0.4375,0 -0.78125,0.25 -1.03125,0.6875 -0.3125,0.46875 -0.46875,1.125 -0.46875,1.1875 0,0.15625 0.1875,0.15625 0.296875,0.15625 0.125,0 0.171875,0 0.234375,-0.0625 C 0.9375,-3.453125 0.9375,-3.484375 1,-3.78125 c 0.25,-0.953125 0.515625,-1.1875 0.8125,-1.1875 0.140625,0 0.28125,0.046875 0.28125,0.4375 0,0.1875 -0.03125,0.34375 -0.078125,0.515625 z m 2.75,-5.75 c 0.34375,-0.40625 0.90625,-0.765625 1.484375,-0.765625 0.734375,0 0.796875,0.640625 0.796875,0.90625 0,0.625 -0.40625,2.09375 -0.59375,2.5625 -0.375,0.859375 -0.96875,1.171875 -1.453125,1.171875 -0.703125,0 -0.984375,-0.5625 -0.984375,-0.703125 L 2.640625,-1.1875 Z m 0,0"
             id="path25" />
        </g>
      </g>
      <g
         fill="#000000"
         fill-opacity="1"
         id="g29"
         transform="matrix(0.352778,0,0,0.352778,-0.642452,-0.67019)">
        <g
           id="g28"
           transform="translate(9.177,10.128)">
          <path
             d="m 1.109375,-4.484375 c 0.109375,0.03125 0.421875,0.125 0.765625,0.125 1,0 1.59375,-0.703125 1.59375,-0.828125 0,-0.09375 -0.046875,-0.109375 -0.09375,-0.109375 -0.015625,0 -0.03125,0 -0.09375,0.03125 -0.3125,0.125 -0.6875,0.21875 -1.109375,0.21875 -0.46875,0 -0.859375,-0.109375 -1.109375,-0.21875 -0.078125,-0.03125 -0.09375,-0.03125 -0.109375,-0.03125 -0.09375,0 -0.09375,0.078125 -0.09375,0.234375 v 2.328125 c 0,0.140625 0,0.234375 0.125,0.234375 0.0625,0 0.078125,-0.03125 0.125,-0.09375 C 1.203125,-2.703125 1.5,-3.109375 2.1875,-3.109375 c 0.4375,0 0.65625,0.359375 0.734375,0.515625 0.125,0.28125 0.140625,0.65625 0.140625,0.953125 0,0.296875 0,0.734375 -0.21875,1.078125 -0.15625,0.25 -0.484375,0.484375 -0.90625,0.484375 -0.515625,0 -1.015625,-0.3125 -1.203125,-0.84375 C 0.75,-0.90625 0.8125,-0.90625 0.8125,-0.90625 c 0.21875,0 0.40625,-0.140625 0.40625,-0.390625 0,-0.296875 -0.234375,-0.40625 -0.390625,-0.40625 -0.15625,0 -0.40625,0.078125 -0.40625,0.421875 0,0.71875 0.625,1.453125 1.53125,1.453125 1,0 1.84375,-0.78125 1.84375,-1.765625 0,-0.921875 -0.671875,-1.75 -1.609375,-1.75 -0.390625,0 -0.765625,0.125 -1.078125,0.40625 z m 0,0"
             id="path27" />
        </g>
      </g>
    </g>
    <g
       inkscape:label=""
       transform="translate(40.520589,63.985353)"
       id="g35">
      <g
         fill="#000000"
         fill-opacity="1"
         id="g32"
         transform="matrix(0.352778,0,0,0.352778,-0.642452,-0.67019)">
        <g
           id="g31"
           transform="translate(1.993,7.3060002)">
          <path
             d="M 0.625,1.546875 C 0.578125,1.703125 0.5625,1.71875 0.546875,1.734375 0.484375,1.75 0.34375,1.75 0.234375,1.75 c -0.203125,0 -0.40625,0 -0.40625,0.34375 0,0.125 0.09375,0.21875 0.21875,0.21875 0.34375,0 0.734375,-0.03125 1.09375,-0.03125 0.421875,0 0.875,0.03125 1.28125,0.03125 0.09375,0 0.3125,0 0.3125,-0.34375 0,-0.203125 -0.1875,-0.21875 -0.3125,-0.21875 -0.15625,0 -0.359375,0 -0.515625,0 L 2.421875,-0.328125 C 2.609375,-0.171875 3,0.09375 3.640625,0.09375 5.71875,0.09375 7,-1.796875 7,-3.4375 7,-4.90625 5.90625,-5.40625 4.90625,-5.40625 4.0625,-5.40625 3.4375,-4.9375 3.25,-4.75 2.796875,-5.40625 2.015625,-5.40625 1.875,-5.40625 c -0.4375,0 -0.78125,0.25 -1.03125,0.6875 -0.3125,0.46875 -0.46875,1.125 -0.46875,1.1875 0,0.15625 0.1875,0.15625 0.296875,0.15625 0.125,0 0.171875,0 0.234375,-0.0625 C 0.9375,-3.453125 0.9375,-3.484375 1,-3.78125 c 0.25,-0.953125 0.515625,-1.1875 0.8125,-1.1875 0.140625,0 0.28125,0.046875 0.28125,0.4375 0,0.1875 -0.03125,0.34375 -0.078125,0.515625 z m 2.75,-5.75 c 0.34375,-0.40625 0.90625,-0.765625 1.484375,-0.765625 0.734375,0 0.796875,0.640625 0.796875,0.90625 0,0.625 -0.40625,2.09375 -0.59375,2.5625 -0.375,0.859375 -0.96875,1.171875 -1.453125,1.171875 -0.703125,0 -0.984375,-0.5625 -0.984375,-0.703125 L 2.640625,-1.1875 Z m 0,0"
             id="path30" />
        </g>
      </g>
      <g
         fill="#000000"
         fill-opacity="1"
         id="g34"
         transform="matrix(0.352778,0,0,0.352778,-0.642452,-0.67019)">
        <g
           id="g33"
           transform="translate(9.177,10.128)">
          <path
             d="m 1.09375,-2.640625 c 0,-0.65625 0.0625,-1.234375 0.34375,-1.71875 0.25,-0.40625 0.65625,-0.734375 1.15625,-0.734375 0.15625,0 0.515625,0.03125 0.703125,0.296875 C 2.9375,-4.765625 2.90625,-4.5 2.90625,-4.421875 c 0,0.25 0.1875,0.375 0.375,0.375 0.140625,0 0.375,-0.078125 0.375,-0.390625 0,-0.46875 -0.359375,-0.859375 -1.078125,-0.859375 -1.109375,0 -2.234375,1.046875 -2.234375,2.765625 0,2.171875 1.015625,2.703125 1.78125,2.703125 0.390625,0 0.796875,-0.109375 1.15625,-0.453125 C 3.609375,-0.59375 3.875,-0.921875 3.875,-1.625 c 0,-1.03125 -0.796875,-1.765625 -1.671875,-1.765625 -0.578125,0 -0.921875,0.359375 -1.109375,0.75 z m 1.03125,2.5625 c -0.421875,0 -0.6875,-0.28125 -0.796875,-0.515625 C 1.140625,-0.953125 1.125,-1.484375 1.125,-1.796875 c 0,-0.78125 0.421875,-1.375 1.046875,-1.375 0.390625,0 0.640625,0.203125 0.78125,0.484375 C 3.125,-2.390625 3.125,-2.03125 3.125,-1.625 c 0,0.40625 0,0.75 -0.15625,1.046875 -0.21875,0.359375 -0.484375,0.5 -0.84375,0.5 z m 0,0"
             id="path32" />
        </g>
      </g>
    </g>
    <g
       inkscape:label=""
       transform="translate(24.747367,70.065627)"
       id="g40">
      <g
         fill="#000000"
         fill-opacity="1"
         id="g37"
         transform="matrix(0.352778,0,0,0.352778,-0.642452,-0.67019)">
        <g
           id="g36"
           transform="translate(1.993,7.3060002)">
          <path
             d="M 0.625,1.546875 C 0.578125,1.703125 0.5625,1.71875 0.546875,1.734375 0.484375,1.75 0.34375,1.75 0.234375,1.75 c -0.203125,0 -0.40625,0 -0.40625,0.34375 0,0.125 0.09375,0.21875 0.21875,0.21875 0.34375,0 0.734375,-0.03125 1.09375,-0.03125 0.421875,0 0.875,0.03125 1.28125,0.03125 0.09375,0 0.3125,0 0.3125,-0.34375 0,-0.203125 -0.1875,-0.21875 -0.3125,-0.21875 -0.15625,0 -0.359375,0 -0.515625,0 L 2.421875,-0.328125 C 2.609375,-0.171875 3,0.09375 3.640625,0.09375 5.71875,0.09375 7,-1.796875 7,-3.4375 7,-4.90625 5.90625,-5.40625 4.90625,-5.40625 4.0625,-5.40625 3.4375,-4.9375 3.25,-4.75 2.796875,-5.40625 2.015625,-5.40625 1.875,-5.40625 c -0.4375,0 -0.78125,0.25 -1.03125,0.6875 -0.3125,0.46875 -0.46875,1.125 -0.46875,1.1875 0,0.15625 0.1875,0.15625 0.296875,0.15625 0.125,0 0.171875,0 0.234375,-0.0625 C 0.9375,-3.453125 0.9375,-3.484375 1,-3.78125 c 0.25,-0.953125 0.515625,-1.1875 0.8125,-1.1875 0.140625,0 0.28125,0.046875 0.28125,0.4375 0,0.1875 -0.03125,0.34375 -0.078125,0.515625 z m 2.75,-5.75 c 0.34375,-0.40625 0.90625,-0.765625 1.484375,-0.765625 0.734375,0 0.796875,0.640625 0.796875,0.90625 0,0.625 -0.40625,2.09375 -0.59375,2.5625 -0.375,0.859375 -0.96875,1.171875 -1.453125,1.171875 -0.703125,0 -0.984375,-0.5625 -0.984375,-0.703125 L 2.640625,-1.1875 Z m 0,0"
             id="path35" />
        </g>
      </g>
      <g
         fill="#000000"
         fill-opacity="1"
         id="g39"
         transform="matrix(0.352778,0,0,0.352778,-0.642452,-0.67019)">
        <g
           id="g38"
           transform="translate(9.177,10.128)">
          <path
             d="M 4.03125,-4.859375 C 4.109375,-4.9375 4.109375,-4.953125 4.109375,-5.125 H 2.078125 C 1.875,-5.125 1.640625,-5.140625 1.4375,-5.15625 1.015625,-5.1875 1.015625,-5.265625 0.984375,-5.390625 h -0.25 l -0.265625,1.6875 h 0.25 C 0.734375,-3.828125 0.828125,-4.375 0.9375,-4.4375 1.015625,-4.484375 1.625,-4.484375 1.734375,-4.484375 h 1.6875 L 2.609375,-3.375 C 1.703125,-2.171875 1.5,-0.90625 1.5,-0.28125 c 0,0.078125 0,0.453125 0.375,0.453125 0.375,0 0.375,-0.359375 0.375,-0.453125 V -0.671875 C 2.25,-1.8125 2.453125,-2.75 2.84375,-3.28125 Z m 0,0"
             id="path37" />
        </g>
      </g>
    </g>
    <g
       inkscape:label=""
       transform="translate(24.030059,88.665855)"
       id="g45">
      <g
         fill="#000000"
         fill-opacity="1"
         id="g42"
         transform="matrix(0.352778,0,0,0.352778,-0.642452,-0.67019)">
        <g
           id="g41"
           transform="translate(1.993,7.3060002)">
          <path
             d="M 0.625,1.546875 C 0.578125,1.703125 0.5625,1.71875 0.546875,1.734375 0.484375,1.75 0.34375,1.75 0.234375,1.75 c -0.203125,0 -0.40625,0 -0.40625,0.34375 0,0.125 0.09375,0.21875 0.21875,0.21875 0.34375,0 0.734375,-0.03125 1.09375,-0.03125 0.421875,0 0.875,0.03125 1.28125,0.03125 0.09375,0 0.3125,0 0.3125,-0.34375 0,-0.203125 -0.1875,-0.21875 -0.3125,-0.21875 -0.15625,0 -0.359375,0 -0.515625,0 L 2.421875,-0.328125 C 2.609375,-0.171875 3,0.09375 3.640625,0.09375 5.71875,0.09375 7,-1.796875 7,-3.4375 7,-4.90625 5.90625,-5.40625 4.90625,-5.40625 4.0625,-5.40625 3.4375,-4.9375 3.25,-4.75 2.796875,-5.40625 2.015625,-5.40625 1.875,-5.40625 c -0.4375,0 -0.78125,0.25 -1.03125,0.6875 -0.3125,0.46875 -0.46875,1.125 -0.46875,1.1875 0,0.15625 0.1875,0.15625 0.296875,0.15625 0.125,0 0.171875,0 0.234375,-0.0625 C 0.9375,-3.453125 0.9375,-3.484375 1,-3.78125 c 0.25,-0.953125 0.515625,-1.1875 0.8125,-1.1875 0.140625,0 0.28125,0.046875 0.28125,0.4375 0,0.1875 -0.03125,0.34375 -0.078125,0.515625 z m 2.75,-5.75 c 0.34375,-0.40625 0.90625,-0.765625 1.484375,-0.765625 0.734375,0 0.796875,0.640625 0.796875,0.90625 0,0.625 -0.40625,2.09375 -0.59375,2.5625 -0.375,0.859375 -0.96875,1.171875 -1.453125,1.171875 -0.703125,0 -0.984375,-0.5625 -0.984375,-0.703125 L 2.640625,-1.1875 Z m 0,0"
             id="path40" />
        </g>
      </g>
      <g
         fill="#000000"
         fill-opacity="1"
         id="g44"
         transform="matrix(0.352778,0,0,0.352778,-0.642452,-0.67019)">
        <g
           id="g43"
           transform="translate(9.177,10.128)">
          <path
             d="m 2.640625,-2.875 c 0.453125,-0.21875 1,-0.609375 1,-1.234375 0,-0.765625 -0.78125,-1.1875 -1.515625,-1.1875 -0.84375,0 -1.53125,0.578125 -1.53125,1.328125 0,0.296875 0.09375,0.5625 0.296875,0.796875 0.140625,0.171875 0.171875,0.1875 0.65625,0.5 -0.984375,0.4375 -1.203125,1.015625 -1.203125,1.453125 0,0.890625 0.890625,1.390625 1.765625,1.390625 0.96875,0 1.765625,-0.671875 1.765625,-1.515625 0,-0.5 -0.265625,-0.828125 -0.40625,-0.96875 -0.125,-0.125 -0.140625,-0.140625 -0.828125,-0.5625 z M 1.40625,-3.625 C 1.171875,-3.765625 0.984375,-4 0.984375,-4.265625 c 0,-0.5 0.546875,-0.828125 1.125,-0.828125 0.609375,0 1.125,0.421875 1.125,0.984375 0,0.453125 -0.359375,0.84375 -0.828125,1.078125 z m 0.390625,1.09375 c 0.03125,0.015625 0.9375,0.578125 1.078125,0.65625 0.125,0.078125 0.546875,0.328125 0.546875,0.8125 0,0.609375 -0.65625,0.984375 -1.296875,0.984375 -0.71875,0 -1.3125,-0.484375 -1.3125,-1.140625 0,-0.59375 0.4375,-1.0625 0.984375,-1.3125 z m 0,0"
             id="path42" />
        </g>
      </g>
    </g>
    <g
       inkscape:label=""
       transform="translate(44.251392,89.463589)"
       id="g50">
      <g
         fill="#000000"
         fill-opacity="1"
         id="g47"
         transform="matrix(0.352778,0,0,0.352778,-0.642452,-0.67019)">
        <g
           id="g46"
           transform="translate(1.993,7.3060002)">
          <path
             d="M 0.625,1.546875 C 0.578125,1.703125 0.5625,1.71875 0.546875,1.734375 0.484375,1.75 0.34375,1.75 0.234375,1.75 c -0.203125,0 -0.40625,0 -0.40625,0.34375 0,0.125 0.09375,0.21875 0.21875,0.21875 0.34375,0 0.734375,-0.03125 1.09375,-0.03125 0.421875,0 0.875,0.03125 1.28125,0.03125 0.09375,0 0.3125,0 0.3125,-0.34375 0,-0.203125 -0.1875,-0.21875 -0.3125,-0.21875 -0.15625,0 -0.359375,0 -0.515625,0 L 2.421875,-0.328125 C 2.609375,-0.171875 3,0.09375 3.640625,0.09375 5.71875,0.09375 7,-1.796875 7,-3.4375 7,-4.90625 5.90625,-5.40625 4.90625,-5.40625 4.0625,-5.40625 3.4375,-4.9375 3.25,-4.75 2.796875,-5.40625 2.015625,-5.40625 1.875,-5.40625 c -0.4375,0 -0.78125,0.25 -1.03125,0.6875 -0.3125,0.46875 -0.46875,1.125 -0.46875,1.1875 0,0.15625 0.1875,0.15625 0.296875,0.15625 0.125,0 0.171875,0 0.234375,-0.0625 C 0.9375,-3.453125 0.9375,-3.484375 1,-3.78125 c 0.25,-0.953125 0.515625,-1.1875 0.8125,-1.1875 0.140625,0 0.28125,0.046875 0.28125,0.4375 0,0.1875 -0.03125,0.34375 -0.078125,0.515625 z m 2.75,-5.75 c 0.34375,-0.40625 0.90625,-0.765625 1.484375,-0.765625 0.734375,0 0.796875,0.640625 0.796875,0.90625 0,0.625 -0.40625,2.09375 -0.59375,2.5625 -0.375,0.859375 -0.96875,1.171875 -1.453125,1.171875 -0.703125,0 -0.984375,-0.5625 -0.984375,-0.703125 L 2.640625,-1.1875 Z m 0,0"
             id="path45" />
        </g>
      </g>
      <g
         fill="#000000"
         fill-opacity="1"
         id="g49"
         transform="matrix(0.352778,0,0,0.352778,-0.642452,-0.67019)">
        <g
           id="g48"
           transform="translate(9.177,10.128)">
          <path
             d="m 3.125,-2.34375 c 0,1.9375 -0.921875,2.265625 -1.390625,2.265625 -0.171875,0 -0.578125,-0.015625 -0.796875,-0.265625 0.359375,-0.03125 0.375,-0.296875 0.375,-0.375 0,-0.234375 -0.1875,-0.375 -0.375,-0.375 -0.140625,0 -0.375,0.09375 -0.375,0.390625 0,0.546875 0.453125,0.875 1.1875,0.875 1.09375,0 2.125,-1.09375 2.125,-2.796875 0,-2.0625 -0.921875,-2.671875 -1.734375,-2.671875 -0.953125,0 -1.796875,0.734375 -1.796875,1.78125 C 0.34375,-2.5 1.125,-1.75 2.03125,-1.75 c 0.5625,0 0.90625,-0.359375 1.09375,-0.765625 z m -1.0625,0.375 c -0.375,0 -0.609375,-0.171875 -0.78125,-0.46875 -0.1875,-0.28125 -0.1875,-0.671875 -0.1875,-1.078125 0,-0.46875 0,-0.796875 0.21875,-1.125 0.203125,-0.296875 0.453125,-0.453125 0.828125,-0.453125 0.53125,0 0.765625,0.53125 0.796875,0.5625 0.15625,0.390625 0.171875,1.015625 0.171875,1.171875 0,0.640625 -0.34375,1.390625 -1.046875,1.390625 z m 0,0"
             id="path47" />
        </g>
      </g>
    </g>
    <g
       inkscape:label=""
       transform="translate(64.132419,89.405279)"
       id="g68">
      <g
         fill="#000000"
         fill-opacity="1"
         id="g64"
         transform="matrix(0.352778,0,0,0.352778,-0.642452,-0.67019)">
        <g
           id="g63"
           transform="translate(1.993,7.3060002)">
          <path
             d="M 0.625,1.546875 C 0.578125,1.703125 0.5625,1.71875 0.546875,1.734375 0.484375,1.75 0.34375,1.75 0.234375,1.75 c -0.203125,0 -0.40625,0 -0.40625,0.34375 0,0.125 0.09375,0.21875 0.21875,0.21875 0.34375,0 0.734375,-0.03125 1.09375,-0.03125 0.421875,0 0.875,0.03125 1.28125,0.03125 0.09375,0 0.3125,0 0.3125,-0.34375 0,-0.203125 -0.1875,-0.21875 -0.3125,-0.21875 -0.15625,0 -0.359375,0 -0.515625,0 L 2.421875,-0.328125 C 2.609375,-0.171875 3,0.09375 3.640625,0.09375 5.71875,0.09375 7,-1.796875 7,-3.4375 7,-4.90625 5.90625,-5.40625 4.90625,-5.40625 4.0625,-5.40625 3.4375,-4.9375 3.25,-4.75 2.796875,-5.40625 2.015625,-5.40625 1.875,-5.40625 c -0.4375,0 -0.78125,0.25 -1.03125,0.6875 -0.3125,0.46875 -0.46875,1.125 -0.46875,1.1875 0,0.15625 0.1875,0.15625 0.296875,0.15625 0.125,0 0.171875,0 0.234375,-0.0625 C 0.9375,-3.453125 0.9375,-3.484375 1,-3.78125 c 0.25,-0.953125 0.515625,-1.1875 0.8125,-1.1875 0.140625,0 0.28125,0.046875 0.28125,0.4375 0,0.1875 -0.03125,0.34375 -0.078125,0.515625 z m 2.75,-5.75 c 0.34375,-0.40625 0.90625,-0.765625 1.484375,-0.765625 0.734375,0 0.796875,0.640625 0.796875,0.90625 0,0.625 -0.40625,2.09375 -0.59375,2.5625 -0.375,0.859375 -0.96875,1.171875 -1.453125,1.171875 -0.703125,0 -0.984375,-0.5625 -0.984375,-0.703125 L 2.640625,-1.1875 Z m 0,0"
             id="path62" />
        </g>
      </g>
      <g
         fill="#000000"
         fill-opacity="1"
         id="g67"
         transform="matrix(0.352778,0,0,0.352778,-0.642452,-0.67019)">
        <g
           id="g65"
           transform="translate(9.177,10.128)">
          <path
             d="m 2.5,-5.078125 c 0,-0.21875 -0.015625,-0.21875 -0.234375,-0.21875 -0.328125,0.3125 -0.75,0.5 -1.5,0.5 v 0.265625 c 0.21875,0 0.640625,0 1.109375,-0.203125 v 4.078125 c 0,0.296875 -0.03125,0.390625 -0.78125,0.390625 H 0.8125 V 0 c 0.328125,-0.03125 1.015625,-0.03125 1.375,-0.03125 0.359375,0 1.046875,0 1.375,0.03125 V -0.265625 H 3.28125 c -0.75,0 -0.78125,-0.09375 -0.78125,-0.390625 z m 0,0"
             id="path64" />
        </g>
        <g
           id="g66"
           transform="translate(13.411514,10.128)">
          <path
             d="m 3.890625,-2.546875 c 0,-0.84375 -0.078125,-1.359375 -0.34375,-1.875 -0.34375,-0.703125 -1,-0.875 -1.4375,-0.875 -1,0 -1.375,0.75 -1.484375,0.96875 -0.28125,0.578125 -0.296875,1.375 -0.296875,1.78125 0,0.53125 0.015625,1.328125 0.40625,1.96875 0.359375,0.59375 0.953125,0.75 1.375,0.75 0.390625,0 1.0625,-0.125 1.46875,-0.90625 0.296875,-0.578125 0.3125,-1.296875 0.3125,-1.8125 z M 2.109375,-0.0625 C 1.84375,-0.0625 1.296875,-0.1875 1.125,-1.015625 1.03125,-1.46875 1.03125,-2.21875 1.03125,-2.640625 1.03125,-3.1875 1.03125,-3.75 1.125,-4.1875 1.296875,-5 1.90625,-5.078125 2.109375,-5.078125 c 0.265625,0 0.828125,0.140625 0.984375,0.859375 0.09375,0.4375 0.09375,1.046875 0.09375,1.578125 0,0.46875 0,1.1875 -0.09375,1.640625 -0.171875,0.828125 -0.71875,0.9375 -0.984375,0.9375 z m 0,0"
             id="path65" />
        </g>
      </g>
    </g>
    <g
       inkscape:label=""
       transform="translate(86.600175,89.936097)"
       id="g74">
      <g
         fill="#000000"
         fill-opacity="1"
         id="g70"
         transform="matrix(0.352778,0,0,0.352778,-0.642452,-0.67019)">
        <g
           id="g69"
           transform="translate(1.993,7.3060002)">
          <path
             d="M 0.625,1.546875 C 0.578125,1.703125 0.5625,1.71875 0.546875,1.734375 0.484375,1.75 0.34375,1.75 0.234375,1.75 c -0.203125,0 -0.40625,0 -0.40625,0.34375 0,0.125 0.09375,0.21875 0.21875,0.21875 0.34375,0 0.734375,-0.03125 1.09375,-0.03125 0.421875,0 0.875,0.03125 1.28125,0.03125 0.09375,0 0.3125,0 0.3125,-0.34375 0,-0.203125 -0.1875,-0.21875 -0.3125,-0.21875 -0.15625,0 -0.359375,0 -0.515625,0 L 2.421875,-0.328125 C 2.609375,-0.171875 3,0.09375 3.640625,0.09375 5.71875,0.09375 7,-1.796875 7,-3.4375 7,-4.90625 5.90625,-5.40625 4.90625,-5.40625 4.0625,-5.40625 3.4375,-4.9375 3.25,-4.75 2.796875,-5.40625 2.015625,-5.40625 1.875,-5.40625 c -0.4375,0 -0.78125,0.25 -1.03125,0.6875 -0.3125,0.46875 -0.46875,1.125 -0.46875,1.1875 0,0.15625 0.1875,0.15625 0.296875,0.15625 0.125,0 0.171875,0 0.234375,-0.0625 C 0.9375,-3.453125 0.9375,-3.484375 1,-3.78125 c 0.25,-0.953125 0.515625,-1.1875 0.8125,-1.1875 0.140625,0 0.28125,0.046875 0.28125,0.4375 0,0.1875 -0.03125,0.34375 -0.078125,0.515625 z m 2.75,-5.75 c 0.34375,-0.40625 0.90625,-0.765625 1.484375,-0.765625 0.734375,0 0.796875,0.640625 0.796875,0.90625 0,0.625 -0.40625,2.09375 -0.59375,2.5625 -0.375,0.859375 -0.96875,1.171875 -1.453125,1.171875 -0.703125,0 -0.984375,-0.5625 -0.984375,-0.703125 L 2.640625,-1.1875 Z m 0,0"
             id="path68" />
        </g>
      </g>
      <g
         fill="#000000"
         fill-opacity="1"
         id="g73"
         transform="matrix(0.352778,0,0,0.352778,-0.642452,-0.67019)">
        <g
           id="g71"
           transform="translate(9.177,10.128)">
          <path
             d="m 2.5,-5.078125 c 0,-0.21875 -0.015625,-0.21875 -0.234375,-0.21875 -0.328125,0.3125 -0.75,0.5 -1.5,0.5 v 0.265625 c 0.21875,0 0.640625,0 1.109375,-0.203125 v 4.078125 c 0,0.296875 -0.03125,0.390625 -0.78125,0.390625 H 0.8125 V 0 c 0.328125,-0.03125 1.015625,-0.03125 1.375,-0.03125 0.359375,0 1.046875,0 1.375,0.03125 V -0.265625 H 3.28125 c -0.75,0 -0.78125,-0.09375 -0.78125,-0.390625 z m 0,0"
             id="path70" />
        </g>
        <g
           id="g72"
           transform="translate(13.411514,10.128)">
          <path
             d="m 2.5,-5.078125 c 0,-0.21875 -0.015625,-0.21875 -0.234375,-0.21875 -0.328125,0.3125 -0.75,0.5 -1.5,0.5 v 0.265625 c 0.21875,0 0.640625,0 1.109375,-0.203125 v 4.078125 c 0,0.296875 -0.03125,0.390625 -0.78125,0.390625 H 0.8125 V 0 c 0.328125,-0.03125 1.015625,-0.03125 1.375,-0.03125 0.359375,0 1.046875,0 1.375,0.03125 V -0.265625 H 3.28125 c -0.75,0 -0.78125,-0.09375 -0.78125,-0.390625 z m 0,0"
             id="path71" />
        </g>
      </g>
    </g>
  </g>
</svg>
