<?xml version="1.0" encoding="UTF-8" standalone="no"?>
<svg
   width="222.75999pt"
   height="222.75999pt"
   viewBox="0 0 222.76 222.75999"
   version="1.1"
   id="svg2708"
   sodipodi:docname="mesh2.svg"
   inkscape:version="1.2.2 (b0a8486, 2022-12-01)"
   xmlns:inkscape="http://www.inkscape.org/namespaces/inkscape"
   xmlns:sodipodi="http://sodipodi.sourceforge.net/DTD/sodipodi-0.dtd"
   xmlns="http://www.w3.org/2000/svg"
   xmlns:svg="http://www.w3.org/2000/svg"
   xmlns:rdf="http://www.w3.org/1999/02/22-rdf-syntax-ns#"
   xmlns:cc="http://creativecommons.org/ns#"
   xmlns:dc="http://purl.org/dc/elements/1.1/">
  <sodipodi:namedview
     id="namedview2710"
     pagecolor="#ffffff"
     bordercolor="#000000"
     borderopacity="0.25"
     inkscape:showpageshadow="2"
     inkscape:pageopacity="0.0"
     inkscape:pagecheckerboard="0"
     inkscape:deskcolor="#d1d1d1"
     inkscape:document-units="pt"
     showgrid="false"
     inkscape:zoom="1.3641882"
     inkscape:cx="154.67074"
     inkscape:cy="134.51223"
     inkscape:window-width="1464"
     inkscape:window-height="752"
     inkscape:window-x="2088"
     inkscape:window-y="291"
     inkscape:window-maximized="0"
     inkscape:current-layer="svg2708" />
  <metadata
     id="metadata2625">
    <rdf:RDF>
      <cc:Work>
        <dc:type
           rdf:resource="http://purl.org/dc/dcmitype/StillImage" />
        <dc:date>2024-03-13T21:54:16.937995</dc:date>
        <dc:format>image/svg+xml</dc:format>
        <dc:creator>
          <cc:Agent>
            <dc:title>Matplotlib v3.5.1, https://matplotlib.org/</dc:title>
          </cc:Agent>
        </dc:creator>
      </cc:Work>
    </rdf:RDF>
  </metadata>
  <defs
     id="defs2629">
    <style
       type="text/css"
       id="style2627">*{stroke-linejoin: round; stroke-linecap: butt}</style>
    <clipPath
       id="pab945ee57b">
      <rect
         x="103.104"
         y="41.472"
         width="266.112"
         height="266.112"
         id="rect76" />
    </clipPath>
    <clipPath
       id="pab945ee57b-3">
      <rect
         x="103.104"
         y="41.472"
         width="266.112"
         height="266.112"
         id="rect76-6" />
    </clipPath>
    <clipPath
       id="clipPath6030">
      <path
         clip-rule="nonzero"
         d="m 6,5 h 4 V 9.964844 H 6 Z m 0,0"
         id="path4150" />
    </clipPath>
    <clipPath
       id="clipPath9899">
      <path
         clip-rule="nonzero"
         d="m 13,0 h 3 v 9.964844 h -3 z m 0,0"
         id="path4807" />
    </clipPath>
    <clipPath
       id="clipPath3825">
      <path
         clip-rule="nonzero"
         d="m 22,0 h 3 v 9.964844 h -3 z m 0,0"
         id="path2019" />
    </clipPath>
    <marker
       style="overflow:visible"
       id="Arrow1L"
       refX="0"
       refY="0"
       orient="auto-start-reverse"
       inkscape:stockid="Arrow1L"
       markerWidth="8.75"
       markerHeight="5"
       viewBox="0 0 8.75 5"
       inkscape:isstock="true"
       inkscape:collect="always"
       preserveAspectRatio="xMidYMid">
      <path
         style="fill:context-stroke;fill-rule:evenodd;stroke:none"
         d="M 0,0 5,-5 -12.5,0 5,5 Z"
         id="arrow1L"
         transform="scale(-0.5)" />
    </marker>
  </defs>
  <g
     id="figure_1"
     transform="translate(-124.78,-63.148)">
    <g
       id="axes_1">
      <g
         id="PatchCollection_1">
        <path
           d="m 125.28,285.408 h 44.352 V 241.056 H 125.28 Z"
           clip-path="url(#p89b2148c96)"
           style="fill:#5ae45c;fill-opacity:1;stroke:#000000"
           id="path2634" />
        <path
           d="m 125.28,241.056 h 44.352 V 196.704 H 125.28 Z"
           clip-path="url(#p89b2148c96)"
           style="fill:#5ae45c;fill-opacity:1;stroke:#000000"
           id="path2636" />
        <path
           d="m 125.28,196.704 h 44.352 V 152.352 H 125.28 Z"
           clip-path="url(#p89b2148c96)"
           style="fill:#5ae45c;fill-opacity:1;stroke:#000000"
           id="path2638" />
        <path
           d="m 125.28,152.352 h 44.352 V 108 H 125.28 Z"
           clip-path="url(#p89b2148c96)"
           style="fill:#5ae45c;fill-opacity:1;stroke:#000000"
           id="path2640" />
        <path
           d="m 125.28,108 h 44.352 V 63.648 H 125.28 Z"
           clip-path="url(#p89b2148c96)"
           style="fill:#5ae45c;fill-opacity:1;stroke:#000000"
           id="path2642" />
        <path
           d="m 169.632,285.408 h 44.352 v -44.352 h -44.352 z"
           clip-path="url(#p89b2148c96)"
           style="fill:#5ae45c;fill-opacity:1;stroke:#000000"
           id="path2644" />
        <path
           d="m 213.984,196.704 h -16.14929 l 4.67285,6.71367 6.50431,6.18281 4.97213,3.09915 z"
           clip-path="url(#p89b2148c96)"
           style="fill:#5ae45c;fill-opacity:1;stroke:#000000"
           id="path2646" />
        <path
           d="m 213.984,152.352 v -15.99563 l -4.97213,3.09914 -6.50431,6.18282 -4.67285,6.71367 z"
           clip-path="url(#p89b2148c96)"
           style="fill:#5ae45c;fill-opacity:1;stroke:#000000"
           id="path2650" />
        <path
           d="m 169.632,108 h 44.352 V 63.648 h -44.352 z"
           clip-path="url(#p89b2148c96)"
           style="fill:#5ae45c;fill-opacity:1;stroke:#000000"
           id="path2652" />
        <path
           d="m 213.984,285.408 h 44.352 v -44.352 h -44.352 z"
           clip-path="url(#p89b2148c96)"
           style="fill:#5ae45c;fill-opacity:1;stroke:#000000"
           id="path2654" />
        <path
           d="m 213.984,196.704 v 15.99563 l 2.64364,1.6478 8.41542,3.11673 8.87055,1.35891 8.96251,-0.45452 8.68756,-2.24937 6.77232,-3.32198 V 196.704 Z"
           clip-path="url(#p89b2148c96)"
           style="fill:#5ae45c;fill-opacity:1;stroke:#000000"
           id="path2656" />
        <path
           d="m 213.984,196.704 h 44.352 v -44.352 h -44.352 z"
           clip-path="url(#p89b2148c96)"
           style="fill:#5ae45c;fill-opacity:1;stroke:#000000"
           id="path2658" />
        <path
           d="m 213.984,152.352 h 44.352 v -16.0932 l -6.77232,-3.32198 -8.68756,-2.24937 -8.96251,-0.45453 -8.87055,1.35892 -8.41542,3.11673 -2.64364,1.6478 z"
           clip-path="url(#p89b2148c96)"
           style="fill:#5ae45c;fill-opacity:1;stroke:#000000"
           id="path2660" />
        <path
           d="m 213.984,108 h 44.352 V 63.648 h -44.352 z"
           clip-path="url(#p89b2148c96)"
           style="fill:#5ae45c;fill-opacity:1;stroke:#000000"
           id="path2662" />
        <path
           d="m 258.336,285.408 h 44.352 v -44.352 h -44.352 z"
           clip-path="url(#p89b2148c96)"
           style="fill:#5ae45c;fill-opacity:1;stroke:#000000"
           id="path2664" />
        <path
           d="m 258.336,196.704 v 16.0932 l 1.28461,-0.63013 7.09645,-5.49306 5.84544,-6.80912 1.75444,-3.16089 z"
           clip-path="url(#p89b2148c96)"
           style="fill:#5ae45c;fill-opacity:1;stroke:#000000"
           id="path2666" />
        <path
           d="m 258.336,196.704 h 15.98094 l 2.60068,-4.68553 2.68649,-8.56248 0.90789,-8.92799 -0.90789,-8.92799 -2.68649,-8.56248 -2.60068,-4.68553 H 258.336 Z"
           clip-path="url(#p89b2148c96)"
           style="fill:#5ae45c;fill-opacity:1;stroke:#000000"
           id="path2668" />
        <path
           d="m 258.336,152.352 h 15.98094 l -1.75444,-3.16089 -5.84544,-6.80912 -7.09645,-5.49306 -1.28461,-0.63013 z"
           clip-path="url(#p89b2148c96)"
           style="fill:#5ae45c;fill-opacity:1;stroke:#000000"
           id="path2670" />
        <path
           d="m 258.336,108 h 44.352 V 63.648 h -44.352 z"
           clip-path="url(#p89b2148c96)"
           style="fill:#5ae45c;fill-opacity:1;stroke:#000000"
           id="path2672" />
        <path
           d="M 302.688,285.408 H 347.04 V 241.056 H 302.688 Z"
           clip-path="url(#p89b2148c96)"
           style="fill:#5ae45c;fill-opacity:1;stroke:#000000"
           id="path2674" />
        <path
           d="M 302.688,241.056 H 347.04 V 196.704 H 302.688 Z"
           clip-path="url(#p89b2148c96)"
           style="fill:#5ae45c;fill-opacity:1;stroke:#000000"
           id="path2676" />
        <path
           d="M 302.688,196.704 H 347.04 V 152.352 H 302.688 Z"
           clip-path="url(#p89b2148c96)"
           style="fill:#5ae45c;fill-opacity:1;stroke:#000000"
           id="path2678" />
        <path
           d="M 302.688,152.352 H 347.04 V 108 h -44.352 z"
           clip-path="url(#p89b2148c96)"
           style="fill:#5ae45c;fill-opacity:1;stroke:#000000"
           id="path2680" />
        <path
           d="M 302.688,108 H 347.04 V 63.648 h -44.352 z"
           clip-path="url(#p89b2148c96)"
           style="fill:#5ae45c;fill-opacity:1;stroke:#000000"
           id="path2682" />
        <path
           d="m 258.336,108 v 28.2588 l 1.28461,0.63013 7.09645,5.49306 5.84544,6.80912 1.75444,3.16089 H 302.688 V 108 Z"
           clip-path="url(#p89b2148c96)"
           style="fill:#5ae45c;fill-opacity:1;stroke:#000000"
           id="path2684" />
        <path
           d="m 213.984,108 v 28.35637 l 2.64364,-1.6478 8.41542,-3.11673 8.87055,-1.35892 8.96251,0.45453 8.68756,2.24937 6.77232,3.32198 V 108 Z"
           clip-path="url(#p89b2148c96)"
           style="fill:#5ae45c;fill-opacity:1;stroke:#000000"
           id="path2686" />
        <path
           d="m 169.632,152.352 h 28.20271 l 4.67285,-6.71367 6.50431,-6.18282 4.97213,-3.09914 V 108 h -44.352 z"
           clip-path="url(#p89b2148c96)"
           style="fill:#5ae45c;fill-opacity:1;stroke:#000000"
           id="path2688" />
        <path
           d="m 169.632,196.704 h 28.20271 l -0.45373,-0.65189 -3.53896,-8.24676 -1.80646,-8.79033 v -8.97404 l 1.80646,-8.79033 3.53896,-8.24676 0.45373,-0.65189 H 169.632 Z"
           clip-path="url(#p89b2148c96)"
           style="fill:#5ae45c;fill-opacity:1;stroke:#000000"
           id="path2690" />
        <path
           d="m 169.632,241.056 h 44.352 v -28.35637 l -4.97213,-3.09915 -6.50431,-6.18281 -4.67285,-6.71367 H 169.632 Z"
           clip-path="url(#p89b2148c96)"
           style="fill:#5ae45c;fill-opacity:1;stroke:#000000"
           id="path2692" />
        <path
           d="m 213.984,241.056 h 44.352 v -28.2588 l -6.77232,3.32198 -8.68756,2.24937 -8.96251,0.45452 -8.87055,-1.35891 -8.41542,-3.11673 -2.64364,-1.6478 z"
           clip-path="url(#p89b2148c96)"
           style="fill:#5ae45c;fill-opacity:1;stroke:#000000"
           id="path2694" />
        <path
           d="m 258.336,241.056 h 44.352 v -44.352 h -28.37106 l -1.75444,3.16089 -5.84544,6.80912 -7.09645,5.49306 -1.28461,0.63013 z"
           clip-path="url(#p89b2148c96)"
           style="fill:#5ae45c;fill-opacity:1;stroke:#000000"
           id="path2696" />
        <path
           d="m 302.688,196.704 v -44.352 h -28.37106 l 2.60068,4.68553 2.68649,8.56248 0.90789,8.92799 -0.90789,8.92799 -2.68649,8.56248 -2.60068,4.68553 z"
           clip-path="url(#p89b2148c96)"
           style="fill:#5ae45c;fill-opacity:1;stroke:#000000"
           id="path2698" />
        <path
           d="m 213.984,196.704 v -44.352 h -16.14929 l -0.45373,0.65189 -3.53896,8.24676 -1.80646,8.79033 v 8.97404 l 1.80646,8.79033 3.53896,8.24676 0.45373,0.65189 z"
           clip-path="url(#p89b2148c96)"
           style="fill:#ffdd6c;fill-opacity:1;stroke:#ff0000;stroke-opacity:1"
           id="path2648" />
        <g
           inkscape:label=""
           transform="translate(175.15463,200.70625)"
           id="g10700"
           style="stroke:#000000;stroke-width:0.2;stroke-dasharray:none;stroke-opacity:1">
          <g
             fill="#000000"
             fill-opacity="1"
             id="g39"
             transform="translate(-0.515625,0.0123749)"
             style="stroke:#000000;stroke-width:0.2;stroke-dasharray:none;stroke-opacity:1">
            <g
               id="use37"
               transform="translate(0,7.4720001)"
               style="stroke:#000000;stroke-width:0.2;stroke-dasharray:none;stroke-opacity:1">
              <path
                 d="m 6.4375,-6.921875 c 0,-0.03125 -0.03125,-0.109375 -0.125,-0.109375 -0.046875,0 -0.046875,0.015625 -0.171875,0.15625 L 5.65625,-6.3125 c -0.25,-0.46875 -0.765625,-0.71875 -1.421875,-0.71875 -1.265625,0 -2.453125,1.15625 -2.453125,2.359375 0,0.796875 0.515625,1.265625 1.03125,1.40625 l 1.0625,0.28125 c 0.375,0.09375 0.921875,0.25 0.921875,1.0625 0,0.890625 -0.8125,1.828125 -1.796875,1.828125 -0.640625,0 -1.75,-0.21875 -1.75,-1.453125 0,-0.234375 0.0625,-0.484375 0.0625,-0.53125 0.015625,-0.046875 0.015625,-0.0625 0.015625,-0.078125 0,-0.09375 -0.0625,-0.109375 -0.109375,-0.109375 -0.046875,0 -0.078125,0.015625 -0.109375,0.046875 -0.03125,0.03125 -0.59375,2.3125 -0.59375,2.34375 0,0.046875 0.046875,0.09375 0.109375,0.09375 0.046875,0 0.0625,-0.015625 0.1875,-0.15625 L 1.296875,-0.5 c 0.421875,0.578125 1.109375,0.71875 1.6875,0.71875 1.359375,0 2.53125,-1.328125 2.53125,-2.5625 0,-0.6875 -0.34375,-1.03125 -0.484375,-1.171875 C 4.796875,-3.734375 4.640625,-3.78125 3.765625,-4 3.53125,-4.0625 3.1875,-4.171875 3.09375,-4.1875 2.828125,-4.28125 2.484375,-4.5625 2.484375,-5.09375 c 0,-0.8125 0.796875,-1.65625 1.75,-1.65625 0.8125,0 1.421875,0.4375 1.421875,1.546875 0,0.3125 -0.03125,0.5 -0.03125,0.5625 0,0 0,0.09375 0.109375,0.09375 0.109375,0 0.125,-0.03125 0.15625,-0.203125 z m 0,0"
                 id="path71"
                 style="stroke:#000000;stroke-width:0.2;stroke-dasharray:none;stroke-opacity:1" />
            </g>
          </g>
          <g
             fill="#000000"
             fill-opacity="1"
             id="g43"
             transform="translate(-0.515625,0.0123749)"
             style="stroke:#000000;stroke-width:0.2;stroke-dasharray:none;stroke-opacity:1">
            <g
               id="use41"
               transform="translate(6.6830001,3.8570001)"
               style="stroke:#000000;stroke-width:0.2;stroke-dasharray:none;stroke-opacity:1">
              <path
                 d="m 0.84375,-0.4375 c -0.015625,0.09375 -0.0625,0.265625 -0.0625,0.28125 0,0.15625 0.125,0.21875 0.234375,0.21875 0.125,0 0.234375,-0.078125 0.28125,-0.140625 0.03125,-0.0625 0.078125,-0.296875 0.125,-0.4375 0.03125,-0.125 0.109375,-0.453125 0.140625,-0.625 0.046875,-0.15625 0.09375,-0.3125 0.125,-0.46875 0.078125,-0.28125 0.09375,-0.34375 0.296875,-0.625 C 2.171875,-2.515625 2.5,-2.875 3.03125,-2.875 c 0.390625,0 0.40625,0.359375 0.40625,0.484375 0,0.421875 -0.296875,1.1875 -0.40625,1.484375 -0.078125,0.203125 -0.109375,0.265625 -0.109375,0.375 0,0.375 0.296875,0.59375 0.65625,0.59375 0.703125,0 1,-0.953125 1,-1.0625 0,-0.09375 -0.078125,-0.09375 -0.109375,-0.09375 -0.09375,0 -0.09375,0.046875 -0.125,0.125 C 4.1875,-0.40625 3.875,-0.125 3.609375,-0.125 c -0.15625,0 -0.1875,-0.09375 -0.1875,-0.25 0,-0.15625 0.046875,-0.25 0.171875,-0.5625 0.078125,-0.21875 0.359375,-0.953125 0.359375,-1.34375 0,-0.671875 -0.53125,-0.796875 -0.90625,-0.796875 -0.578125,0 -0.96875,0.359375 -1.171875,0.640625 -0.046875,-0.484375 -0.453125,-0.640625 -0.75,-0.640625 -0.296875,0 -0.453125,0.21875 -0.546875,0.375 -0.15625,0.265625 -0.25,0.65625 -0.25,0.703125 0,0.078125 0.09375,0.078125 0.125,0.078125 0.09375,0 0.09375,-0.015625 0.140625,-0.203125 0.109375,-0.40625 0.25,-0.75 0.515625,-0.75 0.1875,0 0.234375,0.15625 0.234375,0.34375 0,0.125 -0.0625,0.390625 -0.125,0.578125 -0.046875,0.1875 -0.109375,0.46875 -0.140625,0.625 z m 0,0"
                 id="path75"
                 style="stroke:#000000;stroke-width:0.2;stroke-dasharray:none;stroke-opacity:1" />
            </g>
          </g>
          <g
             clip-path="url(#clipPath6030)"
             id="g49"
             transform="translate(-0.515625,0.0123749)"
             style="stroke:#000000;stroke-width:0.2;stroke-dasharray:none;stroke-opacity:1">
            <g
               fill="#000000"
               fill-opacity="1"
               id="g47"
               style="stroke:#000000;stroke-width:0.2;stroke-dasharray:none;stroke-opacity:1">
              <g
                 id="use45"
                 transform="translate(6.1090002,9.9449997)"
                 style="stroke:#000000;stroke-width:0.2;stroke-dasharray:none;stroke-opacity:1">
                <path
                   d="M 3.59375,-2.21875 C 3.59375,-2.984375 3.5,-3.546875 3.1875,-4.03125 2.96875,-4.34375 2.53125,-4.625 1.984375,-4.625 c -1.625,0 -1.625,1.90625 -1.625,2.40625 0,0.5 0,2.359375 1.625,2.359375 1.609375,0 1.609375,-1.859375 1.609375,-2.359375 z M 1.984375,-0.0625 c -0.328125,0 -0.75,-0.1875 -0.890625,-0.75 C 1,-1.21875 1,-1.796875 1,-2.3125 1,-2.828125 1,-3.359375 1.09375,-3.734375 1.25,-4.28125 1.6875,-4.4375 1.984375,-4.4375 c 0.375,0 0.734375,0.234375 0.859375,0.640625 0.109375,0.375 0.125,0.875 0.125,1.484375 0,0.515625 0,1.03125 -0.09375,1.46875 -0.140625,0.640625 -0.609375,0.78125 -0.890625,0.78125 z m 0,0"
                   id="path79"
                   style="stroke:#000000;stroke-width:0.2;stroke-dasharray:none;stroke-opacity:1" />
              </g>
            </g>
          </g>
          <g
             clip-path="url(#clipPath9899)"
             id="g55"
             transform="translate(-0.515625,0.0123749)"
             style="stroke:#000000;stroke-width:0.2;stroke-dasharray:none;stroke-opacity:1">
            <g
               fill="#000000"
               fill-opacity="1"
               id="g53"
               style="stroke:#000000;stroke-width:0.2;stroke-dasharray:none;stroke-opacity:1">
              <g
                 id="use51"
                 transform="translate(12.106,7.4720001)"
                 style="stroke:#000000;stroke-width:0.2;stroke-dasharray:none;stroke-opacity:1">
                <path
                   d="m 3.296875,2.390625 c 0,-0.03125 0,-0.046875 -0.171875,-0.21875 C 1.890625,0.921875 1.5625,-0.96875 1.5625,-2.5 c 0,-1.734375 0.375,-3.46875 1.609375,-4.703125 0.125,-0.125 0.125,-0.140625 0.125,-0.171875 0,-0.078125 -0.03125,-0.109375 -0.09375,-0.109375 -0.109375,0 -1,0.6875 -1.59375,1.953125 -0.5,1.09375 -0.625,2.203125 -0.625,3.03125 0,0.78125 0.109375,1.984375 0.65625,3.125 C 2.25,1.84375 3.09375,2.5 3.203125,2.5 c 0.0625,0 0.09375,-0.03125 0.09375,-0.109375 z m 0,0"
                   id="path83"
                   style="stroke:#000000;stroke-width:0.2;stroke-dasharray:none;stroke-opacity:1" />
              </g>
            </g>
          </g>
          <g
             fill="#000000"
             fill-opacity="1"
             id="g59"
             transform="translate(-0.515625,0.0123749)"
             style="stroke:#000000;stroke-width:0.2;stroke-dasharray:none;stroke-opacity:1">
            <g
               id="use57"
               transform="translate(15.981,7.4720001)"
               style="stroke:#000000;stroke-width:0.2;stroke-dasharray:none;stroke-opacity:1">
              <path
                 d="m 2.9375,-3.71875 h 1.671875 c 0.125,0 0.484375,0 0.484375,-0.34375 0,-0.234375 -0.203125,-0.234375 -0.40625,-0.234375 H 1.90625 c -0.203125,0 -0.59375,0 -1.03125,0.46875 -0.328125,0.359375 -0.609375,0.84375 -0.609375,0.890625 0,0.015625 0,0.109375 0.125,0.109375 0.078125,0 0.09375,-0.046875 0.15625,-0.125 C 1.03125,-3.71875 1.609375,-3.71875 1.8125,-3.71875 h 0.828125 l -0.96875,3.203125 C 1.625,-0.40625 1.5625,-0.1875 1.5625,-0.15625 c 0,0.109375 0.078125,0.28125 0.296875,0.28125 0.328125,0 0.375,-0.28125 0.40625,-0.4375 z m 0,0"
                 id="path87"
                 style="stroke:#000000;stroke-width:0.2;stroke-dasharray:none;stroke-opacity:1" />
            </g>
          </g>
          <g
             clip-path="url(#clipPath3825)"
             id="g65"
             transform="translate(-0.515625,0.0123749)"
             style="stroke:#000000;stroke-width:0.2;stroke-dasharray:none;stroke-opacity:1">
            <g
               fill="#000000"
               fill-opacity="1"
               id="g63"
               style="stroke:#000000;stroke-width:0.2;stroke-dasharray:none;stroke-opacity:1">
              <g
                 id="use61"
                 transform="translate(21.464001,7.4720001)"
                 style="stroke:#000000;stroke-width:0.2;stroke-dasharray:none;stroke-opacity:1">
                <path
                   d="m 2.875,-2.5 c 0,-0.765625 -0.109375,-1.96875 -0.65625,-3.109375 -0.59375,-1.21875 -1.453125,-1.875 -1.546875,-1.875 -0.0625,0 -0.109375,0.046875 -0.109375,0.109375 0,0.03125 0,0.046875 0.1875,0.234375 0.984375,0.984375 1.546875,2.5625 1.546875,4.640625 0,1.71875 -0.359375,3.46875 -1.59375,4.71875 C 0.5625,2.34375 0.5625,2.359375 0.5625,2.390625 0.5625,2.453125 0.609375,2.5 0.671875,2.5 0.765625,2.5 1.671875,1.8125 2.25,0.546875 2.765625,-0.546875 2.875,-1.65625 2.875,-2.5 Z m 0,0"
                   id="path91"
                   style="stroke:#000000;stroke-width:0.2;stroke-dasharray:none;stroke-opacity:1" />
              </g>
            </g>
          </g>
        </g>
        <path
           style="fill:none;fill-opacity:1;fill-rule:evenodd;stroke:#000000;stroke-width:0.7;stroke-linecap:butt;stroke-linejoin:round;stroke-dasharray:2.1, 2.1;stroke-dashoffset:0;stroke-opacity:1;marker-end:url(#Arrow1L);paint-order:stroke fill markers"
           d="m 198.81087,176.52028 c 0,0 -6.12657,3.03108 -9.3289,9.84148 -1.9176,4.07818 -1.83284,9.99049 -1.83284,9.99049"
           id="path1981"
           sodipodi:nodetypes="csc" />
      </g>
    </g>
  </g>
  <defs
     id="defs2706">
    <clipPath
       id="p89b2148c96">
      <rect
         x="103.104"
         y="41.472"
         width="266.112"
         height="266.112"
         id="rect2703" />
    </clipPath>
  </defs>
</svg>
