<?xml version="1.0" encoding="UTF-8" standalone="no"?>
<!-- Created with Inkscape (http://www.inkscape.org/) -->

<svg
   width="115.67231mm"
   height="72.165398mm"
   viewBox="0 0 115.67231 72.165398"
   version="1.1"
   id="svg5"
   xml:space="preserve"
   sodipodi:docname="projection.svg"
   inkscape:version="1.2.2 (b0a8486541, 2022-12-01)"
   xmlns:inkscape="http://www.inkscape.org/namespaces/inkscape"
   xmlns:sodipodi="http://sodipodi.sourceforge.net/DTD/sodipodi-0.dtd"
   xmlns="http://www.w3.org/2000/svg"
   xmlns:svg="http://www.w3.org/2000/svg"><sodipodi:namedview
     id="namedview7"
     pagecolor="#ffffff"
     bordercolor="#000000"
     borderopacity="0.25"
     inkscape:showpageshadow="2"
     inkscape:pageopacity="0.0"
     inkscape:pagecheckerboard="0"
     inkscape:deskcolor="#d1d1d1"
     inkscape:document-units="mm"
     showgrid="false"
     inkscape:zoom="1.0935553"
     inkscape:cx="117.96385"
     inkscape:cy="59.896376"
     inkscape:window-width="1854"
     inkscape:window-height="1011"
     inkscape:window-x="1986"
     inkscape:window-y="32"
     inkscape:window-maximized="1"
     inkscape:current-layer="layer1" /><defs
     id="defs2"><marker
   style="overflow:visible"
   id="Arrow2"
   refX="0"
   refY="0"
   orient="auto-start-reverse"
   inkscape:stockid="Arrow2"
   markerWidth="7.6999998"
   markerHeight="5.5999999"
   viewBox="0 0 7.7 5.6"
   inkscape:isstock="true"
   inkscape:collect="always"
   preserveAspectRatio="xMidYMid"><path
     transform="scale(0.7)"
     d="M -2,-4 9,0 -2,4 c 2,-2.33 2,-5.66 0,-8 z"
     style="fill:context-stroke;fill-rule:evenodd;stroke:none"
     id="arrow2L" /></marker><clipPath
   id="clipPath9341">
      <path
   clip-rule="nonzero"
   d="M 35,18 H 46 V 33.25 H 35 Z m 0,0"
   id="path3080" />
    </clipPath>
  <clipPath
   id="clipPath9341-2">
      <path
   clip-rule="nonzero"
   d="M 35,18 H 46 V 33.25 H 35 Z m 0,0"
   id="path3080-2" />
    </clipPath></defs><g
     inkscape:label="Layer 1"
     inkscape:groupmode="layer"
     id="layer1"
     transform="translate(-23.011316,-95.651172)"><g
       inkscape:label="Layer 1"
       id="layer1-3"
       transform="translate(-43.195937,5.7419696)"><path
         style="fill:none;stroke:#000000;stroke-width:0.519999;stroke-dasharray:none"
         d="m 107.78932,90.741636 -40.595547,16.542194 3.084333,43.42021 42.218834,10.3817 22.88619,-37.12133 z"
         id="path3091" /><circle
         style="fill:#000000;fill-opacity:1;stroke:none;stroke-width:0.343856;stroke-dasharray:none"
         id="path3456"
         cx="67.207253"
         cy="107.46105"
         r="1" /><circle
         style="fill:#000000;fill-opacity:1;stroke:none;stroke-width:0.343856;stroke-dasharray:none"
         id="path3456-3"
         cx="70.144012"
         cy="150.85239"
         r="1" /><circle
         style="fill:#000000;fill-opacity:1;stroke:none;stroke-width:0.343856;stroke-dasharray:none"
         id="path3456-6"
         cx="112.44427"
         cy="161.0746"
         r="1" /><circle
         style="fill:#000000;fill-opacity:1;stroke:none;stroke-width:0.343856;stroke-dasharray:none"
         id="path3456-7"
         cx="135.52103"
         cy="124.08899"
         r="1" /><circle
         style="fill:#000000;fill-opacity:1;stroke:none;stroke-width:0.343856;stroke-dasharray:none"
         id="path3456-5"
         cx="107.78226"
         cy="90.909203"
         r="1" /></g><g
       inkscape:label=""
       transform="translate(105.852,141.721)"
       id="g579">
  
  
  
  <g
   fill="#000000"
   fill-opacity="1"
   id="g47"
   transform="matrix(0.352778,0,0,0.352778,-1.2689104,-17.046202)">
    <g
   id="use45"
   transform="translate(59.393002,23.114)">
      <path
   d="m 10.5625,-0.15625 c 4.25,-1.703125 7.421875,-6.21875 7.421875,-10.703125 0,-4.078125 -2.671875,-6.59375 -6.140625,-6.59375 -5.296875,0 -10.65625,5.703125 -10.65625,11.4375 0,3.890625 2.578125,6.53125 6.171875,6.53125 0.84375,0 1.65625,-0.125 2.453125,-0.359375 -0.140625,1.484375 -0.140625,1.609375 -0.140625,2.078125 0,0.71875 0,2.578125 1.96875,2.578125 2.953125,0 4.046875,-4.640625 4.046875,-4.78125 0,-0.15625 -0.09375,-0.25 -0.21875,-0.25 -0.15625,0 -0.203125,0.125 -0.28125,0.390625 C 14.640625,1.734375 13.359375,2.625 12.265625,2.625 11,2.625 10.6875,1.765625 10.5625,-0.15625 Z M 6.09375,-0.265625 C 4.140625,-0.9375 3.203125,-3 3.203125,-5.28125 c 0,-1.734375 0.640625,-5.03125 2.28125,-7.53125 1.828125,-2.828125 4.28125,-4.09375 6.21875,-4.09375 2.578125,0 4.3125,2.09375 4.3125,5.3125 0,1.828125 -0.875,7.96875 -5.53125,10.703125 -0.125,-1.265625 -0.46875,-2.75 -2.109375,-2.75 -1.34375,0 -2.484375,1.34375 -2.484375,2.546875 0,0.28125 0.109375,0.640625 0.203125,0.828125 z M 9.859375,-0.5625 c -0.890625,0.390625 -1.65625,0.53125 -2.34375,0.53125 -0.25,0 -1.125,0 -1.125,-1.078125 0,-0.890625 0.875,-2.03125 1.984375,-2.03125 1.234375,0 1.515625,0.84375 1.515625,2.078125 0,0.140625 0,0.34375 -0.03125,0.5 z m 0,0"
   id="path81" />
    </g>
  </g>
  <g
   fill="#000000"
   fill-opacity="1"
   id="g51"
   transform="matrix(0.352778,0,0,0.352778,-1.2689104,-17.046202)">
    <g
   id="use49"
   transform="translate(78.615997,14.119)">
      <path
   d="m 10.328125,-8.34375 c -0.01563,-0.0625 -0.109375,-0.234375 -0.109375,-0.296875 0,-0.015625 0.03125,-0.03125 0.375,-0.296875 l 2,-1.578125 c 2.78125,-2.140625 3.6875,-2.875 5.109375,-3 0.140625,-0.01563 0.34375,-0.01563 0.34375,-0.359375 0,-0.125 -0.0625,-0.234375 -0.21875,-0.234375 -0.234375,0 -0.484375,0.04687 -0.703125,0.04687 h -0.78125 c -0.640625,0 -1.328125,-0.04687 -1.953125,-0.04687 -0.140625,0 -0.390625,0 -0.390625,0.375 0,0.203125 0.15625,0.21875 0.28125,0.21875 0.21875,0.03125 0.484375,0.109375 0.484375,0.40625 0,0.40625 -0.609375,0.90625 -0.78125,1.03125 l -8.09375,6.296875 1.703125,-6.8125 c 0.1875,-0.703125 0.234375,-0.921875 1.703125,-0.921875 0.390625,0 0.578125,0 0.578125,-0.390625 0,-0.203125 -0.203125,-0.203125 -0.3125,-0.203125 -0.375,0 -0.796875,0.04687 -1.203125,0.04687 h -2.4375 c -0.359375,0 -0.8125,-0.04687 -1.1875,-0.04687 -0.171875,0 -0.390625,0 -0.390625,0.390625 0,0.203125 0.1875,0.203125 0.484375,0.203125 1.265625,0 1.265625,0.171875 1.265625,0.40625 0,0.03125 0,0.15625 -0.078125,0.46875 L 3.21875,-1.53125 C 3.03125,-0.8125 3,-0.59375 1.546875,-0.59375 c -0.390625,0 -0.59375,0 -0.59375,0.359375 C 0.953125,0 1.140625,0 1.265625,0 1.65625,0 2.0625,-0.046875 2.453125,-0.046875 H 4.875 C 5.265625,-0.046875 5.703125,0 6.09375,0 c 0.171875,0 0.390625,0 0.390625,-0.390625 0,-0.203125 -0.1875,-0.203125 -0.5,-0.203125 -1.25,0 -1.25,-0.171875 -1.25,-0.375 0,-0.140625 0.125,-0.65625 0.203125,-1 L 5.75,-5.171875 8.875,-7.625 c 0.609375,1.328125 1.703125,3.96875 2.546875,6 0.0625,0.109375 0.109375,0.234375 0.109375,0.390625 0,0.609375 -0.828125,0.640625 -1.015625,0.640625 -0.1875,0 -0.390625,0 -0.390625,0.390625 C 10.125,0 10.34375,0 10.40625,0 11.140625,0 11.890625,-0.046875 12.625,-0.046875 h 0.984375 c 0.3125,0 0.671875,0.046875 0.96875,0.046875 0.125,0 0.359375,0 0.359375,-0.390625 0,-0.203125 -0.1875,-0.203125 -0.390625,-0.203125 -0.765625,-0.03125 -1.03125,-0.1875 -1.34375,-0.9375 z m 0,0"
   id="path85" />
    </g>
  </g>
  <g
   fill="#000000"
   fill-opacity="1"
   id="g55"
   transform="matrix(0.352778,0,0,0.352778,-23.806059,5.2529149)">
    <g
   id="use53"
   transform="translate(97.809998,23.114)">
      <path
   d="m 19.046875,-17.90625 c 0.140625,-0.359375 0.59375,-1.40625 1.84375,-1.515625 0.1875,0 0.625,-0.0625 0.625,-0.515625 0,-0.53125 -0.4375,-0.53125 -0.984375,-0.53125 h -4.8125 c -0.53125,0 -0.984375,0 -0.984375,0.53125 0,0.453125 0.453125,0.484375 0.625,0.515625 C 15.8125,-19.375 16.4375,-19.25 16.4375,-17.6875 c 0,1.75 -0.953125,4.59375 -1.46875,6.03125 C 14.765625,-11.0625 14.765625,-11 12.578125,-5.53125 12.046875,-6.640625 7.46875,-16.5625 7.46875,-18.5 c 0,-0.21875 0.6875,-0.84375 1.796875,-0.921875 0.484375,-0.03125 0.5625,-0.359375 0.5625,-0.515625 0,-0.53125 -0.4375,-0.53125 -0.984375,-0.53125 H 1.015625 c -0.53125,0 -0.984375,0 -0.984375,0.53125 0,0.421875 0.390625,0.484375 0.625,0.515625 0.984375,0.140625 1.609375,1.546875 1.671875,1.640625 L 10.375,-0.0625 c 0.203125,0.453125 0.359375,0.625 0.625,0.625 0.328125,0 0.421875,-0.140625 0.59375,-0.625 z m -0.3125,-1.515625 c -0.359375,0.375 -0.5,0.734375 -0.703125,1.21875 -0.125,0.328125 -0.453125,1.109375 -0.609375,1.4375 0.03125,-0.265625 0.0625,-0.65625 0.0625,-0.921875 0,-0.390625 -0.03125,-1.203125 -0.359375,-1.734375 z M 3.40625,-17.96875 C 3.140625,-18.53125 2.59375,-19.375 2.546875,-19.421875 H 6.78125 c -0.140625,0.109375 -0.390625,0.265625 -0.390625,0.890625 0,2.03125 3.828125,10.40625 5.71875,14.5625 L 11,-1.25 Z m 0,0"
   id="path89" />
    </g>
  </g>
  <g
   fill="#000000"
   fill-opacity="1"
   id="g59"
   transform="matrix(0.352778,0,0,0.352778,-23.806059,5.2529149)">
    <g
   id="use57"
   transform="translate(119.396,28.924999)">
      <path
   d="m 5.796875,-13.8125 c 0.03125,-0.09375 0.0625,-0.21875 0.0625,-0.3125 0,-0.203125 -0.203125,-0.203125 -0.234375,-0.203125 -0.03125,0 -0.765625,0.04687 -1.140625,0.09375 -0.359375,0.01563 -0.65625,0.0625 -1.03125,0.07813 -0.5,0.04687 -0.640625,0.0625 -0.640625,0.4375 0,0.203125 0.203125,0.203125 0.40625,0.203125 1.0625,0 1.0625,0.1875 1.0625,0.40625 0,0.07813 0,0.109375 -0.109375,0.484375 L 1.21875,-0.8125 C 1.140625,-0.5 1.140625,-0.453125 1.140625,-0.328125 c 0,0.453125 0.34375,0.53125 0.546875,0.53125 0.578125,0 0.703125,-0.453125 0.875,-1.09375 L 3.53125,-4.75 c 1.484375,0.171875 2.375,0.78125 2.375,1.78125 0,0.125 0,0.203125 -0.0625,0.515625 -0.078125,0.3125 -0.078125,0.546875 -0.078125,0.65625 0,1.203125 0.78125,2 1.828125,2 0.953125,0 1.453125,-0.859375 1.625,-1.15625 0.421875,-0.765625 0.703125,-1.921875 0.703125,-2 0,-0.109375 -0.09375,-0.1875 -0.21875,-0.1875 -0.1875,0 -0.203125,0.078125 -0.28125,0.40625 -0.296875,1.078125 -0.71875,2.53125 -1.78125,2.53125 -0.40625,0 -0.671875,-0.203125 -0.671875,-1 0,-0.390625 0.078125,-0.84375 0.15625,-1.15625 C 7.203125,-2.734375 7.203125,-2.75 7.203125,-3 c 0,-1.21875 -1.09375,-1.890625 -2.984375,-2.140625 0.734375,-0.453125 1.484375,-1.265625 1.765625,-1.578125 1.1875,-1.3125 1.984375,-1.984375 2.9375,-1.984375 0.484375,0 0.59375,0.125 0.75,0.25 -0.765625,0.09375 -1.0625,0.625 -1.0625,1.03125 0,0.5 0.390625,0.671875 0.6875,0.671875 0.5625,0 1.046875,-0.484375 1.046875,-1.140625 0,-0.59375 -0.46875,-1.21875 -1.40625,-1.21875 -1.125,0 -2.0625,0.8125 -3.53125,2.453125 -0.203125,0.25 -0.96875,1.03125 -1.734375,1.328125 z m 0,0"
   id="path93" />
    </g>
  </g>
<g
   fill="#000000"
   fill-opacity="1"
   id="g29"
   transform="matrix(0.352778,0,0,0.352778,7.018345,-39.976457)">
    <g
   id="use27"
   transform="translate(0,23.114)">
      <path
   d="m 19.328125,-16.375 c 0.04687,-0.07813 0.125,-0.25 0.125,-0.359375 0,-0.171875 -0.03125,-0.1875 -0.59375,-0.1875 H 1.765625 c -0.578125,0 -0.59375,0.01563 -0.59375,0.1875 0,0.109375 0.0625,0.28125 0.109375,0.359375 L 9.640625,0.34375 c 0.171875,0.328125 0.25,0.46875 0.671875,0.46875 0.421875,0 0.484375,-0.140625 0.671875,-0.46875 z m -15.09375,1.234375 H 17.84375 l -6.796875,13.625 z m 0,0"
   id="path65" />
    </g>
  </g><g
   fill="#000000"
   fill-opacity="1"
   id="g33"
   transform="matrix(0.352778,0,0,0.352778,7.018345,-39.976457)">
    <g
   id="use31"
   transform="translate(20.656,23.114)">
      <path
   d="m 15.34375,-14.171875 c 0.84375,-1.34375 1.609375,-1.9375 2.875,-2.03125 0.25,-0.03125 0.4375,-0.03125 0.4375,-0.46875 0,-0.109375 -0.04687,-0.25 -0.265625,-0.25 -0.453125,0 -1.515625,0.04687 -1.953125,0.04687 -0.71875,0 -1.46875,-0.04687 -2.15625,-0.04687 -0.203125,0 -0.453125,0 -0.453125,0.46875 0,0.21875 0.21875,0.25 0.328125,0.25 0.90625,0.07813 1.015625,0.515625 1.015625,0.8125 0,0.375 -0.359375,0.9375 -0.375,0.96875 L 7.015625,-2.078125 5.28125,-15.4375 c 0,-0.71875 1.28125,-0.765625 1.5625,-0.765625 0.375,0 0.59375,0 0.59375,-0.46875 0,-0.25 -0.28125,-0.25 -0.34375,-0.25 -0.421875,0 -0.921875,0.04687 -1.34375,0.04687 H 4.359375 c -1.8125,0 -2.546875,-0.04687 -2.578125,-0.04687 -0.140625,0 -0.4375,0 -0.4375,0.4375 0,0.28125 0.171875,0.28125 0.5625,0.28125 1.265625,0 1.34375,0.21875 1.421875,0.84375 l 1.96875,15.28125 C 5.375,0.453125 5.375,0.515625 5.71875,0.515625 c 0.296875,0 0.421875,-0.0625 0.671875,-0.46875 z m 0,0"
   id="path69" />
    </g>
  </g><g
   fill="#000000"
   fill-opacity="1"
   id="g37"
   transform="matrix(0.352778,0,0,0.352778,7.018345,-39.976457)">
    <g
   id="use35"
   transform="translate(40.198002,14.119)">
      <path
   d="m 10.328125,-8.34375 c -0.01563,-0.0625 -0.109375,-0.234375 -0.109375,-0.296875 0,-0.015625 0.03125,-0.03125 0.375,-0.296875 l 2,-1.578125 c 2.78125,-2.140625 3.6875,-2.875 5.109375,-3 0.140625,-0.01563 0.34375,-0.01563 0.34375,-0.359375 0,-0.125 -0.0625,-0.234375 -0.21875,-0.234375 -0.234375,0 -0.484375,0.04687 -0.703125,0.04687 h -0.78125 c -0.640625,0 -1.328125,-0.04687 -1.953125,-0.04687 -0.140625,0 -0.390625,0 -0.390625,0.375 0,0.203125 0.15625,0.21875 0.28125,0.21875 0.21875,0.03125 0.484375,0.109375 0.484375,0.40625 0,0.40625 -0.609375,0.90625 -0.78125,1.03125 l -8.09375,6.296875 1.703125,-6.8125 c 0.1875,-0.703125 0.234375,-0.921875 1.703125,-0.921875 0.390625,0 0.578125,0 0.578125,-0.390625 0,-0.203125 -0.203125,-0.203125 -0.3125,-0.203125 -0.375,0 -0.796875,0.04687 -1.203125,0.04687 h -2.4375 c -0.359375,0 -0.8125,-0.04687 -1.1875,-0.04687 -0.171875,0 -0.390625,0 -0.390625,0.390625 0,0.203125 0.1875,0.203125 0.484375,0.203125 1.265625,0 1.265625,0.171875 1.265625,0.40625 0,0.03125 0,0.15625 -0.078125,0.46875 L 3.21875,-1.53125 C 3.03125,-0.8125 3,-0.59375 1.546875,-0.59375 c -0.390625,0 -0.59375,0 -0.59375,0.359375 C 0.953125,0 1.140625,0 1.265625,0 1.65625,0 2.0625,-0.046875 2.453125,-0.046875 H 4.875 C 5.265625,-0.046875 5.703125,0 6.09375,0 c 0.171875,0 0.390625,0 0.390625,-0.390625 0,-0.203125 -0.1875,-0.203125 -0.5,-0.203125 -1.25,0 -1.25,-0.171875 -1.25,-0.375 0,-0.140625 0.125,-0.65625 0.203125,-1 L 5.75,-5.171875 8.875,-7.625 c 0.609375,1.328125 1.703125,3.96875 2.546875,6 0.0625,0.109375 0.109375,0.234375 0.109375,0.390625 0,0.609375 -0.828125,0.640625 -1.015625,0.640625 -0.1875,0 -0.390625,0 -0.390625,0.390625 C 10.125,0 10.34375,0 10.40625,0 11.140625,0 11.890625,-0.046875 12.625,-0.046875 h 0.984375 c 0.3125,0 0.671875,0.046875 0.96875,0.046875 0.125,0 0.359375,0 0.359375,-0.390625 0,-0.203125 -0.1875,-0.203125 -0.390625,-0.203125 -0.765625,-0.03125 -1.03125,-0.1875 -1.34375,-0.9375 z m 0,0"
   id="path73" />
    </g>
  </g><g
   clip-path="url(#clipPath9341-2)"
   id="g43"
   transform="matrix(0.352778,0,0,0.352778,7.018345,-39.976457)">
    <g
   fill="#000000"
   fill-opacity="1"
   id="g41">
      <g
   id="use39"
   transform="translate(34.805,33.25)">
        <path
   d="m 5.796875,-13.8125 c 0.03125,-0.09375 0.0625,-0.21875 0.0625,-0.3125 0,-0.203125 -0.203125,-0.203125 -0.234375,-0.203125 -0.03125,0 -0.765625,0.04687 -1.140625,0.09375 -0.359375,0.01563 -0.65625,0.0625 -1.03125,0.07813 -0.5,0.04687 -0.640625,0.0625 -0.640625,0.4375 0,0.203125 0.203125,0.203125 0.40625,0.203125 1.0625,0 1.0625,0.1875 1.0625,0.40625 0,0.07813 0,0.109375 -0.109375,0.484375 L 1.21875,-0.8125 C 1.140625,-0.5 1.140625,-0.453125 1.140625,-0.328125 c 0,0.453125 0.34375,0.53125 0.546875,0.53125 0.578125,0 0.703125,-0.453125 0.875,-1.09375 L 3.53125,-4.75 c 1.484375,0.171875 2.375,0.78125 2.375,1.78125 0,0.125 0,0.203125 -0.0625,0.515625 -0.078125,0.3125 -0.078125,0.546875 -0.078125,0.65625 0,1.203125 0.78125,2 1.828125,2 0.953125,0 1.453125,-0.859375 1.625,-1.15625 0.421875,-0.765625 0.703125,-1.921875 0.703125,-2 0,-0.109375 -0.09375,-0.1875 -0.21875,-0.1875 -0.1875,0 -0.203125,0.078125 -0.28125,0.40625 -0.296875,1.078125 -0.71875,2.53125 -1.78125,2.53125 -0.40625,0 -0.671875,-0.203125 -0.671875,-1 0,-0.390625 0.078125,-0.84375 0.15625,-1.15625 C 7.203125,-2.734375 7.203125,-2.75 7.203125,-3 c 0,-1.21875 -1.09375,-1.890625 -2.984375,-2.140625 0.734375,-0.453125 1.484375,-1.265625 1.765625,-1.578125 1.1875,-1.3125 1.984375,-1.984375 2.9375,-1.984375 0.484375,0 0.59375,0.125 0.75,0.25 -0.765625,0.09375 -1.0625,0.625 -1.0625,1.03125 0,0.5 0.390625,0.671875 0.6875,0.671875 0.5625,0 1.046875,-0.484375 1.046875,-1.140625 0,-0.59375 -0.46875,-1.21875 -1.40625,-1.21875 -1.125,0 -2.0625,0.8125 -3.53125,2.453125 -0.203125,0.25 -0.96875,1.03125 -1.734375,1.328125 z m 0,0"
   id="path77" />
      </g>
    </g>
  </g></g><path
       style="fill:#000000;stroke-width:0.799999"
       d="m 119.38277,118.27654 -0.17505,18.2144"
       id="path1274" /><path
       style="fill:#000000;stroke:#000000;stroke-width:0.594171;stroke-dasharray:none;stroke-opacity:1;marker-end:url(#Arrow2)"
       d="m 121.38658,116.3383 -0.0952,22.77354"
       id="path1276" /></g></svg>
