<?xml version="1.0" encoding="UTF-8" standalone="no"?>
<!-- Created with Inkscape (http://www.inkscape.org/) -->

<svg
   width="159.19524mm"
   height="145.52084mm"
   viewBox="0 0 159.19524 145.52084"
   version="1.1"
   id="svg5"
   sodipodi:docname="star-shaped.svg"
   inkscape:version="1.2.2 (b0a8486541, 2022-12-01)"
   xmlns:inkscape="http://www.inkscape.org/namespaces/inkscape"
   xmlns:sodipodi="http://sodipodi.sourceforge.net/DTD/sodipodi-0.dtd"
   xmlns="http://www.w3.org/2000/svg"
   xmlns:svg="http://www.w3.org/2000/svg">
  <sodipodi:namedview
     id="namedview7"
     pagecolor="#ffffff"
     bordercolor="#000000"
     borderopacity="0.25"
     inkscape:showpageshadow="2"
     inkscape:pageopacity="0.0"
     inkscape:pagecheckerboard="0"
     inkscape:deskcolor="#d1d1d1"
     inkscape:document-units="mm"
     showgrid="false"
     inkscape:zoom="0.54677766"
     inkscape:cx="235.92771"
     inkscape:cy="169.17297"
     inkscape:window-width="1854"
     inkscape:window-height="1011"
     inkscape:window-x="1986"
     inkscape:window-y="32"
     inkscape:window-maximized="1"
     inkscape:current-layer="g1546" />
  <defs
     id="defs2">
    <clipPath
       id="clipPath2027">
      <path
         clip-rule="nonzero"
         d="m 9,2 h 6 V 8.855469 H 9 Z m 0,0"
         id="path222" />
    </clipPath>
    <clipPath
       id="clipPath9167">
      <path
         clip-rule="nonzero"
         d="m 14,3 h 8 v 5.855469 h -8 z m 0,0"
         id="path8835" />
    </clipPath>
    <clipPath
       id="clipPath1856">
      <path
         clip-rule="nonzero"
         d="m 28,3 h 7 v 5.855469 h -7 z m 0,0"
         id="path2821" />
    </clipPath>
    <clipPath
       id="clipPath890">
      <path
         clip-rule="nonzero"
         d="M 23,6 H 35 V 22.796875 H 23 Z m 0,0"
         id="path2576" />
    </clipPath>
    <clipPath
       id="clipPath5313">
      <path
         clip-rule="nonzero"
         d="M 35,8 H 54 V 22.796875 H 35 Z m 0,0"
         id="path6669" />
    </clipPath>
    <clipPath
       id="clipPath83">
      <path
         clip-rule="nonzero"
         d="M 69,8 H 87 V 22.796875 H 69 Z m 0,0"
         id="path6472" />
    </clipPath>
  </defs>
  <g
     inkscape:label="Layer 1"
     inkscape:groupmode="layer"
     id="layer1"
     transform="translate(-32.820293,-74.739261)">
    <path
       style="fill:none;stroke:#000000;stroke-width:0.676;stroke-dasharray:none;stroke-opacity:1"
       d="m 33.162943,75.49929 0.872371,142.77807 155.729176,1.64121 1.90463,-142.681197 -90.73168,58.890687 z"
       id="path245" />
    <circle
       style="fill:none;stroke:#000000;stroke-width:0.52;stroke-dasharray:1.56, 1.56;stroke-dashoffset:0;stroke-opacity:1"
       id="path299"
       cy="177.37183"
       cx="101.05132"
       r="41" />
    <g
       inkscape:label=""
       transform="matrix(2.0000053,0,0,1.9999773,128.63434,240.508)"
       id="g1546">
      <g
         fill="#000000"
         fill-opacity="1"
         id="g1514"
         transform="matrix(0.352778,0,0,0.352778,12.94706,-30.032745)">
        <g
           id="g1512"
           transform="translate(0,17.212999)">
          <path
             d="m 12.390625,-10.015625 c -0.03125,-0.07813 -0.125,-0.265625 -0.125,-0.34375 0,-0.03125 0.03125,-0.04687 0.453125,-0.375 l 2.390625,-1.875 c 3.328125,-2.578125 4.421875,-3.453125 6.125,-3.59375 0.171875,-0.03125 0.421875,-0.03125 0.421875,-0.453125 0,-0.140625 -0.07813,-0.265625 -0.265625,-0.265625 -0.28125,0 -0.578125,0.04687 -0.84375,0.04687 h -0.9375 c -0.78125,0 -1.59375,-0.04687 -2.34375,-0.04687 -0.171875,0 -0.46875,0 -0.46875,0.4375 0,0.25 0.171875,0.28125 0.328125,0.28125 0.265625,0.01563 0.59375,0.125 0.59375,0.46875 0,0.5 -0.75,1.09375 -0.9375,1.234375 L 7.0625,-6.9375 9.125,-15.109375 c 0.21875,-0.84375 0.265625,-1.09375 2.03125,-1.09375 0.46875,0 0.6875,0 0.6875,-0.46875 0,-0.25 -0.25,-0.25 -0.375,-0.25 -0.4375,0 -0.96875,0.04687 -1.4375,0.04687 H 7.109375 c -0.4375,0 -0.984375,-0.04687 -1.4375,-0.04687 -0.1875,0 -0.46875,0 -0.46875,0.46875 0,0.25 0.21875,0.25 0.59375,0.25 1.515625,0 1.515625,0.1875 1.515625,0.46875 0,0.04687 0,0.203125 -0.09375,0.5625 l -3.359375,13.34375 c -0.21875,0.859375 -0.265625,1.109375 -2,1.109375 -0.46875,0 -0.71875,0 -0.71875,0.453125 C 1.140625,0 1.359375,0 1.515625,0 c 0.46875,0 0.96875,-0.046875 1.4375,-0.046875 H 5.84375 c 0.46875,0 1,0.046875 1.46875,0.046875 0.203125,0 0.46875,0 0.46875,-0.46875 0,-0.25 -0.21875,-0.25 -0.59375,-0.25 -1.515625,0 -1.515625,-0.203125 -1.515625,-0.453125 0,-0.171875 0.15625,-0.78125 0.25,-1.1875 L 6.890625,-6.1875 10.65625,-9.140625 c 0.71875,1.578125 2.03125,4.75 3.046875,7.1875 0.07813,0.140625 0.125,0.296875 0.125,0.46875 0,0.734375 -0.984375,0.765625 -1.21875,0.765625 -0.21875,0 -0.46875,0 -0.46875,0.46875 0,0.25 0.28125,0.25 0.34375,0.25 0.875,0 1.796875,-0.046875 2.65625,-0.046875 h 1.1875 C 16.703125,-0.046875 17.125,0 17.5,0 c 0.140625,0 0.421875,0 0.421875,-0.46875 0,-0.25 -0.234375,-0.25 -0.46875,-0.25 -0.921875,-0.03125 -1.25,-0.21875 -1.625,-1.109375 z m 0,0"
             id="path1510" />
        </g>
      </g>
      <g
         clip-path="url(#clipPath890)"
         id="g1522"
         transform="matrix(0.352778,0,0,0.352778,-18.7347,-32.283063)">
        <g
           fill="#000000"
           fill-opacity="1"
           id="g1520">
          <g
             id="g1518"
             transform="translate(22.432325,17.212999)">
            <path
               d="M 0.765625,4.28125 C 0.75,4.40625 0.6875,4.5625 0.6875,4.703125 c 0,0.375 0.296875,0.625 0.671875,0.625 0.375,0 0.71875,-0.25 0.875,-0.59375 0.09375,-0.21875 0.78125,-3.203125 1.578125,-6.25 0.5,1.25 1.421875,1.765625 2.375,1.765625 2.8125,0 5.984375,-3.46875 5.984375,-7.21875 0,-2.640625 -1.609375,-3.953125 -3.328125,-3.953125 -2.171875,0 -4.828125,2.25 -5.640625,5.546875 z M 6.171875,-0.25 c -1.6875,0 -2.109375,-1.953125 -2.109375,-2.25 0,-0.15625 0.625,-2.5 0.703125,-2.875 1.25,-4.9375 3.6875,-5.0625 4.0625,-5.0625 1.109375,0 1.734375,1.015625 1.734375,2.484375 0,1.265625 -0.671875,3.71875 -1.09375,4.75 C 8.71875,-1.484375 7.4375,-0.25 6.171875,-0.25 Z m 0,0"
               id="path1516" />
          </g>
        </g>
      </g>
      <g
         clip-path="url(#clipPath5313)"
         id="g1530"
         transform="matrix(0.352778,0,0,0.352778,-18.7347,-32.283063)">
        <g
           fill="#000000"
           fill-opacity="1"
           id="g1528">
          <g
             id="g1526"
             transform="translate(34.946999,22.795)">
            <path
               d="m 10.328125,-8.34375 c -0.01563,-0.0625 -0.109375,-0.234375 -0.109375,-0.296875 0,-0.015625 0.03125,-0.03125 0.375,-0.296875 l 2,-1.578125 c 2.78125,-2.140625 3.6875,-2.875 5.109375,-3 0.140625,-0.01563 0.34375,-0.01563 0.34375,-0.359375 0,-0.125 -0.0625,-0.234375 -0.21875,-0.234375 -0.234375,0 -0.484375,0.04687 -0.703125,0.04687 h -0.78125 c -0.640625,0 -1.328125,-0.04687 -1.953125,-0.04687 -0.140625,0 -0.390625,0 -0.390625,0.375 0,0.203125 0.15625,0.21875 0.28125,0.21875 0.21875,0.03125 0.484375,0.109375 0.484375,0.40625 0,0.40625 -0.609375,0.90625 -0.78125,1.03125 l -8.09375,6.296875 1.703125,-6.8125 c 0.1875,-0.703125 0.234375,-0.921875 1.703125,-0.921875 0.390625,0 0.578125,0 0.578125,-0.390625 0,-0.203125 -0.203125,-0.203125 -0.3125,-0.203125 -0.375,0 -0.796875,0.04687 -1.203125,0.04687 h -2.4375 c -0.359375,0 -0.8125,-0.04687 -1.1875,-0.04687 -0.171875,0 -0.390625,0 -0.390625,0.390625 0,0.203125 0.1875,0.203125 0.484375,0.203125 1.265625,0 1.265625,0.171875 1.265625,0.40625 0,0.03125 0,0.15625 -0.078125,0.46875 L 3.21875,-1.53125 C 3.03125,-0.8125 3,-0.59375 1.546875,-0.59375 c -0.390625,0 -0.59375,0 -0.59375,0.359375 C 0.953125,0 1.140625,0 1.265625,0 1.65625,0 2.0625,-0.046875 2.453125,-0.046875 H 4.875 C 5.265625,-0.046875 5.703125,0 6.09375,0 c 0.171875,0 0.390625,0 0.390625,-0.390625 0,-0.203125 -0.1875,-0.203125 -0.5,-0.203125 -1.25,0 -1.25,-0.171875 -1.25,-0.375 0,-0.140625 0.125,-0.65625 0.203125,-1 L 5.75,-5.171875 8.875,-7.625 c 0.609375,1.328125 1.703125,3.96875 2.546875,6 0.0625,0.109375 0.109375,0.234375 0.109375,0.390625 0,0.609375 -0.828125,0.640625 -1.015625,0.640625 -0.1875,0 -0.390625,0 -0.390625,0.390625 C 10.125,0 10.34375,0 10.40625,0 11.140625,0 11.890625,-0.046875 12.625,-0.046875 h 0.984375 c 0.3125,0 0.671875,0.046875 0.96875,0.046875 0.125,0 0.359375,0 0.359375,-0.390625 0,-0.203125 -0.1875,-0.203125 -0.390625,-0.203125 -0.765625,-0.03125 -1.03125,-0.1875 -1.34375,-0.9375 z m 0,0"
               id="path1524" />
          </g>
        </g>
      </g>
      <g
         fill="#000000"
         fill-opacity="1"
         id="g1536"
         transform="matrix(0.352778,0,0,0.352778,-12.112076,-59.731502)">
        <g
           id="g1534"
           transform="translate(54.141998,17.212999)">
          <path
             d="m 6.96875,-16.578125 c 0.015625,-0.09375 0.0625,-0.25 0.0625,-0.375 0,-0.25 -0.234375,-0.25 -0.296875,-0.25 -0.015625,0 -1.234375,0.109375 -1.359375,0.125 -0.421875,0.03125 -0.796875,0.07813 -1.234375,0.109375 -0.625,0.04687 -0.796875,0.0625 -0.796875,0.515625 0,0.25 0.203125,0.25 0.546875,0.25 1.21875,0 1.234375,0.21875 1.234375,0.46875 0,0.140625 -0.046875,0.34375 -0.0625,0.421875 L 1.46875,-0.96875 c -0.109375,0.375 -0.109375,0.421875 -0.109375,0.578125 0,0.546875 0.421875,0.640625 0.671875,0.640625 0.421875,0 0.75,-0.328125 0.875,-0.59375 l 1.109375,-4.484375 c 0.125,-0.546875 0.265625,-1.0625 0.390625,-1.609375 0.28125,-1.046875 0.28125,-1.078125 0.75,-1.796875 0.46875,-0.71875 1.578125,-2.203125 3.5,-2.203125 0.984375,0 1.328125,0.75 1.328125,1.734375 0,1.390625 -0.96875,4.09375 -1.515625,5.578125 C 8.25,-2.53125 8.125,-2.203125 8.125,-1.765625 c 0,1.125 0.765625,2.015625 1.96875,2.015625 2.296875,0 3.171875,-3.640625 3.171875,-3.796875 0,-0.125 -0.109375,-0.21875 -0.25,-0.21875 -0.234375,0 -0.25,0.078125 -0.375,0.5 C 12.0625,-1.28125 11.15625,-0.25 10.15625,-0.25 c -0.25,0 -0.640625,-0.015625 -0.640625,-0.8125 0,-0.640625 0.296875,-1.4375 0.390625,-1.71875 0.453125,-1.1875 1.5625,-4.109375 1.5625,-5.546875 0,-1.484375 -0.859375,-2.59375 -2.75,-2.59375 -1.40625,0 -2.640625,0.65625 -3.65625,1.953125 z m 0,0"
             id="path1532" />
        </g>
      </g>
      <g
         clip-path="url(#clipPath83)"
         id="g1544"
         transform="matrix(0.352778,0,0,0.352778,-12.112076,-59.731502)">
        <g
           fill="#000000"
           fill-opacity="1"
           id="g1542">
          <g
             id="g1540"
             transform="translate(68.112999,22.795)">
            <path
               d="m 10.328125,-8.34375 c -0.01563,-0.0625 -0.109375,-0.234375 -0.109375,-0.296875 0,-0.015625 0.03125,-0.03125 0.375,-0.296875 l 2,-1.578125 c 2.78125,-2.140625 3.6875,-2.875 5.109375,-3 0.140625,-0.01563 0.34375,-0.01563 0.34375,-0.359375 0,-0.125 -0.0625,-0.234375 -0.21875,-0.234375 -0.234375,0 -0.484375,0.04687 -0.703125,0.04687 h -0.78125 c -0.640625,0 -1.328125,-0.04687 -1.953125,-0.04687 -0.140625,0 -0.390625,0 -0.390625,0.375 0,0.203125 0.15625,0.21875 0.28125,0.21875 0.21875,0.03125 0.484375,0.109375 0.484375,0.40625 0,0.40625 -0.609375,0.90625 -0.78125,1.03125 l -8.09375,6.296875 1.703125,-6.8125 c 0.1875,-0.703125 0.234375,-0.921875 1.703125,-0.921875 0.390625,0 0.578125,0 0.578125,-0.390625 0,-0.203125 -0.203125,-0.203125 -0.3125,-0.203125 -0.375,0 -0.796875,0.04687 -1.203125,0.04687 h -2.4375 c -0.359375,0 -0.8125,-0.04687 -1.1875,-0.04687 -0.171875,0 -0.390625,0 -0.390625,0.390625 0,0.203125 0.1875,0.203125 0.484375,0.203125 1.265625,0 1.265625,0.171875 1.265625,0.40625 0,0.03125 0,0.15625 -0.078125,0.46875 L 3.21875,-1.53125 C 3.03125,-0.8125 3,-0.59375 1.546875,-0.59375 c -0.390625,0 -0.59375,0 -0.59375,0.359375 C 0.953125,0 1.140625,0 1.265625,0 1.65625,0 2.0625,-0.046875 2.453125,-0.046875 H 4.875 C 5.265625,-0.046875 5.703125,0 6.09375,0 c 0.171875,0 0.390625,0 0.390625,-0.390625 0,-0.203125 -0.1875,-0.203125 -0.5,-0.203125 -1.25,0 -1.25,-0.171875 -1.25,-0.375 0,-0.140625 0.125,-0.65625 0.203125,-1 L 5.75,-5.171875 8.875,-7.625 c 0.609375,1.328125 1.703125,3.96875 2.546875,6 0.0625,0.109375 0.109375,0.234375 0.109375,0.390625 0,0.609375 -0.828125,0.640625 -1.015625,0.640625 -0.1875,0 -0.390625,0 -0.390625,0.390625 C 10.125,0 10.34375,0 10.40625,0 11.140625,0 11.890625,-0.046875 12.625,-0.046875 h 0.984375 c 0.3125,0 0.671875,0.046875 0.96875,0.046875 0.125,0 0.359375,0 0.359375,-0.390625 0,-0.203125 -0.1875,-0.203125 -0.390625,-0.203125 -0.765625,-0.03125 -1.03125,-0.1875 -1.34375,-0.9375 z m 0,0"
               id="path1538" />
          </g>
        </g>
      </g>
      <path
         style="fill:none;stroke:#000000;stroke-width:0.260001;stroke-dasharray:1.04, 2.08001;stroke-dashoffset:0;stroke-opacity:1"
         d="M -47.218827,-11.128103 31.569061,-81.692356"
         id="path2001" />
      <path
         style="fill:none;stroke:#000000;stroke-width:0.260001;stroke-dasharray:1.04, 2.08;stroke-dashoffset:0;stroke-opacity:1"
         d="m -14.670659,-31.794358 21.4924538,0.227655"
         id="path2003" />
    </g>
  </g>
</svg>
