<?xml version="1.0" encoding="UTF-8" standalone="no"?>
<!-- Created with Inkscape (http://www.inkscape.org/) -->

<svg
   width="191.57413mm"
   height="71.392334mm"
   viewBox="0 0 191.57412 71.392334"
   version="1.1"
   id="svg910"
   inkscape:version="1.2.2 (b0a8486541, 2022-12-01)"
   sodipodi:docname="backcell_be_cuted.svg"
   inkscape:export-filename="backcell_be_cuted.pdf"
   inkscape:export-xdpi="96"
   inkscape:export-ydpi="96"
   xmlns:inkscape="http://www.inkscape.org/namespaces/inkscape"
   xmlns:sodipodi="http://sodipodi.sourceforge.net/DTD/sodipodi-0.dtd"
   xmlns="http://www.w3.org/2000/svg"
   xmlns:svg="http://www.w3.org/2000/svg">
  <sodipodi:namedview
     id="namedview912"
     pagecolor="#ffffff"
     bordercolor="#000000"
     borderopacity="0.25"
     inkscape:showpageshadow="2"
     inkscape:pageopacity="0.0"
     inkscape:pagecheckerboard="0"
     inkscape:deskcolor="#d1d1d1"
     inkscape:document-units="mm"
     showgrid="false"
     inkscape:zoom="0.77326038"
     inkscape:cx="580.65823"
     inkscape:cy="230.84074"
     inkscape:window-width="1854"
     inkscape:window-height="1011"
     inkscape:window-x="1986"
     inkscape:window-y="32"
     inkscape:window-maximized="1"
     inkscape:current-layer="layer1" />
  <defs
     id="defs907">
    <clipPath
       id="clipPath3861-7-5">
      <path
         clip-rule="nonzero"
         d="m 14,8 h 6 v 8.089844 h -6 z m 0,0"
         id="path2467-5-9" />
    </clipPath>
    <clipPath
       id="clipPath3317-3-2">
      <path
         clip-rule="nonzero"
         d="m 14,11 h 6 v 8.273438 h -6 z m 0,0"
         id="path1784-5-2" />
    </clipPath>
    <clipPath
       id="clipPath649-6-8">
      <path
         clip-rule="nonzero"
         d="m 15,11 h 5 v 8.273438 h -5 z m 0,0"
         id="path6692-2-9" />
    </clipPath>
    <clipPath
       id="clipPath1789-9-7">
      <path
         clip-rule="nonzero"
         d="M 0,2 H 10 V 13.953125 H 0 Z m 0,0"
         id="path5610-1-3" />
    </clipPath>
    <clipPath
       id="clipPath923-2-6">
      <path
         clip-rule="nonzero"
         d="M 0,0 H 10 V 11.761719 H 0 Z m 0,0"
         id="path8320-7-1" />
    </clipPath>
    <clipPath
       id="clipPath6172-3-3-3">
      <path
         clip-rule="nonzero"
         d="m 15,8 h 5 v 8.089844 h -5 z m 0,0"
         id="path1338-6-7-1" />
    </clipPath>
    <clipPath
       id="clipPath5725">
      <path
         clip-rule="nonzero"
         d="m 15,17 h 5 v 8.183594 h -5 z m 0,0"
         id="path147" />
    </clipPath>
    <clipPath
       id="clipPath806">
      <path
         clip-rule="nonzero"
         d="m 14,17 h 6 v 8.183594 h -6 z m 0,0"
         id="path5373" />
    </clipPath>
    <clipPath
       id="clipPath2160">
      <path
         clip-rule="nonzero"
         d="m 14,17 h 6 v 8.183594 h -6 z m 0,0"
         id="path4166" />
    </clipPath>
    <clipPath
       id="clipPath5300">
      <path
         clip-rule="nonzero"
         d="m 14,17 h 6 v 8.183594 h -6 z m 0,0"
         id="path9194" />
    </clipPath>
  </defs>
  <g
     inkscape:label="Layer 1"
     inkscape:groupmode="layer"
     id="layer1"
     transform="translate(48.611542,-87.847092)">
    <rect
       style="fill:none;fill-rule:evenodd;stroke:#140000;stroke-width:0.458599;stroke-dasharray:none;stroke-dashoffset:0;stroke-opacity:1;paint-order:stroke fill markers"
       id="rect234"
       width="69.483063"
       height="69.538177"
       x="-47.639698"
       y="88.723976"
       ry="0.2629396" />
    <path
       style="fill:none;fill-rule:evenodd;stroke:#000000;stroke-width:0.461822;stroke-dasharray:none;stroke-dashoffset:0;stroke-opacity:1;paint-order:stroke fill markers"
       d="M -47.567469,106.60606 22.04381,136.64348"
       id="path961" />
    <circle
       style="fill:#000000;fill-opacity:1;fill-rule:evenodd;stroke:none;stroke-width:0.820097;stroke-dasharray:none;stroke-dashoffset:0;stroke-opacity:1;paint-order:stroke fill markers"
       id="path3450"
       cx="-47.490211"
       cy="88.864182"
       r="1" />
    <circle
       style="fill:#000000;fill-opacity:1;fill-rule:evenodd;stroke:none;stroke-width:0.820097;stroke-dasharray:none;stroke-dashoffset:0;stroke-opacity:1;paint-order:stroke fill markers"
       id="path3450-0"
       cx="-47.582012"
       cy="106.62999"
       r="1" />
    <circle
       style="fill:#000000;fill-opacity:1;fill-rule:evenodd;stroke:none;stroke-width:0.820097;stroke-dasharray:none;stroke-dashoffset:0;stroke-opacity:1;paint-order:stroke fill markers"
       id="path3450-9"
       cx="-47.611542"
       cy="158.15822"
       r="1" />
    <circle
       style="fill:#000000;fill-opacity:1;fill-rule:evenodd;stroke:none;stroke-width:0.820097;stroke-dasharray:none;stroke-dashoffset:0;stroke-opacity:1;paint-order:stroke fill markers"
       id="path3450-3"
       cx="21.74485"
       cy="158.23943"
       r="1" />
    <circle
       style="fill:#000000;fill-opacity:1;fill-rule:evenodd;stroke:none;stroke-width:0.820097;stroke-dasharray:none;stroke-dashoffset:0;stroke-opacity:1;paint-order:stroke fill markers"
       id="path3450-6"
       cx="21.8032"
       cy="136.49005"
       r="1" />
    <ellipse
       style="fill:#000000;fill-opacity:1;fill-rule:evenodd;stroke:#140000;stroke-width:0.578725;stroke-dasharray:none;stroke-dashoffset:0;stroke-opacity:1;paint-order:stroke fill markers"
       id="path3450-06"
       cx="21.766266"
       cy="88.901871"
       rx="0.71063763"
       ry="0.71063745" />
    <rect
       style="fill:none;fill-rule:evenodd;stroke:#140000;stroke-width:0.458599;stroke-dasharray:none;stroke-dashoffset:0;stroke-opacity:1;paint-order:stroke fill markers"
       id="rect234-2"
       width="69.483063"
       height="69.538177"
       x="72.468658"
       y="88.723969"
       ry="0.2629396" />
    <ellipse
       style="fill:#000000;fill-opacity:1;fill-rule:evenodd;stroke:#140000;stroke-width:0.578725;stroke-dasharray:none;stroke-dashoffset:0;stroke-opacity:1;paint-order:stroke fill markers"
       id="path3450-1-4"
       cx="141.96259"
       cy="88.945297"
       rx="0.71063763"
       ry="0.71063745" />
    <path
       style="fill:none;fill-rule:evenodd;stroke:#000000;stroke-width:0.461822;stroke-dasharray:none;stroke-dashoffset:0;stroke-opacity:1;paint-order:stroke fill markers"
       d="M 72.536754,146.81119 141.91395,107.50574"
       id="path961-6"
       sodipodi:nodetypes="cc" />
    <circle
       style="fill:#000000;fill-opacity:1;fill-rule:evenodd;stroke:none;stroke-width:0.820097;stroke-dasharray:none;stroke-dashoffset:0;stroke-opacity:1;paint-order:stroke fill markers"
       id="path3450-9-7"
       cx="72.496811"
       cy="158.15822"
       r="1" />
    <circle
       style="fill:#000000;fill-opacity:1;fill-rule:evenodd;stroke:none;stroke-width:0.820097;stroke-dasharray:none;stroke-dashoffset:0;stroke-opacity:1;paint-order:stroke fill markers"
       id="path3450-3-9"
       cx="141.85298"
       cy="158.23943"
       r="1" />
    <circle
       style="fill:#000000;fill-opacity:1;fill-rule:evenodd;stroke:none;stroke-width:0.820097;stroke-dasharray:none;stroke-dashoffset:0;stroke-opacity:1;paint-order:stroke fill markers"
       id="path3450-0-8"
       cx="72.515755"
       cy="146.7769"
       r="1" />
    <circle
       style="fill:#000000;fill-opacity:1;fill-rule:evenodd;stroke:none;stroke-width:0.820097;stroke-dasharray:none;stroke-dashoffset:0;stroke-opacity:1;paint-order:stroke fill markers"
       id="path3450-0-8-2"
       cx="141.93839"
       cy="107.50323"
       r="1" />
    <g
       inkscape:label=""
       transform="translate(96.593734,104.18384)"
       id="g1848"
       style="stroke:none;stroke-width:0.15;stroke-dasharray:none;stroke-opacity:1">
      <g
         fill="#000000"
         fill-opacity="1"
         id="g1832"
         transform="matrix(0.352778,0,0,0.352778,-0.28112,5.73285e-4)"
         style="stroke:none;stroke-width:0.425197;stroke-dasharray:none;stroke-opacity:1">
        <g
           id="g1830"
           transform="translate(0,11.764)"
           style="stroke:none;stroke-width:0.425197;stroke-dasharray:none;stroke-opacity:1">
          <path
             d="m 8.609375,-6.953125 c -0.015625,-0.0625 -0.09375,-0.1875 -0.09375,-0.25 0,-0.015625 0.03125,-0.03125 0.3125,-0.25 L 10.5,-8.765625 c 2.3125,-1.796875 3.0625,-2.390625 4.25,-2.5 0.125,-0.01563 0.296875,-0.01563 0.296875,-0.3125 0,-0.09375 -0.04687,-0.1875 -0.1875,-0.1875 -0.1875,0 -0.390625,0.04687 -0.578125,0.04687 H 13.625 c -0.53125,0 -1.109375,-0.04687 -1.625,-0.04687 -0.125,0 -0.328125,0 -0.328125,0.3125 0,0.171875 0.125,0.1875 0.21875,0.1875 0.203125,0.01563 0.421875,0.09375 0.421875,0.328125 0,0.34375 -0.515625,0.765625 -0.65625,0.859375 l -6.75,5.25 L 6.34375,-10.5 c 0.140625,-0.59375 0.1875,-0.765625 1.40625,-0.765625 0.328125,0 0.484375,0 0.484375,-0.328125 0,-0.171875 -0.171875,-0.171875 -0.265625,-0.171875 -0.3125,0 -0.671875,0.04687 -1,0.04687 H 4.9375 c -0.3125,0 -0.6875,-0.04687 -1,-0.04687 -0.125,0 -0.328125,0 -0.328125,0.328125 0,0.171875 0.15625,0.171875 0.421875,0.171875 1.046875,0 1.046875,0.140625 1.046875,0.328125 0,0.03125 0,0.140625 -0.0625,0.40625 l -2.328125,9.25 C 2.53125,-0.671875 2.5,-0.5 1.296875,-0.5 c -0.328125,0 -0.5,0 -0.5,0.3125 0,0.1875 0.15625,0.1875 0.25,0.1875 0.328125,0 0.671875,-0.03125 1,-0.03125 H 4.0625 C 4.390625,-0.03125 4.75,0 5.078125,0 5.21875,0 5.40625,0 5.40625,-0.328125 5.40625,-0.5 5.25,-0.5 5,-0.5 c -1.0625,0 -1.0625,-0.140625 -1.0625,-0.3125 0,-0.125 0.109375,-0.546875 0.171875,-0.828125 L 4.78125,-4.3125 l 2.625,-2.046875 c 0.5,1.109375 1.40625,3.3125 2.109375,5 0.0625,0.109375 0.09375,0.203125 0.09375,0.328125 0,0.515625 -0.6875,0.53125 -0.84375,0.53125 -0.15625,0 -0.328125,0 -0.328125,0.328125 C 8.4375,0 8.625,0 8.671875,0 c 0.609375,0 1.25,-0.03125 1.84375,-0.03125 H 11.34375 C 11.609375,-0.03125 11.890625,0 12.15625,0 12.265625,0 12.453125,0 12.453125,-0.328125 12.453125,-0.5 12.296875,-0.5 12.125,-0.5 11.484375,-0.515625 11.265625,-0.65625 11,-1.28125 Z m 0,0"
             id="path1828"
             style="stroke:none;stroke-width:0.425197;stroke-dasharray:none;stroke-opacity:1" />
        </g>
      </g>
      <g
         fill="#000000"
         fill-opacity="1"
         id="g1838"
         transform="matrix(0.352778,0,0,0.352778,-0.28112,5.73285e-4)"
         style="stroke:none;stroke-width:0.425197;stroke-dasharray:none;stroke-opacity:1">
        <g
           id="g1836"
           transform="translate(15.577,5.5159998)"
           style="stroke:none;stroke-width:0.425197;stroke-dasharray:none;stroke-opacity:1">
          <path
             d="M 2.46875,-3.5 C 2.484375,-3.578125 2.78125,-4.171875 3.234375,-4.546875 3.53125,-4.84375 3.9375,-5.03125 4.40625,-5.03125 c 0.484375,0 0.65625,0.359375 0.65625,0.828125 0,0.6875 -0.5,2.046875 -0.734375,2.703125 -0.109375,0.28125 -0.171875,0.4375 -0.171875,0.65625 0,0.53125 0.375,0.96875 0.953125,0.96875 1.109375,0 1.53125,-1.765625 1.53125,-1.828125 0,-0.0625 -0.046875,-0.109375 -0.125,-0.109375 -0.109375,0 -0.125,0.03125 -0.1875,0.234375 C 6.0625,-0.59375 5.609375,-0.125 5.140625,-0.125 c -0.125,0 -0.3125,0 -0.3125,-0.390625 0,-0.296875 0.125,-0.65625 0.203125,-0.828125 C 5.265625,-2 5.765625,-3.328125 5.765625,-4.015625 c 0,-0.71875 -0.40625,-1.25 -1.3125,-1.25 -1.078125,0 -1.625,0.75 -1.84375,1.046875 -0.046875,-0.6875 -0.53125,-1.046875 -1.0625,-1.046875 -0.375,0 -0.640625,0.21875 -0.84375,0.625 -0.21875,0.4375 -0.375,1.15625 -0.375,1.203125 0,0.046875 0.046875,0.109375 0.125,0.109375 0.09375,0 0.109375,-0.015625 0.1875,-0.296875 0.1875,-0.71875 0.40625,-1.40625 0.875,-1.40625 0.28125,0 0.375,0.1875 0.375,0.546875 0,0.265625 -0.125,0.734375 -0.203125,1.109375 l -0.34375,1.28125 c -0.046875,0.234375 -0.171875,0.765625 -0.234375,0.984375 -0.078125,0.3125 -0.21875,0.875 -0.21875,0.9375 0,0.15625 0.140625,0.296875 0.3125,0.296875 0.140625,0 0.3125,-0.078125 0.40625,-0.25 C 1.640625,-0.1875 1.75,-0.609375 1.8125,-0.84375 l 0.25,-1.078125 z m 0,0"
             id="path1834"
             style="stroke:none;stroke-width:0.425197;stroke-dasharray:none;stroke-opacity:1" />
        </g>
      </g>
      <g
         clip-path="url(#clipPath3861-7-5)"
         id="g1846"
         transform="matrix(0.352778,0,0,0.352778,-0.28112,5.73285e-4)"
         style="stroke:none;stroke-width:0.425197;stroke-dasharray:none;stroke-opacity:1">
        <g
           fill="#000000"
           fill-opacity="1"
           id="g1844"
           style="stroke:none;stroke-width:0.425197;stroke-dasharray:none;stroke-opacity:1">
          <g
             id="g1842"
             transform="translate(14.341,16.09)"
             style="stroke:none;stroke-width:0.425197;stroke-dasharray:none;stroke-opacity:1">
            <path
               d="M 5.265625,-2.015625 H 5 c -0.046875,0.203125 -0.140625,0.875 -0.25,1.0625 C 4.65625,-0.84375 3.984375,-0.84375 3.625,-0.84375 H 1.40625 c 0.328125,-0.28125 1.0625,-1.046875 1.359375,-1.328125 1.828125,-1.671875 2.5,-2.296875 2.5,-3.484375 0,-1.375 -1.09375,-2.296875 -2.484375,-2.296875 -1.375,0 -2.203125,1.1875 -2.203125,2.21875 0,0.609375 0.53125,0.609375 0.5625,0.609375 0.265625,0 0.5625,-0.1875 0.5625,-0.5625 0,-0.34375 -0.21875,-0.5625 -0.5625,-0.5625 -0.09375,0 -0.125,0 -0.15625,0.015625 0.21875,-0.8125 0.875,-1.375 1.640625,-1.375 1.015625,0 1.640625,0.859375 1.640625,1.953125 C 4.265625,-4.640625 3.6875,-3.75 3,-2.984375 L 0.578125,-0.28125 V 0 h 4.375 z m 0,0"
               id="path1840"
               style="stroke:none;stroke-width:0.425197;stroke-dasharray:none;stroke-opacity:1" />
          </g>
        </g>
      </g>
    </g>
    <g
       inkscape:label=""
       transform="translate(-11.251106,98.583351)"
       id="g1945"
       style="stroke:none;stroke-width:0.15;stroke-dasharray:none;stroke-opacity:1">
      <g
         fill="#000000"
         fill-opacity="1"
         id="g30"
         transform="matrix(0.352778,0,0,0.352778,-0.28112,0.0878858)"
         style="stroke:none;stroke-width:0.425197;stroke-dasharray:none;stroke-opacity:1">
        <g
           id="use28"
           transform="translate(0,14.63)"
           style="stroke:none;stroke-width:0.425197;stroke-dasharray:none;stroke-opacity:1">
          <path
             d="m 8.609375,-6.953125 c -0.015625,-0.0625 -0.09375,-0.1875 -0.09375,-0.25 0,-0.015625 0.03125,-0.03125 0.3125,-0.25 L 10.5,-8.765625 c 2.3125,-1.796875 3.0625,-2.390625 4.25,-2.5 0.125,-0.01563 0.296875,-0.01563 0.296875,-0.3125 0,-0.09375 -0.04687,-0.1875 -0.1875,-0.1875 -0.1875,0 -0.390625,0.04687 -0.578125,0.04687 H 13.625 c -0.53125,0 -1.109375,-0.04687 -1.625,-0.04687 -0.125,0 -0.328125,0 -0.328125,0.3125 0,0.171875 0.125,0.1875 0.21875,0.1875 0.203125,0.01563 0.421875,0.09375 0.421875,0.328125 0,0.34375 -0.515625,0.765625 -0.65625,0.859375 l -6.75,5.25 L 6.34375,-10.5 c 0.140625,-0.59375 0.1875,-0.765625 1.40625,-0.765625 0.328125,0 0.484375,0 0.484375,-0.328125 0,-0.171875 -0.171875,-0.171875 -0.265625,-0.171875 -0.3125,0 -0.671875,0.04687 -1,0.04687 H 4.9375 c -0.3125,0 -0.6875,-0.04687 -1,-0.04687 -0.125,0 -0.328125,0 -0.328125,0.328125 0,0.171875 0.15625,0.171875 0.421875,0.171875 1.046875,0 1.046875,0.140625 1.046875,0.328125 0,0.03125 0,0.140625 -0.0625,0.40625 l -2.328125,9.25 C 2.53125,-0.671875 2.5,-0.5 1.296875,-0.5 c -0.328125,0 -0.5,0 -0.5,0.3125 0,0.1875 0.15625,0.1875 0.25,0.1875 0.328125,0 0.671875,-0.03125 1,-0.03125 H 4.0625 C 4.390625,-0.03125 4.75,0 5.078125,0 5.21875,0 5.40625,0 5.40625,-0.328125 5.40625,-0.5 5.25,-0.5 5,-0.5 c -1.0625,0 -1.0625,-0.140625 -1.0625,-0.3125 0,-0.125 0.109375,-0.546875 0.171875,-0.828125 L 4.78125,-4.3125 l 2.625,-2.046875 c 0.5,1.109375 1.40625,3.3125 2.109375,5 0.0625,0.109375 0.09375,0.203125 0.09375,0.328125 0,0.515625 -0.6875,0.53125 -0.84375,0.53125 -0.15625,0 -0.328125,0 -0.328125,0.328125 C 8.4375,0 8.625,0 8.671875,0 c 0.609375,0 1.25,-0.03125 1.84375,-0.03125 H 11.34375 C 11.609375,-0.03125 11.890625,0 12.15625,0 12.265625,0 12.453125,0 12.453125,-0.328125 12.453125,-0.5 12.296875,-0.5 12.125,-0.5 11.484375,-0.515625 11.265625,-0.65625 11,-1.28125 Z m 0,0"
             id="path54"
             style="stroke:none;stroke-width:0.425197;stroke-dasharray:none;stroke-opacity:1" />
        </g>
      </g>
      <g
         fill="#000000"
         fill-opacity="1"
         id="g34"
         transform="matrix(0.352778,0,0,0.352778,-0.28112,0.0878858)"
         style="stroke:none;stroke-width:0.425197;stroke-dasharray:none;stroke-opacity:1">
        <g
           id="use32"
           transform="translate(15.577,7.704)"
           style="stroke:none;stroke-width:0.425197;stroke-dasharray:none;stroke-opacity:1">
          <path
             d="M 2.46875,-3.5 C 2.484375,-3.578125 2.78125,-4.171875 3.234375,-4.546875 3.53125,-4.84375 3.9375,-5.03125 4.40625,-5.03125 c 0.484375,0 0.65625,0.359375 0.65625,0.828125 0,0.6875 -0.5,2.046875 -0.734375,2.703125 -0.109375,0.28125 -0.171875,0.4375 -0.171875,0.65625 0,0.53125 0.375,0.96875 0.953125,0.96875 1.109375,0 1.53125,-1.765625 1.53125,-1.828125 0,-0.0625 -0.046875,-0.109375 -0.125,-0.109375 -0.109375,0 -0.125,0.03125 -0.1875,0.234375 C 6.0625,-0.59375 5.609375,-0.125 5.140625,-0.125 c -0.125,0 -0.3125,0 -0.3125,-0.390625 0,-0.296875 0.125,-0.65625 0.203125,-0.828125 C 5.265625,-2 5.765625,-3.328125 5.765625,-4.015625 c 0,-0.71875 -0.40625,-1.25 -1.3125,-1.25 -1.078125,0 -1.625,0.75 -1.84375,1.046875 -0.046875,-0.6875 -0.53125,-1.046875 -1.0625,-1.046875 -0.375,0 -0.640625,0.21875 -0.84375,0.625 -0.21875,0.4375 -0.375,1.15625 -0.375,1.203125 0,0.046875 0.046875,0.109375 0.125,0.109375 0.09375,0 0.109375,-0.015625 0.1875,-0.296875 0.1875,-0.71875 0.40625,-1.40625 0.875,-1.40625 0.28125,0 0.375,0.1875 0.375,0.546875 0,0.265625 -0.125,0.734375 -0.203125,1.109375 l -0.34375,1.28125 c -0.046875,0.234375 -0.171875,0.765625 -0.234375,0.984375 -0.078125,0.3125 -0.21875,0.875 -0.21875,0.9375 0,0.15625 0.140625,0.296875 0.3125,0.296875 0.140625,0 0.3125,-0.078125 0.40625,-0.25 C 1.640625,-0.1875 1.75,-0.609375 1.8125,-0.84375 l 0.25,-1.078125 z m 0,0"
             id="path58"
             style="stroke:none;stroke-width:0.425197;stroke-dasharray:none;stroke-opacity:1" />
        </g>
      </g>
      <g
         fill="#000000"
         fill-opacity="1"
         id="g38"
         transform="matrix(0.352778,0,0,0.352778,-0.28112,0.0878858)"
         style="stroke:none;stroke-width:0.425197;stroke-dasharray:none;stroke-opacity:1">
        <g
           id="use36"
           transform="translate(22.565001,7.704)"
           style="stroke:none;stroke-width:0.425197;stroke-dasharray:none;stroke-opacity:1">
          <path
             d="m 7.875,-2.75 c 0.203125,0 0.421875,0 0.421875,-0.234375 0,-0.25 -0.21875,-0.25 -0.421875,-0.25 H 1.40625 c -0.203125,0 -0.421875,0 -0.421875,0.25 0,0.234375 0.21875,0.234375 0.421875,0.234375 z m 0,0"
             id="path62"
             style="stroke:none;stroke-width:0.425197;stroke-dasharray:none;stroke-opacity:1" />
        </g>
      </g>
      <g
         fill="#000000"
         fill-opacity="1"
         id="g42"
         transform="matrix(0.352778,0,0,0.352778,-0.28112,0.0878858)"
         style="stroke:none;stroke-width:0.425197;stroke-dasharray:none;stroke-opacity:1">
        <g
           id="use40"
           transform="translate(31.864,7.704)"
           style="stroke:none;stroke-width:0.425197;stroke-dasharray:none;stroke-opacity:1">
          <path
             d="m 3.4375,-7.65625 c 0,-0.28125 0,-0.296875 -0.234375,-0.296875 C 2.921875,-7.625 2.3125,-7.1875 1.09375,-7.1875 v 0.34375 c 0.265625,0 0.859375,0 1.53125,-0.296875 v 6.21875 c 0,0.4375 -0.046875,0.578125 -1.09375,0.578125 h -0.375 V 0 c 0.328125,-0.03125 1.484375,-0.03125 1.875,-0.03125 0.40625,0 1.546875,0 1.875,0.03125 v -0.34375 h -0.375 c -1.046875,0 -1.09375,-0.140625 -1.09375,-0.578125 z m 0,0"
             id="path66"
             style="stroke:none;stroke-width:0.425197;stroke-dasharray:none;stroke-opacity:1" />
        </g>
      </g>
      <g
         clip-path="url(#clipPath3317-3-2)"
         id="g48"
         transform="matrix(0.352778,0,0,0.352778,-0.28112,0.0878858)"
         style="stroke:none;stroke-width:0.425197;stroke-dasharray:none;stroke-opacity:1">
        <g
           fill="#000000"
           fill-opacity="1"
           id="g46"
           style="stroke:none;stroke-width:0.425197;stroke-dasharray:none;stroke-opacity:1">
          <g
             id="use44"
             transform="translate(14.341,19.274)"
             style="stroke:none;stroke-width:0.425197;stroke-dasharray:none;stroke-opacity:1">
            <path
               d="M 5.265625,-2.015625 H 5 c -0.046875,0.203125 -0.140625,0.875 -0.25,1.0625 C 4.65625,-0.84375 3.984375,-0.84375 3.625,-0.84375 H 1.40625 c 0.328125,-0.28125 1.0625,-1.046875 1.359375,-1.328125 1.828125,-1.671875 2.5,-2.296875 2.5,-3.484375 0,-1.375 -1.09375,-2.296875 -2.484375,-2.296875 -1.375,0 -2.203125,1.1875 -2.203125,2.21875 0,0.609375 0.53125,0.609375 0.5625,0.609375 0.265625,0 0.5625,-0.1875 0.5625,-0.5625 0,-0.34375 -0.21875,-0.5625 -0.5625,-0.5625 -0.09375,0 -0.125,0 -0.15625,0.015625 0.21875,-0.8125 0.875,-1.375 1.640625,-1.375 1.015625,0 1.640625,0.859375 1.640625,1.953125 C 4.265625,-4.640625 3.6875,-3.75 3,-2.984375 L 0.578125,-0.28125 V 0 h 4.375 z m 0,0"
               id="path70"
               style="stroke:none;stroke-width:0.425197;stroke-dasharray:none;stroke-opacity:1" />
          </g>
        </g>
      </g>
    </g>
    <g
       inkscape:label=""
       transform="translate(-23.31223,133.54938)"
       id="g2090"
       style="stroke:none;stroke-width:0.15;stroke-dasharray:none;stroke-opacity:1">
      <g
         fill="#000000"
         fill-opacity="1"
         id="g2073"
         transform="matrix(0.352778,0,0,0.352778,-0.28112,0.0878858)"
         style="stroke:none;stroke-width:0.425197;stroke-dasharray:none;stroke-opacity:1">
        <g
           id="g2071"
           transform="translate(0,14.63)"
           style="stroke:none;stroke-width:0.425197;stroke-dasharray:none;stroke-opacity:1">
          <path
             d="m 8.609375,-6.953125 c -0.015625,-0.0625 -0.09375,-0.1875 -0.09375,-0.25 0,-0.015625 0.03125,-0.03125 0.3125,-0.25 L 10.5,-8.765625 c 2.3125,-1.796875 3.0625,-2.390625 4.25,-2.5 0.125,-0.01563 0.296875,-0.01563 0.296875,-0.3125 0,-0.09375 -0.04687,-0.1875 -0.1875,-0.1875 -0.1875,0 -0.390625,0.04687 -0.578125,0.04687 H 13.625 c -0.53125,0 -1.109375,-0.04687 -1.625,-0.04687 -0.125,0 -0.328125,0 -0.328125,0.3125 0,0.171875 0.125,0.1875 0.21875,0.1875 0.203125,0.01563 0.421875,0.09375 0.421875,0.328125 0,0.34375 -0.515625,0.765625 -0.65625,0.859375 l -6.75,5.25 L 6.34375,-10.5 c 0.140625,-0.59375 0.1875,-0.765625 1.40625,-0.765625 0.328125,0 0.484375,0 0.484375,-0.328125 0,-0.171875 -0.171875,-0.171875 -0.265625,-0.171875 -0.3125,0 -0.671875,0.04687 -1,0.04687 H 4.9375 c -0.3125,0 -0.6875,-0.04687 -1,-0.04687 -0.125,0 -0.328125,0 -0.328125,0.328125 0,0.171875 0.15625,0.171875 0.421875,0.171875 1.046875,0 1.046875,0.140625 1.046875,0.328125 0,0.03125 0,0.140625 -0.0625,0.40625 l -2.328125,9.25 C 2.53125,-0.671875 2.5,-0.5 1.296875,-0.5 c -0.328125,0 -0.5,0 -0.5,0.3125 0,0.1875 0.15625,0.1875 0.25,0.1875 0.328125,0 0.671875,-0.03125 1,-0.03125 H 4.0625 C 4.390625,-0.03125 4.75,0 5.078125,0 5.21875,0 5.40625,0 5.40625,-0.328125 5.40625,-0.5 5.25,-0.5 5,-0.5 c -1.0625,0 -1.0625,-0.140625 -1.0625,-0.3125 0,-0.125 0.109375,-0.546875 0.171875,-0.828125 L 4.78125,-4.3125 l 2.625,-2.046875 c 0.5,1.109375 1.40625,3.3125 2.109375,5 0.0625,0.109375 0.09375,0.203125 0.09375,0.328125 0,0.515625 -0.6875,0.53125 -0.84375,0.53125 -0.15625,0 -0.328125,0 -0.328125,0.328125 C 8.4375,0 8.625,0 8.671875,0 c 0.609375,0 1.25,-0.03125 1.84375,-0.03125 H 11.34375 C 11.609375,-0.03125 11.890625,0 12.15625,0 12.265625,0 12.453125,0 12.453125,-0.328125 12.453125,-0.5 12.296875,-0.5 12.125,-0.5 11.484375,-0.515625 11.265625,-0.65625 11,-1.28125 Z m 0,0"
             id="path51"
             style="stroke:none;stroke-width:0.425197;stroke-dasharray:none;stroke-opacity:1" />
        </g>
      </g>
      <g
         fill="#000000"
         fill-opacity="1"
         id="g2078"
         transform="matrix(0.352778,0,0,0.352778,-0.28112,0.0878858)"
         style="stroke:none;stroke-width:0.425197;stroke-dasharray:none;stroke-opacity:1">
        <g
           id="g2076"
           transform="translate(15.577,7.704)"
           style="stroke:none;stroke-width:0.425197;stroke-dasharray:none;stroke-opacity:1">
          <path
             d="M 2.46875,-3.5 C 2.484375,-3.578125 2.78125,-4.171875 3.234375,-4.546875 3.53125,-4.84375 3.9375,-5.03125 4.40625,-5.03125 c 0.484375,0 0.65625,0.359375 0.65625,0.828125 0,0.6875 -0.5,2.046875 -0.734375,2.703125 -0.109375,0.28125 -0.171875,0.4375 -0.171875,0.65625 0,0.53125 0.375,0.96875 0.953125,0.96875 1.109375,0 1.53125,-1.765625 1.53125,-1.828125 0,-0.0625 -0.046875,-0.109375 -0.125,-0.109375 -0.109375,0 -0.125,0.03125 -0.1875,0.234375 C 6.0625,-0.59375 5.609375,-0.125 5.140625,-0.125 c -0.125,0 -0.3125,0 -0.3125,-0.390625 0,-0.296875 0.125,-0.65625 0.203125,-0.828125 C 5.265625,-2 5.765625,-3.328125 5.765625,-4.015625 c 0,-0.71875 -0.40625,-1.25 -1.3125,-1.25 -1.078125,0 -1.625,0.75 -1.84375,1.046875 -0.046875,-0.6875 -0.53125,-1.046875 -1.0625,-1.046875 -0.375,0 -0.640625,0.21875 -0.84375,0.625 -0.21875,0.4375 -0.375,1.15625 -0.375,1.203125 0,0.046875 0.046875,0.109375 0.125,0.109375 0.09375,0 0.109375,-0.015625 0.1875,-0.296875 0.1875,-0.71875 0.40625,-1.40625 0.875,-1.40625 0.28125,0 0.375,0.1875 0.375,0.546875 0,0.265625 -0.125,0.734375 -0.203125,1.109375 l -0.34375,1.28125 c -0.046875,0.234375 -0.171875,0.765625 -0.234375,0.984375 -0.078125,0.3125 -0.21875,0.875 -0.21875,0.9375 0,0.15625 0.140625,0.296875 0.3125,0.296875 0.140625,0 0.3125,-0.078125 0.40625,-0.25 C 1.640625,-0.1875 1.75,-0.609375 1.8125,-0.84375 l 0.25,-1.078125 z m 0,0"
             id="path55"
             style="stroke:none;stroke-width:0.425197;stroke-dasharray:none;stroke-opacity:1" />
        </g>
      </g>
      <g
         fill="#000000"
         fill-opacity="1"
         id="g35"
         transform="matrix(0.352778,0,0,0.352778,-0.28112,0.0878858)"
         style="stroke:none;stroke-width:0.425197;stroke-dasharray:none;stroke-opacity:1">
        <g
           id="use33"
           transform="translate(22.565001,7.704)"
           style="stroke:none;stroke-width:0.425197;stroke-dasharray:none;stroke-opacity:1">
          <path
             d="m 7.875,-2.75 c 0.203125,0 0.421875,0 0.421875,-0.234375 0,-0.25 -0.21875,-0.25 -0.421875,-0.25 H 1.40625 c -0.203125,0 -0.421875,0 -0.421875,0.25 0,0.234375 0.21875,0.234375 0.421875,0.234375 z m 0,0"
             id="path59"
             style="stroke:none;stroke-width:0.425197;stroke-dasharray:none;stroke-opacity:1" />
        </g>
      </g>
      <g
         fill="#000000"
         fill-opacity="1"
         id="g39"
         transform="matrix(0.352778,0,0,0.352778,-0.28112,0.0878858)"
         style="stroke:none;stroke-width:0.425197;stroke-dasharray:none;stroke-opacity:1">
        <g
           id="use37"
           transform="translate(31.864,7.704)"
           style="stroke:none;stroke-width:0.425197;stroke-dasharray:none;stroke-opacity:1">
          <path
             d="m 3.4375,-7.65625 c 0,-0.28125 0,-0.296875 -0.234375,-0.296875 C 2.921875,-7.625 2.3125,-7.1875 1.09375,-7.1875 v 0.34375 c 0.265625,0 0.859375,0 1.53125,-0.296875 v 6.21875 c 0,0.4375 -0.046875,0.578125 -1.09375,0.578125 h -0.375 V 0 c 0.328125,-0.03125 1.484375,-0.03125 1.875,-0.03125 0.40625,0 1.546875,0 1.875,0.03125 v -0.34375 h -0.375 c -1.046875,0 -1.09375,-0.140625 -1.09375,-0.578125 z m 0,0"
             id="path63"
             style="stroke:none;stroke-width:0.425197;stroke-dasharray:none;stroke-opacity:1" />
        </g>
      </g>
      <g
         clip-path="url(#clipPath649-6-8)"
         id="g45"
         transform="matrix(0.352778,0,0,0.352778,-0.28112,0.0878858)"
         style="stroke:none;stroke-width:0.425197;stroke-dasharray:none;stroke-opacity:1">
        <g
           fill="#000000"
           fill-opacity="1"
           id="g43"
           style="stroke:none;stroke-width:0.425197;stroke-dasharray:none;stroke-opacity:1">
          <g
             id="use41"
             transform="translate(14.341,19.274)"
             style="stroke:none;stroke-width:0.425197;stroke-dasharray:none;stroke-opacity:1">
            <path
               d="m 3.4375,-7.65625 c 0,-0.28125 0,-0.296875 -0.234375,-0.296875 C 2.921875,-7.625 2.3125,-7.1875 1.09375,-7.1875 v 0.34375 c 0.265625,0 0.859375,0 1.53125,-0.296875 v 6.21875 c 0,0.4375 -0.046875,0.578125 -1.09375,0.578125 h -0.375 V 0 c 0.328125,-0.03125 1.484375,-0.03125 1.875,-0.03125 0.40625,0 1.546875,0 1.875,0.03125 v -0.34375 h -0.375 c -1.046875,0 -1.09375,-0.140625 -1.09375,-0.578125 z m 0,0"
               id="path67"
               style="stroke:none;stroke-width:0.425197;stroke-dasharray:none;stroke-opacity:1" />
          </g>
        </g>
      </g>
    </g>
    <g
       inkscape:label=""
       transform="translate(-35.600061,117.06018)"
       id="g2273"
       style="stroke:none;stroke-width:0.15;stroke-dasharray:none;stroke-opacity:1">
      <g
         clip-path="url(#clipPath1789-9-7)"
         id="g29"
         transform="matrix(0.352778,0,0,0.352778,-0.308681,0.087533)"
         style="stroke:none;stroke-width:0.425197;stroke-dasharray:none;stroke-opacity:1">
        <g
           fill="#000000"
           fill-opacity="1"
           id="g2257"
           style="stroke:none;stroke-width:0.425197;stroke-dasharray:none;stroke-opacity:1">
          <g
             id="g2255"
             transform="translate(0,13.952)"
             style="stroke:none;stroke-width:0.425197;stroke-dasharray:none;stroke-opacity:1">
            <path
               d="M 8.921875,-11.71875 H 0.875 v 0.4375 c 1.1875,0 1.375,0 1.375,0.78125 v 9.28125 c 0,0.765625 -0.1875,0.765625 -1.375,0.765625 V 0 c 0.5,-0.03125 1.46875,-0.03125 2,-0.03125 0.703125,0 1.53125,0 2.234375,0.03125 v -0.453125 h -0.375 c -1.3125,0 -1.34375,-0.171875 -1.34375,-0.78125 v -9.375 c 0,-0.578125 0.03125,-0.671875 0.71875,-0.671875 h 1.90625 c 2.609375,0 2.75,1.203125 3,3.359375 h 0.3125 z m 0,0"
               id="path2253"
               style="stroke:none;stroke-width:0.425197;stroke-dasharray:none;stroke-opacity:1" />
          </g>
        </g>
      </g>
      <g
         fill="#000000"
         fill-opacity="1"
         id="g2263"
         transform="matrix(0.352778,0,0,0.352778,-0.308681,0.087533)"
         style="stroke:none;stroke-width:0.425197;stroke-dasharray:none;stroke-opacity:1">
        <g
           id="use31"
           transform="translate(9.915,7.7049999)"
           style="stroke:none;stroke-width:0.425197;stroke-dasharray:none;stroke-opacity:1">
          <path
             d="M 2.46875,-3.5 C 2.484375,-3.578125 2.78125,-4.171875 3.234375,-4.546875 3.53125,-4.84375 3.9375,-5.03125 4.40625,-5.03125 c 0.484375,0 0.65625,0.359375 0.65625,0.828125 0,0.6875 -0.5,2.046875 -0.734375,2.703125 -0.109375,0.28125 -0.171875,0.4375 -0.171875,0.65625 0,0.53125 0.375,0.96875 0.953125,0.96875 1.109375,0 1.53125,-1.765625 1.53125,-1.828125 0,-0.0625 -0.046875,-0.109375 -0.125,-0.109375 -0.109375,0 -0.125,0.03125 -0.1875,0.234375 C 6.0625,-0.59375 5.609375,-0.125 5.140625,-0.125 c -0.125,0 -0.3125,0 -0.3125,-0.390625 0,-0.296875 0.125,-0.65625 0.203125,-0.828125 C 5.265625,-2 5.765625,-3.328125 5.765625,-4.015625 c 0,-0.71875 -0.40625,-1.25 -1.3125,-1.25 -1.078125,0 -1.625,0.75 -1.84375,1.046875 -0.046875,-0.6875 -0.53125,-1.046875 -1.0625,-1.046875 -0.375,0 -0.640625,0.21875 -0.84375,0.625 -0.21875,0.4375 -0.375,1.15625 -0.375,1.203125 0,0.046875 0.046875,0.109375 0.125,0.109375 0.09375,0 0.109375,-0.015625 0.1875,-0.296875 0.1875,-0.71875 0.40625,-1.40625 0.875,-1.40625 0.28125,0 0.375,0.1875 0.375,0.546875 0,0.265625 -0.125,0.734375 -0.203125,1.109375 l -0.34375,1.28125 c -0.046875,0.234375 -0.171875,0.765625 -0.234375,0.984375 -0.078125,0.3125 -0.21875,0.875 -0.21875,0.9375 0,0.15625 0.140625,0.296875 0.3125,0.296875 0.140625,0 0.3125,-0.078125 0.40625,-0.25 C 1.640625,-0.1875 1.75,-0.609375 1.8125,-0.84375 l 0.25,-1.078125 z m 0,0"
             id="path2260"
             style="stroke:none;stroke-width:0.425197;stroke-dasharray:none;stroke-opacity:1" />
        </g>
      </g>
      <g
         fill="#000000"
         fill-opacity="1"
         id="g37"
         transform="matrix(0.352778,0,0,0.352778,-0.308681,0.087533)"
         style="stroke:none;stroke-width:0.425197;stroke-dasharray:none;stroke-opacity:1">
        <g
           id="use35"
           transform="translate(16.903,7.7049999)"
           style="stroke:none;stroke-width:0.425197;stroke-dasharray:none;stroke-opacity:1">
          <path
             d="m 7.875,-2.75 c 0.203125,0 0.421875,0 0.421875,-0.234375 0,-0.25 -0.21875,-0.25 -0.421875,-0.25 H 1.40625 c -0.203125,0 -0.421875,0 -0.421875,0.25 0,0.234375 0.21875,0.234375 0.421875,0.234375 z m 0,0"
             id="path2265"
             style="stroke:none;stroke-width:0.425197;stroke-dasharray:none;stroke-opacity:1" />
        </g>
      </g>
      <g
         fill="#000000"
         fill-opacity="1"
         id="g41"
         transform="matrix(0.352778,0,0,0.352778,-0.308681,0.087533)"
         style="stroke:none;stroke-width:0.425197;stroke-dasharray:none;stroke-opacity:1">
        <g
           id="use39"
           transform="translate(26.202,7.7049999)"
           style="stroke:none;stroke-width:0.425197;stroke-dasharray:none;stroke-opacity:1">
          <path
             d="m 3.4375,-7.65625 c 0,-0.28125 0,-0.296875 -0.234375,-0.296875 C 2.921875,-7.625 2.3125,-7.1875 1.09375,-7.1875 v 0.34375 c 0.265625,0 0.859375,0 1.53125,-0.296875 v 6.21875 c 0,0.4375 -0.046875,0.578125 -1.09375,0.578125 h -0.375 V 0 c 0.328125,-0.03125 1.484375,-0.03125 1.875,-0.03125 0.40625,0 1.546875,0 1.875,0.03125 v -0.34375 h -0.375 c -1.046875,0 -1.09375,-0.140625 -1.09375,-0.578125 z m 0,0"
             id="path2269"
             style="stroke:none;stroke-width:0.425197;stroke-dasharray:none;stroke-opacity:1" />
        </g>
      </g>
    </g>
    <g
       inkscape:label=""
       transform="translate(127.24424,117.69812)"
       id="g2472"
       style="stroke:none;stroke-width:0.15;stroke-dasharray:none;stroke-opacity:1">
      <g
         clip-path="url(#clipPath923-2-6)"
         id="g21"
         transform="matrix(0.352778,0,0,0.352778,-0.308681,-0.0149047)"
         style="stroke:none;stroke-width:0.425197;stroke-dasharray:none;stroke-opacity:1">
        <g
           fill="#000000"
           fill-opacity="1"
           id="g19"
           style="stroke:none;stroke-width:0.425197;stroke-dasharray:none;stroke-opacity:1">
          <g
             id="use17"
             transform="translate(0,11.761)"
             style="stroke:none;stroke-width:0.425197;stroke-dasharray:none;stroke-opacity:1">
            <path
               d="M 8.921875,-11.71875 H 0.875 v 0.4375 c 1.1875,0 1.375,0 1.375,0.78125 v 9.28125 c 0,0.765625 -0.1875,0.765625 -1.375,0.765625 V 0 c 0.5,-0.03125 1.46875,-0.03125 2,-0.03125 0.703125,0 1.53125,0 2.234375,0.03125 v -0.453125 h -0.375 c -1.3125,0 -1.34375,-0.171875 -1.34375,-0.78125 v -9.375 c 0,-0.578125 0.03125,-0.671875 0.71875,-0.671875 h 1.90625 c 2.609375,0 2.75,1.203125 3,3.359375 h 0.3125 z m 0,0"
               id="path31"
               style="stroke:none;stroke-width:0.425197;stroke-dasharray:none;stroke-opacity:1" />
          </g>
        </g>
      </g>
      <g
         fill="#000000"
         fill-opacity="1"
         id="g25"
         transform="matrix(0.352778,0,0,0.352778,-0.308681,-0.0149047)"
         style="stroke:none;stroke-width:0.425197;stroke-dasharray:none;stroke-opacity:1">
        <g
           id="use23"
           transform="translate(9.915,5.5139999)"
           style="stroke:none;stroke-width:0.425197;stroke-dasharray:none;stroke-opacity:1">
          <path
             d="M 2.46875,-3.5 C 2.484375,-3.578125 2.78125,-4.171875 3.234375,-4.546875 3.53125,-4.84375 3.9375,-5.03125 4.40625,-5.03125 c 0.484375,0 0.65625,0.359375 0.65625,0.828125 0,0.6875 -0.5,2.046875 -0.734375,2.703125 -0.109375,0.28125 -0.171875,0.4375 -0.171875,0.65625 0,0.53125 0.375,0.96875 0.953125,0.96875 1.109375,0 1.53125,-1.765625 1.53125,-1.828125 0,-0.0625 -0.046875,-0.109375 -0.125,-0.109375 -0.109375,0 -0.125,0.03125 -0.1875,0.234375 C 6.0625,-0.59375 5.609375,-0.125 5.140625,-0.125 c -0.125,0 -0.3125,0 -0.3125,-0.390625 0,-0.296875 0.125,-0.65625 0.203125,-0.828125 C 5.265625,-2 5.765625,-3.328125 5.765625,-4.015625 c 0,-0.71875 -0.40625,-1.25 -1.3125,-1.25 -1.078125,0 -1.625,0.75 -1.84375,1.046875 -0.046875,-0.6875 -0.53125,-1.046875 -1.0625,-1.046875 -0.375,0 -0.640625,0.21875 -0.84375,0.625 -0.21875,0.4375 -0.375,1.15625 -0.375,1.203125 0,0.046875 0.046875,0.109375 0.125,0.109375 0.09375,0 0.109375,-0.015625 0.1875,-0.296875 0.1875,-0.71875 0.40625,-1.40625 0.875,-1.40625 0.28125,0 0.375,0.1875 0.375,0.546875 0,0.265625 -0.125,0.734375 -0.203125,1.109375 l -0.34375,1.28125 c -0.046875,0.234375 -0.171875,0.765625 -0.234375,0.984375 -0.078125,0.3125 -0.21875,0.875 -0.21875,0.9375 0,0.15625 0.140625,0.296875 0.3125,0.296875 0.140625,0 0.3125,-0.078125 0.40625,-0.25 C 1.640625,-0.1875 1.75,-0.609375 1.8125,-0.84375 l 0.25,-1.078125 z m 0,0"
             id="path35"
             style="stroke:none;stroke-width:0.425197;stroke-dasharray:none;stroke-opacity:1" />
        </g>
      </g>
    </g>
    <g
       inkscape:label=""
       transform="translate(114.38039,137.97619)"
       id="g1773"
       style="stroke:none;stroke-width:0.15;stroke-dasharray:none;stroke-opacity:1">
      <g
         fill="#000000"
         fill-opacity="1"
         id="g23"
         transform="matrix(0.352778,0,0,0.352778,-0.28112,5.73285e-4)"
         style="stroke:none;stroke-width:0.425197;stroke-dasharray:none;stroke-opacity:1">
        <g
           id="use21"
           transform="translate(0,11.764)"
           style="stroke:none;stroke-width:0.425197;stroke-dasharray:none;stroke-opacity:1">
          <path
             d="m 8.609375,-6.953125 c -0.015625,-0.0625 -0.09375,-0.1875 -0.09375,-0.25 0,-0.015625 0.03125,-0.03125 0.3125,-0.25 L 10.5,-8.765625 c 2.3125,-1.796875 3.0625,-2.390625 4.25,-2.5 0.125,-0.01563 0.296875,-0.01563 0.296875,-0.3125 0,-0.09375 -0.04687,-0.1875 -0.1875,-0.1875 -0.1875,0 -0.390625,0.04687 -0.578125,0.04687 H 13.625 c -0.53125,0 -1.109375,-0.04687 -1.625,-0.04687 -0.125,0 -0.328125,0 -0.328125,0.3125 0,0.171875 0.125,0.1875 0.21875,0.1875 0.203125,0.01563 0.421875,0.09375 0.421875,0.328125 0,0.34375 -0.515625,0.765625 -0.65625,0.859375 l -6.75,5.25 L 6.34375,-10.5 c 0.140625,-0.59375 0.1875,-0.765625 1.40625,-0.765625 0.328125,0 0.484375,0 0.484375,-0.328125 0,-0.171875 -0.171875,-0.171875 -0.265625,-0.171875 -0.3125,0 -0.671875,0.04687 -1,0.04687 H 4.9375 c -0.3125,0 -0.6875,-0.04687 -1,-0.04687 -0.125,0 -0.328125,0 -0.328125,0.328125 0,0.171875 0.15625,0.171875 0.421875,0.171875 1.046875,0 1.046875,0.140625 1.046875,0.328125 0,0.03125 0,0.140625 -0.0625,0.40625 l -2.328125,9.25 C 2.53125,-0.671875 2.5,-0.5 1.296875,-0.5 c -0.328125,0 -0.5,0 -0.5,0.3125 0,0.1875 0.15625,0.1875 0.25,0.1875 0.328125,0 0.671875,-0.03125 1,-0.03125 H 4.0625 C 4.390625,-0.03125 4.75,0 5.078125,0 5.21875,0 5.40625,0 5.40625,-0.328125 5.40625,-0.5 5.25,-0.5 5,-0.5 c -1.0625,0 -1.0625,-0.140625 -1.0625,-0.3125 0,-0.125 0.109375,-0.546875 0.171875,-0.828125 L 4.78125,-4.3125 l 2.625,-2.046875 c 0.5,1.109375 1.40625,3.3125 2.109375,5 0.0625,0.109375 0.09375,0.203125 0.09375,0.328125 0,0.515625 -0.6875,0.53125 -0.84375,0.53125 -0.15625,0 -0.328125,0 -0.328125,0.328125 C 8.4375,0 8.625,0 8.671875,0 c 0.609375,0 1.25,-0.03125 1.84375,-0.03125 H 11.34375 C 11.609375,-0.03125 11.890625,0 12.15625,0 12.265625,0 12.453125,0 12.453125,-0.328125 12.453125,-0.5 12.296875,-0.5 12.125,-0.5 11.484375,-0.515625 11.265625,-0.65625 11,-1.28125 Z m 0,0"
             id="path39"
             style="stroke:none;stroke-width:0.425197;stroke-dasharray:none;stroke-opacity:1" />
        </g>
      </g>
      <g
         fill="#000000"
         fill-opacity="1"
         id="g27"
         transform="matrix(0.352778,0,0,0.352778,-0.28112,5.73285e-4)"
         style="stroke:none;stroke-width:0.425197;stroke-dasharray:none;stroke-opacity:1">
        <g
           id="use25"
           transform="translate(15.577,5.5159998)"
           style="stroke:none;stroke-width:0.425197;stroke-dasharray:none;stroke-opacity:1">
          <path
             d="M 2.46875,-3.5 C 2.484375,-3.578125 2.78125,-4.171875 3.234375,-4.546875 3.53125,-4.84375 3.9375,-5.03125 4.40625,-5.03125 c 0.484375,0 0.65625,0.359375 0.65625,0.828125 0,0.6875 -0.5,2.046875 -0.734375,2.703125 -0.109375,0.28125 -0.171875,0.4375 -0.171875,0.65625 0,0.53125 0.375,0.96875 0.953125,0.96875 1.109375,0 1.53125,-1.765625 1.53125,-1.828125 0,-0.0625 -0.046875,-0.109375 -0.125,-0.109375 -0.109375,0 -0.125,0.03125 -0.1875,0.234375 C 6.0625,-0.59375 5.609375,-0.125 5.140625,-0.125 c -0.125,0 -0.3125,0 -0.3125,-0.390625 0,-0.296875 0.125,-0.65625 0.203125,-0.828125 C 5.265625,-2 5.765625,-3.328125 5.765625,-4.015625 c 0,-0.71875 -0.40625,-1.25 -1.3125,-1.25 -1.078125,0 -1.625,0.75 -1.84375,1.046875 -0.046875,-0.6875 -0.53125,-1.046875 -1.0625,-1.046875 -0.375,0 -0.640625,0.21875 -0.84375,0.625 -0.21875,0.4375 -0.375,1.15625 -0.375,1.203125 0,0.046875 0.046875,0.109375 0.125,0.109375 0.09375,0 0.109375,-0.015625 0.1875,-0.296875 0.1875,-0.71875 0.40625,-1.40625 0.875,-1.40625 0.28125,0 0.375,0.1875 0.375,0.546875 0,0.265625 -0.125,0.734375 -0.203125,1.109375 l -0.34375,1.28125 c -0.046875,0.234375 -0.171875,0.765625 -0.234375,0.984375 -0.078125,0.3125 -0.21875,0.875 -0.21875,0.9375 0,0.15625 0.140625,0.296875 0.3125,0.296875 0.140625,0 0.3125,-0.078125 0.40625,-0.25 C 1.640625,-0.1875 1.75,-0.609375 1.8125,-0.84375 l 0.25,-1.078125 z m 0,0"
             id="path43"
             style="stroke:none;stroke-width:0.425197;stroke-dasharray:none;stroke-opacity:1" />
        </g>
      </g>
      <g
         clip-path="url(#clipPath6172-3-3-3)"
         id="g33"
         transform="matrix(0.352778,0,0,0.352778,-0.28112,5.73285e-4)"
         style="stroke:none;stroke-width:0.425197;stroke-dasharray:none;stroke-opacity:1">
        <g
           fill="#000000"
           fill-opacity="1"
           id="g31"
           style="stroke:none;stroke-width:0.425197;stroke-dasharray:none;stroke-opacity:1">
          <g
             id="use29"
             transform="translate(14.341,16.09)"
             style="stroke:none;stroke-width:0.425197;stroke-dasharray:none;stroke-opacity:1">
            <path
               d="m 3.4375,-7.65625 c 0,-0.28125 0,-0.296875 -0.234375,-0.296875 C 2.921875,-7.625 2.3125,-7.1875 1.09375,-7.1875 v 0.34375 c 0.265625,0 0.859375,0 1.53125,-0.296875 v 6.21875 c 0,0.4375 -0.046875,0.578125 -1.09375,0.578125 h -0.375 V 0 c 0.328125,-0.03125 1.484375,-0.03125 1.875,-0.03125 0.40625,0 1.546875,0 1.875,0.03125 v -0.34375 h -0.375 c -1.046875,0 -1.09375,-0.140625 -1.09375,-0.578125 z m 0,0"
               id="path47"
               style="stroke:none;stroke-width:0.425197;stroke-dasharray:none;stroke-opacity:1" />
          </g>
        </g>
      </g>
    </g>
    <ellipse
       style="fill:#000000;fill-opacity:1;fill-rule:evenodd;stroke:#140000;stroke-width:0.578725;stroke-dasharray:none;stroke-dashoffset:0;stroke-opacity:1;paint-order:stroke fill markers"
       id="path3450-1"
       cx="72.574814"
       cy="88.847092"
       rx="0.71063763"
       ry="0.71063745" />
  </g>
</svg>
