<?xml version="1.0" encoding="UTF-8" standalone="no"?>
<!-- Created with Inkscape (http://www.inkscape.org/) -->

<svg
   width="271.72769mm"
   height="71.435059mm"
   viewBox="0 0 271.72769 71.435058"
   version="1.1"
   id="svg5"
   sodipodi:docname="overlap_interface.svg"
   inkscape:version="1.2.2 (b0a8486, 2022-12-01)"
   xmlns:inkscape="http://www.inkscape.org/namespaces/inkscape"
   xmlns:sodipodi="http://sodipodi.sourceforge.net/DTD/sodipodi-0.dtd"
   xmlns="http://www.w3.org/2000/svg"
   xmlns:svg="http://www.w3.org/2000/svg">
  <sodipodi:namedview
     id="namedview7"
     pagecolor="#ffffff"
     bordercolor="#000000"
     borderopacity="0.25"
     inkscape:showpageshadow="2"
     inkscape:pageopacity="0.0"
     inkscape:pagecheckerboard="0"
     inkscape:deskcolor="#d1d1d1"
     inkscape:document-units="mm"
     showgrid="false"
     inkscape:zoom="0.79196829"
     inkscape:cx="484.23656"
     inkscape:cy="49.875734"
     inkscape:window-width="1858"
     inkscape:window-height="1016"
     inkscape:window-x="1982"
     inkscape:window-y="27"
     inkscape:window-maximized="1"
     inkscape:current-layer="layer1" />
  <defs
     id="defs2">
    <clipPath
       id="clipPath6172">
      <path
         clip-rule="nonzero"
         d="m 15,8 h 5 v 8.089844 h -5 z m 0,0"
         id="path1338" />
    </clipPath>
    <clipPath
       id="clipPath3861">
      <path
         clip-rule="nonzero"
         d="m 14,8 h 6 v 8.089844 h -6 z m 0,0"
         id="path2467" />
    </clipPath>
    <clipPath
       id="clipPath3317">
      <path
         clip-rule="nonzero"
         d="m 14,11 h 6 v 8.273438 h -6 z m 0,0"
         id="path1784" />
    </clipPath>
    <clipPath
       id="clipPath649">
      <path
         clip-rule="nonzero"
         d="m 15,11 h 5 v 8.273438 h -5 z m 0,0"
         id="path6692" />
    </clipPath>
    <clipPath
       id="clipPath1789">
      <path
         clip-rule="nonzero"
         d="M 0,2 H 10 V 13.953125 H 0 Z m 0,0"
         id="path5610" />
    </clipPath>
    <clipPath
       id="clipPath923">
      <path
         clip-rule="nonzero"
         d="M 0,0 H 10 V 11.761719 H 0 Z m 0,0"
         id="path8320" />
    </clipPath>
    <clipPath
       id="clipPath6172-3">
      <path
         clip-rule="nonzero"
         d="m 15,8 h 5 v 8.089844 h -5 z m 0,0"
         id="path1338-6" />
    </clipPath>
    <clipPath
       id="clipPath3861-7">
      <path
         clip-rule="nonzero"
         d="m 14,8 h 6 v 8.089844 h -6 z m 0,0"
         id="path2467-5" />
    </clipPath>
    <clipPath
       id="clipPath3317-3">
      <path
         clip-rule="nonzero"
         d="m 14,11 h 6 v 8.273438 h -6 z m 0,0"
         id="path1784-5" />
    </clipPath>
    <clipPath
       id="clipPath649-6">
      <path
         clip-rule="nonzero"
         d="m 15,11 h 5 v 8.273438 h -5 z m 0,0"
         id="path6692-2" />
    </clipPath>
    <clipPath
       id="clipPath1789-9">
      <path
         clip-rule="nonzero"
         d="M 0,2 H 10 V 13.953125 H 0 Z m 0,0"
         id="path5610-1" />
    </clipPath>
    <clipPath
       id="clipPath923-2">
      <path
         clip-rule="nonzero"
         d="M 0,0 H 10 V 11.761719 H 0 Z m 0,0"
         id="path8320-7" />
    </clipPath>
    <clipPath
       id="clipPath6172-3-3">
      <path
         clip-rule="nonzero"
         d="m 15,8 h 5 v 8.089844 h -5 z m 0,0"
         id="path1338-6-7" />
    </clipPath>
    <clipPath
       id="clipPath3861-7-5">
      <path
         clip-rule="nonzero"
         d="m 14,8 h 6 v 8.089844 h -6 z m 0,0"
         id="path2467-5-9" />
    </clipPath>
    <clipPath
       id="clipPath3317-3-2">
      <path
         clip-rule="nonzero"
         d="m 14,11 h 6 v 8.273438 h -6 z m 0,0"
         id="path1784-5-2" />
    </clipPath>
    <clipPath
       id="clipPath649-6-8">
      <path
         clip-rule="nonzero"
         d="m 15,11 h 5 v 8.273438 h -5 z m 0,0"
         id="path6692-2-9" />
    </clipPath>
    <clipPath
       id="clipPath1789-9-7">
      <path
         clip-rule="nonzero"
         d="M 0,2 H 10 V 13.953125 H 0 Z m 0,0"
         id="path5610-1-3" />
    </clipPath>
    <clipPath
       id="clipPath923-2-6">
      <path
         clip-rule="nonzero"
         d="M 0,0 H 10 V 11.761719 H 0 Z m 0,0"
         id="path8320-7-1" />
    </clipPath>
    <clipPath
       id="clipPath6172-3-3-3">
      <path
         clip-rule="nonzero"
         d="m 15,8 h 5 v 8.089844 h -5 z m 0,0"
         id="path1338-6-7-1" />
    </clipPath>
    <clipPath
       id="clipPath3861-7-5-9">
      <path
         clip-rule="nonzero"
         d="m 14,8 h 6 v 8.089844 h -6 z m 0,0"
         id="path2467-5-9-4" />
    </clipPath>
    <clipPath
       id="clipPath923-2-6-7">
      <path
         clip-rule="nonzero"
         d="M 0,0 H 10 V 11.761719 H 0 Z m 0,0"
         id="path8320-7-1-8" />
    </clipPath>
    <clipPath
       id="clipPath6172-3-3-3-4">
      <path
         clip-rule="nonzero"
         d="m 15,8 h 5 v 8.089844 h -5 z m 0,0"
         id="path1338-6-7-1-5" />
    </clipPath>
    <clipPath
       id="clipPath5725">
      <path
         clip-rule="nonzero"
         d="m 15,17 h 5 v 8.183594 h -5 z m 0,0"
         id="path147" />
    </clipPath>
    <clipPath
       id="clipPath806">
      <path
         clip-rule="nonzero"
         d="m 14,17 h 6 v 8.183594 h -6 z m 0,0"
         id="path5373" />
    </clipPath>
    <clipPath
       id="clipPath2160">
      <path
         clip-rule="nonzero"
         d="m 14,17 h 6 v 8.183594 h -6 z m 0,0"
         id="path4166" />
    </clipPath>
    <clipPath
       id="clipPath5300">
      <path
         clip-rule="nonzero"
         d="m 14,17 h 6 v 8.183594 h -6 z m 0,0"
         id="path9194" />
    </clipPath>
  </defs>
  <g
     inkscape:label="图层 1"
     inkscape:groupmode="layer"
     id="layer1"
     transform="translate(0, 0.00299311)">
    <rect
       style="fill:none;fill-rule:evenodd;stroke:#140000;stroke-width:0.458599;stroke-dasharray:none;stroke-dashoffset:0;stroke-opacity:1;paint-order:stroke fill markers"
       id="rect234"
       width="69.483063"
       height="69.538177"
       x="0.97184372"
       y="0.91662598"
       ry="0.2629396" />
    <path
       style="fill:none;fill-rule:evenodd;stroke:#000000;stroke-width:0.461822;stroke-dasharray:none;stroke-dashoffset:0;stroke-opacity:1;paint-order:stroke fill markers"
       d="M 1.0440728,18.798706 70.655352,48.836126"
       id="path961" />
    <path
       style="fill:none;fill-rule:evenodd;stroke:#000000;stroke-width:0.461822;stroke-dasharray:none;stroke-dashoffset:0;stroke-opacity:1;paint-order:stroke fill markers"
       d="m 201.07755,18.798828 69.61128,30.03742"
       id="path961-1" />
    <circle
       style="fill:#000000;fill-opacity:1;fill-rule:evenodd;stroke:none;stroke-width:0.820097;stroke-dasharray:none;stroke-dashoffset:0;stroke-opacity:1;paint-order:stroke fill markers"
       id="path3450"
       cx="1.1213303"
       cy="1.0568314"
       r="1" />
    <circle
       style="fill:#000000;fill-opacity:1;fill-rule:evenodd;stroke:none;stroke-width:0.820097;stroke-dasharray:none;stroke-dashoffset:0;stroke-opacity:1;paint-order:stroke fill markers"
       id="path3450-0"
       cx="1.0295296"
       cy="18.822639"
       r="1" />
    <circle
       style="fill:#000000;fill-opacity:1;fill-rule:evenodd;stroke:none;stroke-width:0.820097;stroke-dasharray:none;stroke-dashoffset:0;stroke-opacity:1;paint-order:stroke fill markers"
       id="path3450-9"
       cx="1"
       cy="70.350861"
       r="1" />
    <circle
       style="fill:#000000;fill-opacity:1;fill-rule:evenodd;stroke:none;stroke-width:0.820097;stroke-dasharray:none;stroke-dashoffset:0;stroke-opacity:1;paint-order:stroke fill markers"
       id="path3450-3"
       cx="70.356392"
       cy="70.432068"
       r="1" />
    <circle
       style="fill:#000000;fill-opacity:1;fill-rule:evenodd;stroke:none;stroke-width:0.820097;stroke-dasharray:none;stroke-dashoffset:0;stroke-opacity:1;paint-order:stroke fill markers"
       id="path3450-6"
       cx="70.414742"
       cy="48.682693"
       r="1" />
    <ellipse
       style="fill:#000000;fill-opacity:1;fill-rule:evenodd;stroke:#140000;stroke-width:0.578725;stroke-dasharray:none;stroke-dashoffset:0;stroke-opacity:1;paint-order:stroke fill markers"
       id="path3450-06"
       cx="70.377808"
       cy="1.0945214"
       rx="0.71063763"
       ry="0.71063745" />
    <rect
       style="fill:none;fill-rule:evenodd;stroke:#140000;stroke-width:0.458599;stroke-dasharray:none;stroke-dashoffset:0;stroke-opacity:1;paint-order:stroke fill markers"
       id="rect234-2"
       width="69.483063"
       height="69.538177"
       x="100.97185"
       y="0.91661835"
       ry="0.2629396" />
    <ellipse
       style="fill:#000000;fill-opacity:1;fill-rule:evenodd;stroke:#140000;stroke-width:0.578725;stroke-dasharray:none;stroke-dashoffset:0;stroke-opacity:1;paint-order:stroke fill markers"
       id="path3450-1-4"
       cx="170.46597"
       cy="1.1379482"
       rx="0.71063763"
       ry="0.71063745" />
    <path
       style="fill:none;fill-rule:evenodd;stroke:#000000;stroke-width:0.461822;stroke-dasharray:none;stroke-dashoffset:0;stroke-opacity:1;paint-order:stroke fill markers"
       d="M 101.03995,59.003838 170.41703,19.698386"
       id="path961-6"
       sodipodi:nodetypes="cc" />
    <circle
       style="fill:#000000;fill-opacity:1;fill-rule:evenodd;stroke:none;stroke-width:0.820097;stroke-dasharray:none;stroke-dashoffset:0;stroke-opacity:1;paint-order:stroke fill markers"
       id="path3450-9-7"
       cx="101"
       cy="70.350861"
       r="1" />
    <circle
       style="fill:#000000;fill-opacity:1;fill-rule:evenodd;stroke:none;stroke-width:0.820097;stroke-dasharray:none;stroke-dashoffset:0;stroke-opacity:1;paint-order:stroke fill markers"
       id="path3450-3-9"
       cx="170.35638"
       cy="70.432068"
       r="1" />
    <circle
       style="fill:#000000;fill-opacity:1;fill-rule:evenodd;stroke:none;stroke-width:0.820097;stroke-dasharray:none;stroke-dashoffset:0;stroke-opacity:1;paint-order:stroke fill markers"
       id="path3450-0-8"
       cx="101.01894"
       cy="58.969543"
       r="1" />
    <circle
       style="fill:#000000;fill-opacity:1;fill-rule:evenodd;stroke:none;stroke-width:0.820097;stroke-dasharray:none;stroke-dashoffset:0;stroke-opacity:1;paint-order:stroke fill markers"
       id="path3450-0-8-2"
       cx="170.44177"
       cy="19.695887"
       r="1" />
    <g
       inkscape:label=""
       transform="translate(125.09693,16.376484)"
       id="g1848"
       style="stroke:#140000;stroke-width:0.15;stroke-dasharray:none;stroke-opacity:1">
      <g
         fill="#000000"
         fill-opacity="1"
         id="g1832"
         transform="matrix(0.352778,0,0,0.352778,-0.28112,5.73285e-4)"
         style="stroke:#140000;stroke-width:0.42519658;stroke-dasharray:none;stroke-opacity:1">
        <g
           id="g1830"
           transform="translate(0,11.764)"
           style="stroke:#140000;stroke-width:0.42519658;stroke-dasharray:none;stroke-opacity:1">
          <path
             d="m 8.609375,-6.953125 c -0.015625,-0.0625 -0.09375,-0.1875 -0.09375,-0.25 0,-0.015625 0.03125,-0.03125 0.3125,-0.25 L 10.5,-8.765625 c 2.3125,-1.796875 3.0625,-2.390625 4.25,-2.5 0.125,-0.01563 0.296875,-0.01563 0.296875,-0.3125 0,-0.09375 -0.04687,-0.1875 -0.1875,-0.1875 -0.1875,0 -0.390625,0.04687 -0.578125,0.04687 H 13.625 c -0.53125,0 -1.109375,-0.04687 -1.625,-0.04687 -0.125,0 -0.328125,0 -0.328125,0.3125 0,0.171875 0.125,0.1875 0.21875,0.1875 0.203125,0.01563 0.421875,0.09375 0.421875,0.328125 0,0.34375 -0.515625,0.765625 -0.65625,0.859375 l -6.75,5.25 L 6.34375,-10.5 c 0.140625,-0.59375 0.1875,-0.765625 1.40625,-0.765625 0.328125,0 0.484375,0 0.484375,-0.328125 0,-0.171875 -0.171875,-0.171875 -0.265625,-0.171875 -0.3125,0 -0.671875,0.04687 -1,0.04687 H 4.9375 c -0.3125,0 -0.6875,-0.04687 -1,-0.04687 -0.125,0 -0.328125,0 -0.328125,0.328125 0,0.171875 0.15625,0.171875 0.421875,0.171875 1.046875,0 1.046875,0.140625 1.046875,0.328125 0,0.03125 0,0.140625 -0.0625,0.40625 l -2.328125,9.25 C 2.53125,-0.671875 2.5,-0.5 1.296875,-0.5 c -0.328125,0 -0.5,0 -0.5,0.3125 0,0.1875 0.15625,0.1875 0.25,0.1875 0.328125,0 0.671875,-0.03125 1,-0.03125 H 4.0625 C 4.390625,-0.03125 4.75,0 5.078125,0 5.21875,0 5.40625,0 5.40625,-0.328125 5.40625,-0.5 5.25,-0.5 5,-0.5 c -1.0625,0 -1.0625,-0.140625 -1.0625,-0.3125 0,-0.125 0.109375,-0.546875 0.171875,-0.828125 L 4.78125,-4.3125 l 2.625,-2.046875 c 0.5,1.109375 1.40625,3.3125 2.109375,5 0.0625,0.109375 0.09375,0.203125 0.09375,0.328125 0,0.515625 -0.6875,0.53125 -0.84375,0.53125 -0.15625,0 -0.328125,0 -0.328125,0.328125 C 8.4375,0 8.625,0 8.671875,0 c 0.609375,0 1.25,-0.03125 1.84375,-0.03125 H 11.34375 C 11.609375,-0.03125 11.890625,0 12.15625,0 12.265625,0 12.453125,0 12.453125,-0.328125 12.453125,-0.5 12.296875,-0.5 12.125,-0.5 11.484375,-0.515625 11.265625,-0.65625 11,-1.28125 Z m 0,0"
             id="path1828"
             style="stroke:#140000;stroke-width:0.42519658;stroke-dasharray:none;stroke-opacity:1" />
        </g>
      </g>
      <g
         fill="#000000"
         fill-opacity="1"
         id="g1838"
         transform="matrix(0.352778,0,0,0.352778,-0.28112,5.73285e-4)"
         style="stroke:#140000;stroke-width:0.42519658;stroke-dasharray:none;stroke-opacity:1">
        <g
           id="g1836"
           transform="translate(15.577,5.5159998)"
           style="stroke:#140000;stroke-width:0.42519658;stroke-dasharray:none;stroke-opacity:1">
          <path
             d="M 2.46875,-3.5 C 2.484375,-3.578125 2.78125,-4.171875 3.234375,-4.546875 3.53125,-4.84375 3.9375,-5.03125 4.40625,-5.03125 c 0.484375,0 0.65625,0.359375 0.65625,0.828125 0,0.6875 -0.5,2.046875 -0.734375,2.703125 -0.109375,0.28125 -0.171875,0.4375 -0.171875,0.65625 0,0.53125 0.375,0.96875 0.953125,0.96875 1.109375,0 1.53125,-1.765625 1.53125,-1.828125 0,-0.0625 -0.046875,-0.109375 -0.125,-0.109375 -0.109375,0 -0.125,0.03125 -0.1875,0.234375 C 6.0625,-0.59375 5.609375,-0.125 5.140625,-0.125 c -0.125,0 -0.3125,0 -0.3125,-0.390625 0,-0.296875 0.125,-0.65625 0.203125,-0.828125 C 5.265625,-2 5.765625,-3.328125 5.765625,-4.015625 c 0,-0.71875 -0.40625,-1.25 -1.3125,-1.25 -1.078125,0 -1.625,0.75 -1.84375,1.046875 -0.046875,-0.6875 -0.53125,-1.046875 -1.0625,-1.046875 -0.375,0 -0.640625,0.21875 -0.84375,0.625 -0.21875,0.4375 -0.375,1.15625 -0.375,1.203125 0,0.046875 0.046875,0.109375 0.125,0.109375 0.09375,0 0.109375,-0.015625 0.1875,-0.296875 0.1875,-0.71875 0.40625,-1.40625 0.875,-1.40625 0.28125,0 0.375,0.1875 0.375,0.546875 0,0.265625 -0.125,0.734375 -0.203125,1.109375 l -0.34375,1.28125 c -0.046875,0.234375 -0.171875,0.765625 -0.234375,0.984375 -0.078125,0.3125 -0.21875,0.875 -0.21875,0.9375 0,0.15625 0.140625,0.296875 0.3125,0.296875 0.140625,0 0.3125,-0.078125 0.40625,-0.25 C 1.640625,-0.1875 1.75,-0.609375 1.8125,-0.84375 l 0.25,-1.078125 z m 0,0"
             id="path1834"
             style="stroke:#140000;stroke-width:0.42519658;stroke-dasharray:none;stroke-opacity:1" />
        </g>
      </g>
      <g
         clip-path="url(#clipPath3861-7-5)"
         id="g1846"
         transform="matrix(0.352778,0,0,0.352778,-0.28112,5.73285e-4)"
         style="stroke:#140000;stroke-width:0.42519658;stroke-dasharray:none;stroke-opacity:1">
        <g
           fill="#000000"
           fill-opacity="1"
           id="g1844"
           style="stroke:#140000;stroke-width:0.42519658;stroke-dasharray:none;stroke-opacity:1">
          <g
             id="g1842"
             transform="translate(14.341,16.09)"
             style="stroke:#140000;stroke-width:0.42519658;stroke-dasharray:none;stroke-opacity:1">
            <path
               d="M 5.265625,-2.015625 H 5 c -0.046875,0.203125 -0.140625,0.875 -0.25,1.0625 C 4.65625,-0.84375 3.984375,-0.84375 3.625,-0.84375 H 1.40625 c 0.328125,-0.28125 1.0625,-1.046875 1.359375,-1.328125 1.828125,-1.671875 2.5,-2.296875 2.5,-3.484375 0,-1.375 -1.09375,-2.296875 -2.484375,-2.296875 -1.375,0 -2.203125,1.1875 -2.203125,2.21875 0,0.609375 0.53125,0.609375 0.5625,0.609375 0.265625,0 0.5625,-0.1875 0.5625,-0.5625 0,-0.34375 -0.21875,-0.5625 -0.5625,-0.5625 -0.09375,0 -0.125,0 -0.15625,0.015625 0.21875,-0.8125 0.875,-1.375 1.640625,-1.375 1.015625,0 1.640625,0.859375 1.640625,1.953125 C 4.265625,-4.640625 3.6875,-3.75 3,-2.984375 L 0.578125,-0.28125 V 0 h 4.375 z m 0,0"
               id="path1840"
               style="stroke:#140000;stroke-width:0.42519658;stroke-dasharray:none;stroke-opacity:1" />
          </g>
        </g>
      </g>
    </g>
    <g
       inkscape:label=""
       transform="translate(37.360436,10.775999)"
       id="g1945"
       style="stroke:#140000;stroke-width:0.15;stroke-dasharray:none;stroke-opacity:1">
      <g
         fill="#000000"
         fill-opacity="1"
         id="g30"
         transform="matrix(0.352778,0,0,0.352778,-0.28112,0.0878858)"
         style="stroke:#140000;stroke-width:0.42519658;stroke-dasharray:none;stroke-opacity:1">
        <g
           id="use28"
           transform="translate(0,14.63)"
           style="stroke:#140000;stroke-width:0.42519658;stroke-dasharray:none;stroke-opacity:1">
          <path
             d="m 8.609375,-6.953125 c -0.015625,-0.0625 -0.09375,-0.1875 -0.09375,-0.25 0,-0.015625 0.03125,-0.03125 0.3125,-0.25 L 10.5,-8.765625 c 2.3125,-1.796875 3.0625,-2.390625 4.25,-2.5 0.125,-0.01563 0.296875,-0.01563 0.296875,-0.3125 0,-0.09375 -0.04687,-0.1875 -0.1875,-0.1875 -0.1875,0 -0.390625,0.04687 -0.578125,0.04687 H 13.625 c -0.53125,0 -1.109375,-0.04687 -1.625,-0.04687 -0.125,0 -0.328125,0 -0.328125,0.3125 0,0.171875 0.125,0.1875 0.21875,0.1875 0.203125,0.01563 0.421875,0.09375 0.421875,0.328125 0,0.34375 -0.515625,0.765625 -0.65625,0.859375 l -6.75,5.25 L 6.34375,-10.5 c 0.140625,-0.59375 0.1875,-0.765625 1.40625,-0.765625 0.328125,0 0.484375,0 0.484375,-0.328125 0,-0.171875 -0.171875,-0.171875 -0.265625,-0.171875 -0.3125,0 -0.671875,0.04687 -1,0.04687 H 4.9375 c -0.3125,0 -0.6875,-0.04687 -1,-0.04687 -0.125,0 -0.328125,0 -0.328125,0.328125 0,0.171875 0.15625,0.171875 0.421875,0.171875 1.046875,0 1.046875,0.140625 1.046875,0.328125 0,0.03125 0,0.140625 -0.0625,0.40625 l -2.328125,9.25 C 2.53125,-0.671875 2.5,-0.5 1.296875,-0.5 c -0.328125,0 -0.5,0 -0.5,0.3125 0,0.1875 0.15625,0.1875 0.25,0.1875 0.328125,0 0.671875,-0.03125 1,-0.03125 H 4.0625 C 4.390625,-0.03125 4.75,0 5.078125,0 5.21875,0 5.40625,0 5.40625,-0.328125 5.40625,-0.5 5.25,-0.5 5,-0.5 c -1.0625,0 -1.0625,-0.140625 -1.0625,-0.3125 0,-0.125 0.109375,-0.546875 0.171875,-0.828125 L 4.78125,-4.3125 l 2.625,-2.046875 c 0.5,1.109375 1.40625,3.3125 2.109375,5 0.0625,0.109375 0.09375,0.203125 0.09375,0.328125 0,0.515625 -0.6875,0.53125 -0.84375,0.53125 -0.15625,0 -0.328125,0 -0.328125,0.328125 C 8.4375,0 8.625,0 8.671875,0 c 0.609375,0 1.25,-0.03125 1.84375,-0.03125 H 11.34375 C 11.609375,-0.03125 11.890625,0 12.15625,0 12.265625,0 12.453125,0 12.453125,-0.328125 12.453125,-0.5 12.296875,-0.5 12.125,-0.5 11.484375,-0.515625 11.265625,-0.65625 11,-1.28125 Z m 0,0"
             id="path54"
             style="stroke:#140000;stroke-width:0.42519658;stroke-dasharray:none;stroke-opacity:1" />
        </g>
      </g>
      <g
         fill="#000000"
         fill-opacity="1"
         id="g34"
         transform="matrix(0.352778,0,0,0.352778,-0.28112,0.0878858)"
         style="stroke:#140000;stroke-width:0.42519658;stroke-dasharray:none;stroke-opacity:1">
        <g
           id="use32"
           transform="translate(15.577,7.704)"
           style="stroke:#140000;stroke-width:0.42519658;stroke-dasharray:none;stroke-opacity:1">
          <path
             d="M 2.46875,-3.5 C 2.484375,-3.578125 2.78125,-4.171875 3.234375,-4.546875 3.53125,-4.84375 3.9375,-5.03125 4.40625,-5.03125 c 0.484375,0 0.65625,0.359375 0.65625,0.828125 0,0.6875 -0.5,2.046875 -0.734375,2.703125 -0.109375,0.28125 -0.171875,0.4375 -0.171875,0.65625 0,0.53125 0.375,0.96875 0.953125,0.96875 1.109375,0 1.53125,-1.765625 1.53125,-1.828125 0,-0.0625 -0.046875,-0.109375 -0.125,-0.109375 -0.109375,0 -0.125,0.03125 -0.1875,0.234375 C 6.0625,-0.59375 5.609375,-0.125 5.140625,-0.125 c -0.125,0 -0.3125,0 -0.3125,-0.390625 0,-0.296875 0.125,-0.65625 0.203125,-0.828125 C 5.265625,-2 5.765625,-3.328125 5.765625,-4.015625 c 0,-0.71875 -0.40625,-1.25 -1.3125,-1.25 -1.078125,0 -1.625,0.75 -1.84375,1.046875 -0.046875,-0.6875 -0.53125,-1.046875 -1.0625,-1.046875 -0.375,0 -0.640625,0.21875 -0.84375,0.625 -0.21875,0.4375 -0.375,1.15625 -0.375,1.203125 0,0.046875 0.046875,0.109375 0.125,0.109375 0.09375,0 0.109375,-0.015625 0.1875,-0.296875 0.1875,-0.71875 0.40625,-1.40625 0.875,-1.40625 0.28125,0 0.375,0.1875 0.375,0.546875 0,0.265625 -0.125,0.734375 -0.203125,1.109375 l -0.34375,1.28125 c -0.046875,0.234375 -0.171875,0.765625 -0.234375,0.984375 -0.078125,0.3125 -0.21875,0.875 -0.21875,0.9375 0,0.15625 0.140625,0.296875 0.3125,0.296875 0.140625,0 0.3125,-0.078125 0.40625,-0.25 C 1.640625,-0.1875 1.75,-0.609375 1.8125,-0.84375 l 0.25,-1.078125 z m 0,0"
             id="path58"
             style="stroke:#140000;stroke-width:0.42519658;stroke-dasharray:none;stroke-opacity:1" />
        </g>
      </g>
      <g
         fill="#000000"
         fill-opacity="1"
         id="g38"
         transform="matrix(0.352778,0,0,0.352778,-0.28112,0.0878858)"
         style="stroke:#140000;stroke-width:0.42519658;stroke-dasharray:none;stroke-opacity:1">
        <g
           id="use36"
           transform="translate(22.565001,7.704)"
           style="stroke:#140000;stroke-width:0.42519658;stroke-dasharray:none;stroke-opacity:1">
          <path
             d="m 7.875,-2.75 c 0.203125,0 0.421875,0 0.421875,-0.234375 0,-0.25 -0.21875,-0.25 -0.421875,-0.25 H 1.40625 c -0.203125,0 -0.421875,0 -0.421875,0.25 0,0.234375 0.21875,0.234375 0.421875,0.234375 z m 0,0"
             id="path62"
             style="stroke:#140000;stroke-width:0.42519658;stroke-dasharray:none;stroke-opacity:1" />
        </g>
      </g>
      <g
         fill="#000000"
         fill-opacity="1"
         id="g42"
         transform="matrix(0.352778,0,0,0.352778,-0.28112,0.0878858)"
         style="stroke:#140000;stroke-width:0.42519658;stroke-dasharray:none;stroke-opacity:1">
        <g
           id="use40"
           transform="translate(31.864,7.704)"
           style="stroke:#140000;stroke-width:0.42519658;stroke-dasharray:none;stroke-opacity:1">
          <path
             d="m 3.4375,-7.65625 c 0,-0.28125 0,-0.296875 -0.234375,-0.296875 C 2.921875,-7.625 2.3125,-7.1875 1.09375,-7.1875 v 0.34375 c 0.265625,0 0.859375,0 1.53125,-0.296875 v 6.21875 c 0,0.4375 -0.046875,0.578125 -1.09375,0.578125 h -0.375 V 0 c 0.328125,-0.03125 1.484375,-0.03125 1.875,-0.03125 0.40625,0 1.546875,0 1.875,0.03125 v -0.34375 h -0.375 c -1.046875,0 -1.09375,-0.140625 -1.09375,-0.578125 z m 0,0"
             id="path66"
             style="stroke:#140000;stroke-width:0.42519658;stroke-dasharray:none;stroke-opacity:1" />
        </g>
      </g>
      <g
         clip-path="url(#clipPath3317-3-2)"
         id="g48"
         transform="matrix(0.352778,0,0,0.352778,-0.28112,0.0878858)"
         style="stroke:#140000;stroke-width:0.42519658;stroke-dasharray:none;stroke-opacity:1">
        <g
           fill="#000000"
           fill-opacity="1"
           id="g46"
           style="stroke:#140000;stroke-width:0.42519658;stroke-dasharray:none;stroke-opacity:1">
          <g
             id="use44"
             transform="translate(14.341,19.274)"
             style="stroke:#140000;stroke-width:0.42519658;stroke-dasharray:none;stroke-opacity:1">
            <path
               d="M 5.265625,-2.015625 H 5 c -0.046875,0.203125 -0.140625,0.875 -0.25,1.0625 C 4.65625,-0.84375 3.984375,-0.84375 3.625,-0.84375 H 1.40625 c 0.328125,-0.28125 1.0625,-1.046875 1.359375,-1.328125 1.828125,-1.671875 2.5,-2.296875 2.5,-3.484375 0,-1.375 -1.09375,-2.296875 -2.484375,-2.296875 -1.375,0 -2.203125,1.1875 -2.203125,2.21875 0,0.609375 0.53125,0.609375 0.5625,0.609375 0.265625,0 0.5625,-0.1875 0.5625,-0.5625 0,-0.34375 -0.21875,-0.5625 -0.5625,-0.5625 -0.09375,0 -0.125,0 -0.15625,0.015625 0.21875,-0.8125 0.875,-1.375 1.640625,-1.375 1.015625,0 1.640625,0.859375 1.640625,1.953125 C 4.265625,-4.640625 3.6875,-3.75 3,-2.984375 L 0.578125,-0.28125 V 0 h 4.375 z m 0,0"
               id="path70"
               style="stroke:#140000;stroke-width:0.42519658;stroke-dasharray:none;stroke-opacity:1" />
          </g>
        </g>
      </g>
    </g>
    <g
       inkscape:label=""
       transform="translate(25.299312,45.742028)"
       id="g2090"
       style="stroke:#140000;stroke-width:0.15;stroke-dasharray:none;stroke-opacity:1">
      <g
         fill="#000000"
         fill-opacity="1"
         id="g2073"
         transform="matrix(0.352778,0,0,0.352778,-0.28112,0.0878858)"
         style="stroke:#140000;stroke-width:0.42519658;stroke-dasharray:none;stroke-opacity:1">
        <g
           id="g2071"
           transform="translate(0,14.63)"
           style="stroke:#140000;stroke-width:0.42519658;stroke-dasharray:none;stroke-opacity:1">
          <path
             d="m 8.609375,-6.953125 c -0.015625,-0.0625 -0.09375,-0.1875 -0.09375,-0.25 0,-0.015625 0.03125,-0.03125 0.3125,-0.25 L 10.5,-8.765625 c 2.3125,-1.796875 3.0625,-2.390625 4.25,-2.5 0.125,-0.01563 0.296875,-0.01563 0.296875,-0.3125 0,-0.09375 -0.04687,-0.1875 -0.1875,-0.1875 -0.1875,0 -0.390625,0.04687 -0.578125,0.04687 H 13.625 c -0.53125,0 -1.109375,-0.04687 -1.625,-0.04687 -0.125,0 -0.328125,0 -0.328125,0.3125 0,0.171875 0.125,0.1875 0.21875,0.1875 0.203125,0.01563 0.421875,0.09375 0.421875,0.328125 0,0.34375 -0.515625,0.765625 -0.65625,0.859375 l -6.75,5.25 L 6.34375,-10.5 c 0.140625,-0.59375 0.1875,-0.765625 1.40625,-0.765625 0.328125,0 0.484375,0 0.484375,-0.328125 0,-0.171875 -0.171875,-0.171875 -0.265625,-0.171875 -0.3125,0 -0.671875,0.04687 -1,0.04687 H 4.9375 c -0.3125,0 -0.6875,-0.04687 -1,-0.04687 -0.125,0 -0.328125,0 -0.328125,0.328125 0,0.171875 0.15625,0.171875 0.421875,0.171875 1.046875,0 1.046875,0.140625 1.046875,0.328125 0,0.03125 0,0.140625 -0.0625,0.40625 l -2.328125,9.25 C 2.53125,-0.671875 2.5,-0.5 1.296875,-0.5 c -0.328125,0 -0.5,0 -0.5,0.3125 0,0.1875 0.15625,0.1875 0.25,0.1875 0.328125,0 0.671875,-0.03125 1,-0.03125 H 4.0625 C 4.390625,-0.03125 4.75,0 5.078125,0 5.21875,0 5.40625,0 5.40625,-0.328125 5.40625,-0.5 5.25,-0.5 5,-0.5 c -1.0625,0 -1.0625,-0.140625 -1.0625,-0.3125 0,-0.125 0.109375,-0.546875 0.171875,-0.828125 L 4.78125,-4.3125 l 2.625,-2.046875 c 0.5,1.109375 1.40625,3.3125 2.109375,5 0.0625,0.109375 0.09375,0.203125 0.09375,0.328125 0,0.515625 -0.6875,0.53125 -0.84375,0.53125 -0.15625,0 -0.328125,0 -0.328125,0.328125 C 8.4375,0 8.625,0 8.671875,0 c 0.609375,0 1.25,-0.03125 1.84375,-0.03125 H 11.34375 C 11.609375,-0.03125 11.890625,0 12.15625,0 12.265625,0 12.453125,0 12.453125,-0.328125 12.453125,-0.5 12.296875,-0.5 12.125,-0.5 11.484375,-0.515625 11.265625,-0.65625 11,-1.28125 Z m 0,0"
             id="path51"
             style="stroke:#140000;stroke-width:0.42519658;stroke-dasharray:none;stroke-opacity:1" />
        </g>
      </g>
      <g
         fill="#000000"
         fill-opacity="1"
         id="g2078"
         transform="matrix(0.352778,0,0,0.352778,-0.28112,0.0878858)"
         style="stroke:#140000;stroke-width:0.42519658;stroke-dasharray:none;stroke-opacity:1">
        <g
           id="g2076"
           transform="translate(15.577,7.704)"
           style="stroke:#140000;stroke-width:0.42519658;stroke-dasharray:none;stroke-opacity:1">
          <path
             d="M 2.46875,-3.5 C 2.484375,-3.578125 2.78125,-4.171875 3.234375,-4.546875 3.53125,-4.84375 3.9375,-5.03125 4.40625,-5.03125 c 0.484375,0 0.65625,0.359375 0.65625,0.828125 0,0.6875 -0.5,2.046875 -0.734375,2.703125 -0.109375,0.28125 -0.171875,0.4375 -0.171875,0.65625 0,0.53125 0.375,0.96875 0.953125,0.96875 1.109375,0 1.53125,-1.765625 1.53125,-1.828125 0,-0.0625 -0.046875,-0.109375 -0.125,-0.109375 -0.109375,0 -0.125,0.03125 -0.1875,0.234375 C 6.0625,-0.59375 5.609375,-0.125 5.140625,-0.125 c -0.125,0 -0.3125,0 -0.3125,-0.390625 0,-0.296875 0.125,-0.65625 0.203125,-0.828125 C 5.265625,-2 5.765625,-3.328125 5.765625,-4.015625 c 0,-0.71875 -0.40625,-1.25 -1.3125,-1.25 -1.078125,0 -1.625,0.75 -1.84375,1.046875 -0.046875,-0.6875 -0.53125,-1.046875 -1.0625,-1.046875 -0.375,0 -0.640625,0.21875 -0.84375,0.625 -0.21875,0.4375 -0.375,1.15625 -0.375,1.203125 0,0.046875 0.046875,0.109375 0.125,0.109375 0.09375,0 0.109375,-0.015625 0.1875,-0.296875 0.1875,-0.71875 0.40625,-1.40625 0.875,-1.40625 0.28125,0 0.375,0.1875 0.375,0.546875 0,0.265625 -0.125,0.734375 -0.203125,1.109375 l -0.34375,1.28125 c -0.046875,0.234375 -0.171875,0.765625 -0.234375,0.984375 -0.078125,0.3125 -0.21875,0.875 -0.21875,0.9375 0,0.15625 0.140625,0.296875 0.3125,0.296875 0.140625,0 0.3125,-0.078125 0.40625,-0.25 C 1.640625,-0.1875 1.75,-0.609375 1.8125,-0.84375 l 0.25,-1.078125 z m 0,0"
             id="path55"
             style="stroke:#140000;stroke-width:0.42519658;stroke-dasharray:none;stroke-opacity:1" />
        </g>
      </g>
      <g
         fill="#000000"
         fill-opacity="1"
         id="g35"
         transform="matrix(0.352778,0,0,0.352778,-0.28112,0.0878858)"
         style="stroke:#140000;stroke-width:0.42519658;stroke-dasharray:none;stroke-opacity:1">
        <g
           id="use33"
           transform="translate(22.565001,7.704)"
           style="stroke:#140000;stroke-width:0.42519658;stroke-dasharray:none;stroke-opacity:1">
          <path
             d="m 7.875,-2.75 c 0.203125,0 0.421875,0 0.421875,-0.234375 0,-0.25 -0.21875,-0.25 -0.421875,-0.25 H 1.40625 c -0.203125,0 -0.421875,0 -0.421875,0.25 0,0.234375 0.21875,0.234375 0.421875,0.234375 z m 0,0"
             id="path59"
             style="stroke:#140000;stroke-width:0.42519658;stroke-dasharray:none;stroke-opacity:1" />
        </g>
      </g>
      <g
         fill="#000000"
         fill-opacity="1"
         id="g39"
         transform="matrix(0.352778,0,0,0.352778,-0.28112,0.0878858)"
         style="stroke:#140000;stroke-width:0.42519658;stroke-dasharray:none;stroke-opacity:1">
        <g
           id="use37"
           transform="translate(31.864,7.704)"
           style="stroke:#140000;stroke-width:0.42519658;stroke-dasharray:none;stroke-opacity:1">
          <path
             d="m 3.4375,-7.65625 c 0,-0.28125 0,-0.296875 -0.234375,-0.296875 C 2.921875,-7.625 2.3125,-7.1875 1.09375,-7.1875 v 0.34375 c 0.265625,0 0.859375,0 1.53125,-0.296875 v 6.21875 c 0,0.4375 -0.046875,0.578125 -1.09375,0.578125 h -0.375 V 0 c 0.328125,-0.03125 1.484375,-0.03125 1.875,-0.03125 0.40625,0 1.546875,0 1.875,0.03125 v -0.34375 h -0.375 c -1.046875,0 -1.09375,-0.140625 -1.09375,-0.578125 z m 0,0"
             id="path63"
             style="stroke:#140000;stroke-width:0.42519658;stroke-dasharray:none;stroke-opacity:1" />
        </g>
      </g>
      <g
         clip-path="url(#clipPath649-6-8)"
         id="g45"
         transform="matrix(0.352778,0,0,0.352778,-0.28112,0.0878858)"
         style="stroke:#140000;stroke-width:0.42519658;stroke-dasharray:none;stroke-opacity:1">
        <g
           fill="#000000"
           fill-opacity="1"
           id="g43"
           style="stroke:#140000;stroke-width:0.42519658;stroke-dasharray:none;stroke-opacity:1">
          <g
             id="use41"
             transform="translate(14.341,19.274)"
             style="stroke:#140000;stroke-width:0.42519658;stroke-dasharray:none;stroke-opacity:1">
            <path
               d="m 3.4375,-7.65625 c 0,-0.28125 0,-0.296875 -0.234375,-0.296875 C 2.921875,-7.625 2.3125,-7.1875 1.09375,-7.1875 v 0.34375 c 0.265625,0 0.859375,0 1.53125,-0.296875 v 6.21875 c 0,0.4375 -0.046875,0.578125 -1.09375,0.578125 h -0.375 V 0 c 0.328125,-0.03125 1.484375,-0.03125 1.875,-0.03125 0.40625,0 1.546875,0 1.875,0.03125 v -0.34375 h -0.375 c -1.046875,0 -1.09375,-0.140625 -1.09375,-0.578125 z m 0,0"
               id="path67"
               style="stroke:#140000;stroke-width:0.42519658;stroke-dasharray:none;stroke-opacity:1" />
          </g>
        </g>
      </g>
    </g>
    <g
       inkscape:label=""
       transform="translate(13.011481,29.252826)"
       id="g2273"
       style="stroke:#140000;stroke-width:0.15;stroke-dasharray:none;stroke-opacity:1">
      <g
         clip-path="url(#clipPath1789-9-7)"
         id="g29"
         transform="matrix(0.352778,0,0,0.352778,-0.308681,0.087533)"
         style="stroke:#140000;stroke-width:0.42519658;stroke-dasharray:none;stroke-opacity:1">
        <g
           fill="#000000"
           fill-opacity="1"
           id="g2257"
           style="stroke:#140000;stroke-width:0.42519658;stroke-dasharray:none;stroke-opacity:1">
          <g
             id="g2255"
             transform="translate(0,13.952)"
             style="stroke:#140000;stroke-width:0.42519658;stroke-dasharray:none;stroke-opacity:1">
            <path
               d="M 8.921875,-11.71875 H 0.875 v 0.4375 c 1.1875,0 1.375,0 1.375,0.78125 v 9.28125 c 0,0.765625 -0.1875,0.765625 -1.375,0.765625 V 0 c 0.5,-0.03125 1.46875,-0.03125 2,-0.03125 0.703125,0 1.53125,0 2.234375,0.03125 v -0.453125 h -0.375 c -1.3125,0 -1.34375,-0.171875 -1.34375,-0.78125 v -9.375 c 0,-0.578125 0.03125,-0.671875 0.71875,-0.671875 h 1.90625 c 2.609375,0 2.75,1.203125 3,3.359375 h 0.3125 z m 0,0"
               id="path2253"
               style="stroke:#140000;stroke-width:0.42519658;stroke-dasharray:none;stroke-opacity:1" />
          </g>
        </g>
      </g>
      <g
         fill="#000000"
         fill-opacity="1"
         id="g2263"
         transform="matrix(0.352778,0,0,0.352778,-0.308681,0.087533)"
         style="stroke:#140000;stroke-width:0.42519658;stroke-dasharray:none;stroke-opacity:1">
        <g
           id="use31"
           transform="translate(9.915,7.7049999)"
           style="stroke:#140000;stroke-width:0.42519658;stroke-dasharray:none;stroke-opacity:1">
          <path
             d="M 2.46875,-3.5 C 2.484375,-3.578125 2.78125,-4.171875 3.234375,-4.546875 3.53125,-4.84375 3.9375,-5.03125 4.40625,-5.03125 c 0.484375,0 0.65625,0.359375 0.65625,0.828125 0,0.6875 -0.5,2.046875 -0.734375,2.703125 -0.109375,0.28125 -0.171875,0.4375 -0.171875,0.65625 0,0.53125 0.375,0.96875 0.953125,0.96875 1.109375,0 1.53125,-1.765625 1.53125,-1.828125 0,-0.0625 -0.046875,-0.109375 -0.125,-0.109375 -0.109375,0 -0.125,0.03125 -0.1875,0.234375 C 6.0625,-0.59375 5.609375,-0.125 5.140625,-0.125 c -0.125,0 -0.3125,0 -0.3125,-0.390625 0,-0.296875 0.125,-0.65625 0.203125,-0.828125 C 5.265625,-2 5.765625,-3.328125 5.765625,-4.015625 c 0,-0.71875 -0.40625,-1.25 -1.3125,-1.25 -1.078125,0 -1.625,0.75 -1.84375,1.046875 -0.046875,-0.6875 -0.53125,-1.046875 -1.0625,-1.046875 -0.375,0 -0.640625,0.21875 -0.84375,0.625 -0.21875,0.4375 -0.375,1.15625 -0.375,1.203125 0,0.046875 0.046875,0.109375 0.125,0.109375 0.09375,0 0.109375,-0.015625 0.1875,-0.296875 0.1875,-0.71875 0.40625,-1.40625 0.875,-1.40625 0.28125,0 0.375,0.1875 0.375,0.546875 0,0.265625 -0.125,0.734375 -0.203125,1.109375 l -0.34375,1.28125 c -0.046875,0.234375 -0.171875,0.765625 -0.234375,0.984375 -0.078125,0.3125 -0.21875,0.875 -0.21875,0.9375 0,0.15625 0.140625,0.296875 0.3125,0.296875 0.140625,0 0.3125,-0.078125 0.40625,-0.25 C 1.640625,-0.1875 1.75,-0.609375 1.8125,-0.84375 l 0.25,-1.078125 z m 0,0"
             id="path2260"
             style="stroke:#140000;stroke-width:0.42519658;stroke-dasharray:none;stroke-opacity:1" />
        </g>
      </g>
      <g
         fill="#000000"
         fill-opacity="1"
         id="g37"
         transform="matrix(0.352778,0,0,0.352778,-0.308681,0.087533)"
         style="stroke:#140000;stroke-width:0.42519658;stroke-dasharray:none;stroke-opacity:1">
        <g
           id="use35"
           transform="translate(16.903,7.7049999)"
           style="stroke:#140000;stroke-width:0.42519658;stroke-dasharray:none;stroke-opacity:1">
          <path
             d="m 7.875,-2.75 c 0.203125,0 0.421875,0 0.421875,-0.234375 0,-0.25 -0.21875,-0.25 -0.421875,-0.25 H 1.40625 c -0.203125,0 -0.421875,0 -0.421875,0.25 0,0.234375 0.21875,0.234375 0.421875,0.234375 z m 0,0"
             id="path2265"
             style="stroke:#140000;stroke-width:0.42519658;stroke-dasharray:none;stroke-opacity:1" />
        </g>
      </g>
      <g
         fill="#000000"
         fill-opacity="1"
         id="g41"
         transform="matrix(0.352778,0,0,0.352778,-0.308681,0.087533)"
         style="stroke:#140000;stroke-width:0.42519658;stroke-dasharray:none;stroke-opacity:1">
        <g
           id="use39"
           transform="translate(26.202,7.7049999)"
           style="stroke:#140000;stroke-width:0.42519658;stroke-dasharray:none;stroke-opacity:1">
          <path
             d="m 3.4375,-7.65625 c 0,-0.28125 0,-0.296875 -0.234375,-0.296875 C 2.921875,-7.625 2.3125,-7.1875 1.09375,-7.1875 v 0.34375 c 0.265625,0 0.859375,0 1.53125,-0.296875 v 6.21875 c 0,0.4375 -0.046875,0.578125 -1.09375,0.578125 h -0.375 V 0 c 0.328125,-0.03125 1.484375,-0.03125 1.875,-0.03125 0.40625,0 1.546875,0 1.875,0.03125 v -0.34375 h -0.375 c -1.046875,0 -1.09375,-0.140625 -1.09375,-0.578125 z m 0,0"
             id="path2269"
             style="stroke:#140000;stroke-width:0.42519658;stroke-dasharray:none;stroke-opacity:1" />
        </g>
      </g>
    </g>
    <g
       inkscape:label=""
       transform="translate(155.74732,29.890766)"
       id="g2472"
       style="stroke:#140000;stroke-width:0.15;stroke-dasharray:none;stroke-opacity:1">
      <g
         clip-path="url(#clipPath923-2-6)"
         id="g21"
         transform="matrix(0.352778,0,0,0.352778,-0.308681,-0.0149047)"
         style="stroke:#140000;stroke-width:0.42519658;stroke-dasharray:none;stroke-opacity:1">
        <g
           fill="#000000"
           fill-opacity="1"
           id="g19"
           style="stroke:#140000;stroke-width:0.42519658;stroke-dasharray:none;stroke-opacity:1">
          <g
             id="use17"
             transform="translate(0,11.761)"
             style="stroke:#140000;stroke-width:0.42519658;stroke-dasharray:none;stroke-opacity:1">
            <path
               d="M 8.921875,-11.71875 H 0.875 v 0.4375 c 1.1875,0 1.375,0 1.375,0.78125 v 9.28125 c 0,0.765625 -0.1875,0.765625 -1.375,0.765625 V 0 c 0.5,-0.03125 1.46875,-0.03125 2,-0.03125 0.703125,0 1.53125,0 2.234375,0.03125 v -0.453125 h -0.375 c -1.3125,0 -1.34375,-0.171875 -1.34375,-0.78125 v -9.375 c 0,-0.578125 0.03125,-0.671875 0.71875,-0.671875 h 1.90625 c 2.609375,0 2.75,1.203125 3,3.359375 h 0.3125 z m 0,0"
               id="path31"
               style="stroke:#140000;stroke-width:0.42519658;stroke-dasharray:none;stroke-opacity:1" />
          </g>
        </g>
      </g>
      <g
         fill="#000000"
         fill-opacity="1"
         id="g25"
         transform="matrix(0.352778,0,0,0.352778,-0.308681,-0.0149047)"
         style="stroke:#140000;stroke-width:0.42519658;stroke-dasharray:none;stroke-opacity:1">
        <g
           id="use23"
           transform="translate(9.915,5.5139999)"
           style="stroke:#140000;stroke-width:0.42519658;stroke-dasharray:none;stroke-opacity:1">
          <path
             d="M 2.46875,-3.5 C 2.484375,-3.578125 2.78125,-4.171875 3.234375,-4.546875 3.53125,-4.84375 3.9375,-5.03125 4.40625,-5.03125 c 0.484375,0 0.65625,0.359375 0.65625,0.828125 0,0.6875 -0.5,2.046875 -0.734375,2.703125 -0.109375,0.28125 -0.171875,0.4375 -0.171875,0.65625 0,0.53125 0.375,0.96875 0.953125,0.96875 1.109375,0 1.53125,-1.765625 1.53125,-1.828125 0,-0.0625 -0.046875,-0.109375 -0.125,-0.109375 -0.109375,0 -0.125,0.03125 -0.1875,0.234375 C 6.0625,-0.59375 5.609375,-0.125 5.140625,-0.125 c -0.125,0 -0.3125,0 -0.3125,-0.390625 0,-0.296875 0.125,-0.65625 0.203125,-0.828125 C 5.265625,-2 5.765625,-3.328125 5.765625,-4.015625 c 0,-0.71875 -0.40625,-1.25 -1.3125,-1.25 -1.078125,0 -1.625,0.75 -1.84375,1.046875 -0.046875,-0.6875 -0.53125,-1.046875 -1.0625,-1.046875 -0.375,0 -0.640625,0.21875 -0.84375,0.625 -0.21875,0.4375 -0.375,1.15625 -0.375,1.203125 0,0.046875 0.046875,0.109375 0.125,0.109375 0.09375,0 0.109375,-0.015625 0.1875,-0.296875 0.1875,-0.71875 0.40625,-1.40625 0.875,-1.40625 0.28125,0 0.375,0.1875 0.375,0.546875 0,0.265625 -0.125,0.734375 -0.203125,1.109375 l -0.34375,1.28125 c -0.046875,0.234375 -0.171875,0.765625 -0.234375,0.984375 -0.078125,0.3125 -0.21875,0.875 -0.21875,0.9375 0,0.15625 0.140625,0.296875 0.3125,0.296875 0.140625,0 0.3125,-0.078125 0.40625,-0.25 C 1.640625,-0.1875 1.75,-0.609375 1.8125,-0.84375 l 0.25,-1.078125 z m 0,0"
             id="path35"
             style="stroke:#140000;stroke-width:0.42519658;stroke-dasharray:none;stroke-opacity:1" />
        </g>
      </g>
    </g>
    <g
       inkscape:label=""
       transform="translate(142.88351,50.168838)"
       id="g1773"
       style="stroke:#140000;stroke-width:0.15;stroke-dasharray:none;stroke-opacity:1">
      <g
         fill="#000000"
         fill-opacity="1"
         id="g23"
         transform="matrix(0.352778,0,0,0.352778,-0.28112,5.73285e-4)"
         style="stroke:#140000;stroke-width:0.42519658;stroke-dasharray:none;stroke-opacity:1">
        <g
           id="use21"
           transform="translate(0,11.764)"
           style="stroke:#140000;stroke-width:0.42519658;stroke-dasharray:none;stroke-opacity:1">
          <path
             d="m 8.609375,-6.953125 c -0.015625,-0.0625 -0.09375,-0.1875 -0.09375,-0.25 0,-0.015625 0.03125,-0.03125 0.3125,-0.25 L 10.5,-8.765625 c 2.3125,-1.796875 3.0625,-2.390625 4.25,-2.5 0.125,-0.01563 0.296875,-0.01563 0.296875,-0.3125 0,-0.09375 -0.04687,-0.1875 -0.1875,-0.1875 -0.1875,0 -0.390625,0.04687 -0.578125,0.04687 H 13.625 c -0.53125,0 -1.109375,-0.04687 -1.625,-0.04687 -0.125,0 -0.328125,0 -0.328125,0.3125 0,0.171875 0.125,0.1875 0.21875,0.1875 0.203125,0.01563 0.421875,0.09375 0.421875,0.328125 0,0.34375 -0.515625,0.765625 -0.65625,0.859375 l -6.75,5.25 L 6.34375,-10.5 c 0.140625,-0.59375 0.1875,-0.765625 1.40625,-0.765625 0.328125,0 0.484375,0 0.484375,-0.328125 0,-0.171875 -0.171875,-0.171875 -0.265625,-0.171875 -0.3125,0 -0.671875,0.04687 -1,0.04687 H 4.9375 c -0.3125,0 -0.6875,-0.04687 -1,-0.04687 -0.125,0 -0.328125,0 -0.328125,0.328125 0,0.171875 0.15625,0.171875 0.421875,0.171875 1.046875,0 1.046875,0.140625 1.046875,0.328125 0,0.03125 0,0.140625 -0.0625,0.40625 l -2.328125,9.25 C 2.53125,-0.671875 2.5,-0.5 1.296875,-0.5 c -0.328125,0 -0.5,0 -0.5,0.3125 0,0.1875 0.15625,0.1875 0.25,0.1875 0.328125,0 0.671875,-0.03125 1,-0.03125 H 4.0625 C 4.390625,-0.03125 4.75,0 5.078125,0 5.21875,0 5.40625,0 5.40625,-0.328125 5.40625,-0.5 5.25,-0.5 5,-0.5 c -1.0625,0 -1.0625,-0.140625 -1.0625,-0.3125 0,-0.125 0.109375,-0.546875 0.171875,-0.828125 L 4.78125,-4.3125 l 2.625,-2.046875 c 0.5,1.109375 1.40625,3.3125 2.109375,5 0.0625,0.109375 0.09375,0.203125 0.09375,0.328125 0,0.515625 -0.6875,0.53125 -0.84375,0.53125 -0.15625,0 -0.328125,0 -0.328125,0.328125 C 8.4375,0 8.625,0 8.671875,0 c 0.609375,0 1.25,-0.03125 1.84375,-0.03125 H 11.34375 C 11.609375,-0.03125 11.890625,0 12.15625,0 12.265625,0 12.453125,0 12.453125,-0.328125 12.453125,-0.5 12.296875,-0.5 12.125,-0.5 11.484375,-0.515625 11.265625,-0.65625 11,-1.28125 Z m 0,0"
             id="path39"
             style="stroke:#140000;stroke-width:0.42519658;stroke-dasharray:none;stroke-opacity:1" />
        </g>
      </g>
      <g
         fill="#000000"
         fill-opacity="1"
         id="g27"
         transform="matrix(0.352778,0,0,0.352778,-0.28112,5.73285e-4)"
         style="stroke:#140000;stroke-width:0.42519658;stroke-dasharray:none;stroke-opacity:1">
        <g
           id="use25"
           transform="translate(15.577,5.5159998)"
           style="stroke:#140000;stroke-width:0.42519658;stroke-dasharray:none;stroke-opacity:1">
          <path
             d="M 2.46875,-3.5 C 2.484375,-3.578125 2.78125,-4.171875 3.234375,-4.546875 3.53125,-4.84375 3.9375,-5.03125 4.40625,-5.03125 c 0.484375,0 0.65625,0.359375 0.65625,0.828125 0,0.6875 -0.5,2.046875 -0.734375,2.703125 -0.109375,0.28125 -0.171875,0.4375 -0.171875,0.65625 0,0.53125 0.375,0.96875 0.953125,0.96875 1.109375,0 1.53125,-1.765625 1.53125,-1.828125 0,-0.0625 -0.046875,-0.109375 -0.125,-0.109375 -0.109375,0 -0.125,0.03125 -0.1875,0.234375 C 6.0625,-0.59375 5.609375,-0.125 5.140625,-0.125 c -0.125,0 -0.3125,0 -0.3125,-0.390625 0,-0.296875 0.125,-0.65625 0.203125,-0.828125 C 5.265625,-2 5.765625,-3.328125 5.765625,-4.015625 c 0,-0.71875 -0.40625,-1.25 -1.3125,-1.25 -1.078125,0 -1.625,0.75 -1.84375,1.046875 -0.046875,-0.6875 -0.53125,-1.046875 -1.0625,-1.046875 -0.375,0 -0.640625,0.21875 -0.84375,0.625 -0.21875,0.4375 -0.375,1.15625 -0.375,1.203125 0,0.046875 0.046875,0.109375 0.125,0.109375 0.09375,0 0.109375,-0.015625 0.1875,-0.296875 0.1875,-0.71875 0.40625,-1.40625 0.875,-1.40625 0.28125,0 0.375,0.1875 0.375,0.546875 0,0.265625 -0.125,0.734375 -0.203125,1.109375 l -0.34375,1.28125 c -0.046875,0.234375 -0.171875,0.765625 -0.234375,0.984375 -0.078125,0.3125 -0.21875,0.875 -0.21875,0.9375 0,0.15625 0.140625,0.296875 0.3125,0.296875 0.140625,0 0.3125,-0.078125 0.40625,-0.25 C 1.640625,-0.1875 1.75,-0.609375 1.8125,-0.84375 l 0.25,-1.078125 z m 0,0"
             id="path43"
             style="stroke:#140000;stroke-width:0.42519658;stroke-dasharray:none;stroke-opacity:1" />
        </g>
      </g>
      <g
         clip-path="url(#clipPath6172-3-3-3)"
         id="g33"
         transform="matrix(0.352778,0,0,0.352778,-0.28112,5.73285e-4)"
         style="stroke:#140000;stroke-width:0.42519658;stroke-dasharray:none;stroke-opacity:1">
        <g
           fill="#000000"
           fill-opacity="1"
           id="g31"
           style="stroke:#140000;stroke-width:0.42519658;stroke-dasharray:none;stroke-opacity:1">
          <g
             id="use29"
             transform="translate(14.341,16.09)"
             style="stroke:#140000;stroke-width:0.42519658;stroke-dasharray:none;stroke-opacity:1">
            <path
               d="m 3.4375,-7.65625 c 0,-0.28125 0,-0.296875 -0.234375,-0.296875 C 2.921875,-7.625 2.3125,-7.1875 1.09375,-7.1875 v 0.34375 c 0.265625,0 0.859375,0 1.53125,-0.296875 v 6.21875 c 0,0.4375 -0.046875,0.578125 -1.09375,0.578125 h -0.375 V 0 c 0.328125,-0.03125 1.484375,-0.03125 1.875,-0.03125 0.40625,0 1.546875,0 1.875,0.03125 v -0.34375 h -0.375 c -1.046875,0 -1.09375,-0.140625 -1.09375,-0.578125 z m 0,0"
               id="path47"
               style="stroke:#140000;stroke-width:0.42519658;stroke-dasharray:none;stroke-opacity:1" />
          </g>
        </g>
      </g>
    </g>
    <rect
       style="fill:none;fill-rule:evenodd;stroke:#140000;stroke-width:0.458599;stroke-dasharray:none;stroke-dashoffset:0;stroke-opacity:1;paint-order:stroke fill markers"
       id="rect234-2-0"
       width="69.483086"
       height="69.538177"
       x="201.25771"
       y="0.91661859"
       ry="0.2629396" />
    <path
       style="fill:none;fill-rule:evenodd;stroke:#000000;stroke-width:0.461822;stroke-dasharray:none;stroke-dashoffset:0;stroke-opacity:1;paint-order:stroke fill markers"
       d="m 201.32582,59.003838 69.3771,-39.305452"
       id="path961-6-3"
       sodipodi:nodetypes="cc" />
    <ellipse
       style="fill:#000000;fill-opacity:1;fill-rule:evenodd;stroke:none;stroke-width:0.820097;stroke-dasharray:none;stroke-dashoffset:0;stroke-opacity:1;paint-order:stroke fill markers"
       id="path3450-9-7-1"
       cx="201.28586"
       cy="70.350861"
       rx="1.0000004"
       ry="1" />
    <ellipse
       style="fill:#000000;fill-opacity:1;fill-rule:evenodd;stroke:none;stroke-width:0.820097;stroke-dasharray:none;stroke-dashoffset:0;stroke-opacity:1;paint-order:stroke fill markers"
       id="path3450-3-9-0"
       cx="270.6423"
       cy="70.432068"
       rx="1.0000004"
       ry="1" />
    <ellipse
       style="fill:#000000;fill-opacity:1;fill-rule:evenodd;stroke:none;stroke-width:0.820097;stroke-dasharray:none;stroke-dashoffset:0;stroke-opacity:1;paint-order:stroke fill markers"
       id="path3450-0-8-3"
       cx="201.30481"
       cy="58.969543"
       rx="1.0000004"
       ry="1" />
    <ellipse
       style="fill:#000000;fill-opacity:1;fill-rule:evenodd;stroke:none;stroke-width:0.820097;stroke-dasharray:none;stroke-dashoffset:0;stroke-opacity:1;paint-order:stroke fill markers"
       id="path3450-0-8-2-2"
       cx="270.72769"
       cy="19.695887"
       rx="1.0000004"
       ry="1" />
    <ellipse
       style="fill:#000000;fill-opacity:1;fill-rule:evenodd;stroke:#140000;stroke-width:0.578725;stroke-dasharray:none;stroke-dashoffset:0;stroke-opacity:1;paint-order:stroke fill markers"
       id="path3450-1"
       cx="101.078"
       cy="1.0397375"
       rx="0.71063763"
       ry="0.71063745" />
    <ellipse
       style="fill:#000000;fill-opacity:1;fill-rule:evenodd;stroke:#140000;stroke-width:0.578725;stroke-dasharray:none;stroke-dashoffset:0;stroke-opacity:1;paint-order:stroke fill markers"
       id="path3450-1-9"
       cx="270.60742"
       cy="0.99700683"
       rx="0.71063763"
       ry="0.71063745" />
    <ellipse
       style="fill:#000000;fill-opacity:1;fill-rule:evenodd;stroke:#140000;stroke-width:0.578725;stroke-dasharray:none;stroke-dashoffset:0;stroke-opacity:1;paint-order:stroke fill markers"
       id="path3450-1-2"
       cx="201.33736"
       cy="1.0335472"
       rx="0.71063763"
       ry="0.71063745" />
    <ellipse
       style="fill:#000000;fill-opacity:1;fill-rule:evenodd;stroke:#140000;stroke-width:0.578725;stroke-dasharray:none;stroke-dashoffset:0;stroke-opacity:1;paint-order:stroke fill markers"
       id="path3450-1-0"
       cx="201.24059"
       cy="18.925138"
       rx="0.71063763"
       ry="0.71063745" />
    <ellipse
       style="fill:#000000;fill-opacity:1;fill-rule:evenodd;stroke:#140000;stroke-width:0.578725;stroke-dasharray:none;stroke-dashoffset:0;stroke-opacity:1;paint-order:stroke fill markers"
       id="path3450-1-6"
       cx="270.67816"
       cy="48.911903"
       rx="0.71063763"
       ry="0.71063745" />
    <ellipse
       style="fill:#000000;fill-opacity:1;fill-rule:evenodd;stroke:#140000;stroke-width:0.578725;stroke-dasharray:none;stroke-dashoffset:0;stroke-opacity:1;paint-order:stroke fill markers"
       id="path3450-1-8"
       cx="241.5213"
       cy="36.203278"
       rx="0.71063763"
       ry="0.71063745" />
    <g
       inkscape:label=""
       transform="translate(229.43976,51.376799)"
       id="g8071"
       style="stroke:#140000;stroke-width:0.148358;stroke-dasharray:none;stroke-opacity:1">
      <g
         fill="#000000"
         fill-opacity="1"
         id="g8046"
         transform="matrix(0.352778,0,0,0.352778,-0.28112,0.0669396)"
         style="stroke:#140000;stroke-width:0.420542;stroke-dasharray:none;stroke-opacity:1">
        <g
           id="g8044"
           transform="translate(0,20.538)"
           style="stroke:#140000;stroke-width:0.420542;stroke-dasharray:none;stroke-opacity:1">
          <path
             d="m 8.609375,-6.953125 c -0.015625,-0.0625 -0.09375,-0.1875 -0.09375,-0.25 0,-0.015625 0.03125,-0.03125 0.3125,-0.25 L 10.5,-8.765625 c 2.3125,-1.796875 3.0625,-2.390625 4.25,-2.5 0.125,-0.01563 0.296875,-0.01563 0.296875,-0.3125 0,-0.09375 -0.04687,-0.1875 -0.1875,-0.1875 -0.1875,0 -0.390625,0.04687 -0.578125,0.04687 H 13.625 c -0.53125,0 -1.109375,-0.04687 -1.625,-0.04687 -0.125,0 -0.328125,0 -0.328125,0.3125 0,0.171875 0.125,0.1875 0.21875,0.1875 0.203125,0.01563 0.421875,0.09375 0.421875,0.328125 0,0.34375 -0.515625,0.765625 -0.65625,0.859375 l -6.75,5.25 L 6.34375,-10.5 c 0.140625,-0.59375 0.1875,-0.765625 1.40625,-0.765625 0.328125,0 0.484375,0 0.484375,-0.328125 0,-0.171875 -0.171875,-0.171875 -0.265625,-0.171875 -0.3125,0 -0.671875,0.04687 -1,0.04687 H 4.9375 c -0.3125,0 -0.6875,-0.04687 -1,-0.04687 -0.125,0 -0.328125,0 -0.328125,0.328125 0,0.171875 0.15625,0.171875 0.421875,0.171875 1.046875,0 1.046875,0.140625 1.046875,0.328125 0,0.03125 0,0.140625 -0.0625,0.40625 l -2.328125,9.25 C 2.53125,-0.671875 2.5,-0.5 1.296875,-0.5 c -0.328125,0 -0.5,0 -0.5,0.3125 0,0.1875 0.15625,0.1875 0.25,0.1875 0.328125,0 0.671875,-0.03125 1,-0.03125 H 4.0625 C 4.390625,-0.03125 4.75,0 5.078125,0 5.21875,0 5.40625,0 5.40625,-0.328125 5.40625,-0.5 5.25,-0.5 5,-0.5 c -1.0625,0 -1.0625,-0.140625 -1.0625,-0.3125 0,-0.125 0.109375,-0.546875 0.171875,-0.828125 L 4.78125,-4.3125 l 2.625,-2.046875 c 0.5,1.109375 1.40625,3.3125 2.109375,5 0.0625,0.109375 0.09375,0.203125 0.09375,0.328125 0,0.515625 -0.6875,0.53125 -0.84375,0.53125 -0.15625,0 -0.328125,0 -0.328125,0.328125 C 8.4375,0 8.625,0 8.671875,0 c 0.609375,0 1.25,-0.03125 1.84375,-0.03125 H 11.34375 C 11.609375,-0.03125 11.890625,0 12.15625,0 12.265625,0 12.453125,0 12.453125,-0.328125 12.453125,-0.5 12.296875,-0.5 12.125,-0.5 11.484375,-0.515625 11.265625,-0.65625 11,-1.28125 Z m 0,0"
             id="path64"
             style="stroke:#140000;stroke-width:0.420542;stroke-dasharray:none;stroke-opacity:1" />
        </g>
      </g>
      <g
         fill="#000000"
         fill-opacity="1"
         id="g8051"
         transform="matrix(0.352778,0,0,0.352778,-0.28112,0.0669396)"
         style="stroke:#140000;stroke-width:0.420542;stroke-dasharray:none;stroke-opacity:1">
        <g
           id="g8049"
           transform="translate(15.577,10.486)"
           style="stroke:#140000;stroke-width:0.420542;stroke-dasharray:none;stroke-opacity:1">
          <path
             d="M 2.46875,-3.5 C 2.484375,-3.578125 2.78125,-4.171875 3.234375,-4.546875 3.53125,-4.84375 3.9375,-5.03125 4.40625,-5.03125 c 0.484375,0 0.65625,0.359375 0.65625,0.828125 0,0.6875 -0.5,2.046875 -0.734375,2.703125 -0.109375,0.28125 -0.171875,0.4375 -0.171875,0.65625 0,0.53125 0.375,0.96875 0.953125,0.96875 1.109375,0 1.53125,-1.765625 1.53125,-1.828125 0,-0.0625 -0.046875,-0.109375 -0.125,-0.109375 -0.109375,0 -0.125,0.03125 -0.1875,0.234375 C 6.0625,-0.59375 5.609375,-0.125 5.140625,-0.125 c -0.125,0 -0.3125,0 -0.3125,-0.390625 0,-0.296875 0.125,-0.65625 0.203125,-0.828125 C 5.265625,-2 5.765625,-3.328125 5.765625,-4.015625 c 0,-0.71875 -0.40625,-1.25 -1.3125,-1.25 -1.078125,0 -1.625,0.75 -1.84375,1.046875 -0.046875,-0.6875 -0.53125,-1.046875 -1.0625,-1.046875 -0.375,0 -0.640625,0.21875 -0.84375,0.625 -0.21875,0.4375 -0.375,1.15625 -0.375,1.203125 0,0.046875 0.046875,0.109375 0.125,0.109375 0.09375,0 0.109375,-0.015625 0.1875,-0.296875 0.1875,-0.71875 0.40625,-1.40625 0.875,-1.40625 0.28125,0 0.375,0.1875 0.375,0.546875 0,0.265625 -0.125,0.734375 -0.203125,1.109375 l -0.34375,1.28125 c -0.046875,0.234375 -0.171875,0.765625 -0.234375,0.984375 -0.078125,0.3125 -0.21875,0.875 -0.21875,0.9375 0,0.15625 0.140625,0.296875 0.3125,0.296875 0.140625,0 0.3125,-0.078125 0.40625,-0.25 C 1.640625,-0.1875 1.75,-0.609375 1.8125,-0.84375 l 0.25,-1.078125 z m 0,0"
             id="path68"
             style="stroke:#140000;stroke-width:0.420542;stroke-dasharray:none;stroke-opacity:1" />
        </g>
      </g>
      <g
         fill="#000000"
         fill-opacity="1"
         id="g8056"
         transform="matrix(0.352778,0,0,0.352778,-0.28112,0.0669396)"
         style="stroke:#140000;stroke-width:0.420542;stroke-dasharray:none;stroke-opacity:1">
        <g
           id="g8054"
           transform="translate(22.565001,10.486)"
           style="stroke:#140000;stroke-width:0.420542;stroke-dasharray:none;stroke-opacity:1">
          <path
             d="m 7.875,-2.75 c 0.203125,0 0.421875,0 0.421875,-0.234375 0,-0.25 -0.21875,-0.25 -0.421875,-0.25 H 1.40625 c -0.203125,0 -0.421875,0 -0.421875,0.25 0,0.234375 0.21875,0.234375 0.421875,0.234375 z m 0,0"
             id="path72"
             style="stroke:#140000;stroke-width:0.420542;stroke-dasharray:none;stroke-opacity:1" />
        </g>
      </g>
      <g
         fill="#000000"
         fill-opacity="1"
         id="g8061"
         transform="matrix(0.352778,0,0,0.352778,-0.28112,0.0669396)"
         style="stroke:#140000;stroke-width:0.420542;stroke-dasharray:none;stroke-opacity:1">
        <g
           id="g8059"
           transform="translate(33.058998,5.7789998)"
           style="stroke:#140000;stroke-width:0.420542;stroke-dasharray:none;stroke-opacity:1">
          <path
             d="m 2.71875,-5.734375 c 0,-0.21875 0,-0.234375 -0.21875,-0.234375 -0.5625,0.5625 -1.390625,0.5625 -1.671875,0.5625 V -5.125 c 0.171875,0 0.71875,0 1.203125,-0.234375 v 4.640625 c 0,0.328125 -0.015625,0.4375 -0.859375,0.4375 H 0.890625 V 0 c 0.3125,-0.03125 1.125,-0.03125 1.484375,-0.03125 0.375,0 1.171875,0 1.5,0.03125 V -0.28125 H 3.59375 c -0.84375,0 -0.875,-0.109375 -0.875,-0.4375 z m 0,0"
             id="path76"
             style="stroke:#140000;stroke-width:0.420542;stroke-dasharray:none;stroke-opacity:1" />
        </g>
      </g>
      <path
         fill="none"
         stroke-width="0.502"
         stroke-linecap="butt"
         stroke-linejoin="miter"
         stroke="#000000"
         stroke-opacity="1"
         stroke-miterlimit="10"
         d="m 32.261719,7.6858439 h 4.609375"
         id="path48"
         transform="scale(0.352778)"
         style="stroke:#140000;stroke-width:0.420542;stroke-dasharray:none;stroke-opacity:1" />
      <g
         fill="#000000"
         fill-opacity="1"
         id="g52"
         transform="matrix(0.352778,0,0,0.352778,-0.28112,0.0669396)"
         style="stroke:#140000;stroke-width:0.420542;stroke-dasharray:none;stroke-opacity:1">
        <g
           id="use50"
           transform="translate(33.058998,14.608)"
           style="stroke:#140000;stroke-width:0.420542;stroke-dasharray:none;stroke-opacity:1">
          <path
             d="m 4.140625,-1.59375 h -0.25 C 3.875,-1.46875 3.796875,-0.9375 3.6875,-0.796875 3.625,-0.71875 3.015625,-0.71875 2.828125,-0.71875 H 1.234375 L 2.125,-1.5625 c 1.46875,-1.265625 2.015625,-1.75 2.015625,-2.65625 0,-1.03125 -0.84375,-1.75 -1.953125,-1.75 -1.03125,0 -1.734375,0.8125 -1.734375,1.625 0,0.453125 0.390625,0.5 0.46875,0.5 0.203125,0 0.46875,-0.140625 0.46875,-0.46875 0,-0.265625 -0.1875,-0.46875 -0.46875,-0.46875 -0.046875,0 -0.0625,0 -0.109375,0.015625 C 1.03125,-5.40625 1.609375,-5.6875 2.09375,-5.6875 c 0.90625,0 1.21875,0.84375 1.21875,1.46875 0,0.90625 -0.6875,1.65625 -1.109375,2.125 L 0.5625,-0.328125 C 0.453125,-0.21875 0.453125,-0.203125 0.453125,0 h 3.4375 z m 0,0"
             id="path80"
             style="stroke:#140000;stroke-width:0.420542;stroke-dasharray:none;stroke-opacity:1" />
        </g>
      </g>
      <g
         clip-path="url(#clipPath5725)"
         id="g58"
         transform="matrix(0.352778,0,0,0.352778,-0.28112,0.0669396)"
         style="stroke:#140000;stroke-width:0.420542;stroke-dasharray:none;stroke-opacity:1">
        <g
           fill="#000000"
           fill-opacity="1"
           id="g56"
           style="stroke:#140000;stroke-width:0.420542;stroke-dasharray:none;stroke-opacity:1">
          <g
             id="use54"
             transform="translate(14.341,25.181999)"
             style="stroke:#140000;stroke-width:0.420542;stroke-dasharray:none;stroke-opacity:1">
            <path
               d="m 3.4375,-7.65625 c 0,-0.28125 0,-0.296875 -0.234375,-0.296875 C 2.921875,-7.625 2.3125,-7.1875 1.09375,-7.1875 v 0.34375 c 0.265625,0 0.859375,0 1.53125,-0.296875 v 6.21875 c 0,0.4375 -0.046875,0.578125 -1.09375,0.578125 h -0.375 V 0 c 0.328125,-0.03125 1.484375,-0.03125 1.875,-0.03125 0.40625,0 1.546875,0 1.875,0.03125 v -0.34375 h -0.375 c -1.046875,0 -1.09375,-0.140625 -1.09375,-0.578125 z m 0,0"
               id="path84"
               style="stroke:#140000;stroke-width:0.420542;stroke-dasharray:none;stroke-opacity:1" />
          </g>
        </g>
      </g>
    </g>
    <g
       inkscape:label=""
       transform="translate(205.66171,34.643177)"
       id="g8599"
       style="stroke:#140000;stroke-width:0.148358;stroke-dasharray:none;stroke-opacity:1">
      <g
         fill="#000000"
         fill-opacity="1"
         id="g8563"
         transform="matrix(0.352778,0,0,0.352778,-0.28112,0.0669396)"
         style="stroke:#140000;stroke-width:0.420542;stroke-dasharray:none;stroke-opacity:1">
        <g
           id="g8561"
           transform="translate(0,20.538)"
           style="stroke:#140000;stroke-width:0.420542;stroke-dasharray:none;stroke-opacity:1">
          <path
             d="m 8.609375,-6.953125 c -0.015625,-0.0625 -0.09375,-0.1875 -0.09375,-0.25 0,-0.015625 0.03125,-0.03125 0.3125,-0.25 L 10.5,-8.765625 c 2.3125,-1.796875 3.0625,-2.390625 4.25,-2.5 0.125,-0.01563 0.296875,-0.01563 0.296875,-0.3125 0,-0.09375 -0.04687,-0.1875 -0.1875,-0.1875 -0.1875,0 -0.390625,0.04687 -0.578125,0.04687 H 13.625 c -0.53125,0 -1.109375,-0.04687 -1.625,-0.04687 -0.125,0 -0.328125,0 -0.328125,0.3125 0,0.171875 0.125,0.1875 0.21875,0.1875 0.203125,0.01563 0.421875,0.09375 0.421875,0.328125 0,0.34375 -0.515625,0.765625 -0.65625,0.859375 l -6.75,5.25 L 6.34375,-10.5 c 0.140625,-0.59375 0.1875,-0.765625 1.40625,-0.765625 0.328125,0 0.484375,0 0.484375,-0.328125 0,-0.171875 -0.171875,-0.171875 -0.265625,-0.171875 -0.3125,0 -0.671875,0.04687 -1,0.04687 H 4.9375 c -0.3125,0 -0.6875,-0.04687 -1,-0.04687 -0.125,0 -0.328125,0 -0.328125,0.328125 0,0.171875 0.15625,0.171875 0.421875,0.171875 1.046875,0 1.046875,0.140625 1.046875,0.328125 0,0.03125 0,0.140625 -0.0625,0.40625 l -2.328125,9.25 C 2.53125,-0.671875 2.5,-0.5 1.296875,-0.5 c -0.328125,0 -0.5,0 -0.5,0.3125 0,0.1875 0.15625,0.1875 0.25,0.1875 0.328125,0 0.671875,-0.03125 1,-0.03125 H 4.0625 C 4.390625,-0.03125 4.75,0 5.078125,0 5.21875,0 5.40625,0 5.40625,-0.328125 5.40625,-0.5 5.25,-0.5 5,-0.5 c -1.0625,0 -1.0625,-0.140625 -1.0625,-0.3125 0,-0.125 0.109375,-0.546875 0.171875,-0.828125 L 4.78125,-4.3125 l 2.625,-2.046875 c 0.5,1.109375 1.40625,3.3125 2.109375,5 0.0625,0.109375 0.09375,0.203125 0.09375,0.328125 0,0.515625 -0.6875,0.53125 -0.84375,0.53125 -0.15625,0 -0.328125,0 -0.328125,0.328125 C 8.4375,0 8.625,0 8.671875,0 c 0.609375,0 1.25,-0.03125 1.84375,-0.03125 H 11.34375 C 11.609375,-0.03125 11.890625,0 12.15625,0 12.265625,0 12.453125,0 12.453125,-0.328125 12.453125,-0.5 12.296875,-0.5 12.125,-0.5 11.484375,-0.515625 11.265625,-0.65625 11,-1.28125 Z m 0,0"
             id="path8559"
             style="stroke:#140000;stroke-width:0.420542;stroke-dasharray:none;stroke-opacity:1" />
        </g>
      </g>
      <g
         fill="#000000"
         fill-opacity="1"
         id="g8569"
         transform="matrix(0.352778,0,0,0.352778,-0.28112,0.0669396)"
         style="stroke:#140000;stroke-width:0.420542;stroke-dasharray:none;stroke-opacity:1">
        <g
           id="g8567"
           transform="translate(15.577,10.486)"
           style="stroke:#140000;stroke-width:0.420542;stroke-dasharray:none;stroke-opacity:1">
          <path
             d="M 2.46875,-3.5 C 2.484375,-3.578125 2.78125,-4.171875 3.234375,-4.546875 3.53125,-4.84375 3.9375,-5.03125 4.40625,-5.03125 c 0.484375,0 0.65625,0.359375 0.65625,0.828125 0,0.6875 -0.5,2.046875 -0.734375,2.703125 -0.109375,0.28125 -0.171875,0.4375 -0.171875,0.65625 0,0.53125 0.375,0.96875 0.953125,0.96875 1.109375,0 1.53125,-1.765625 1.53125,-1.828125 0,-0.0625 -0.046875,-0.109375 -0.125,-0.109375 -0.109375,0 -0.125,0.03125 -0.1875,0.234375 C 6.0625,-0.59375 5.609375,-0.125 5.140625,-0.125 c -0.125,0 -0.3125,0 -0.3125,-0.390625 0,-0.296875 0.125,-0.65625 0.203125,-0.828125 C 5.265625,-2 5.765625,-3.328125 5.765625,-4.015625 c 0,-0.71875 -0.40625,-1.25 -1.3125,-1.25 -1.078125,0 -1.625,0.75 -1.84375,1.046875 -0.046875,-0.6875 -0.53125,-1.046875 -1.0625,-1.046875 -0.375,0 -0.640625,0.21875 -0.84375,0.625 -0.21875,0.4375 -0.375,1.15625 -0.375,1.203125 0,0.046875 0.046875,0.109375 0.125,0.109375 0.09375,0 0.109375,-0.015625 0.1875,-0.296875 0.1875,-0.71875 0.40625,-1.40625 0.875,-1.40625 0.28125,0 0.375,0.1875 0.375,0.546875 0,0.265625 -0.125,0.734375 -0.203125,1.109375 l -0.34375,1.28125 c -0.046875,0.234375 -0.171875,0.765625 -0.234375,0.984375 -0.078125,0.3125 -0.21875,0.875 -0.21875,0.9375 0,0.15625 0.140625,0.296875 0.3125,0.296875 0.140625,0 0.3125,-0.078125 0.40625,-0.25 C 1.640625,-0.1875 1.75,-0.609375 1.8125,-0.84375 l 0.25,-1.078125 z m 0,0"
             id="path8565"
             style="stroke:#140000;stroke-width:0.420542;stroke-dasharray:none;stroke-opacity:1" />
        </g>
      </g>
      <g
         fill="#000000"
         fill-opacity="1"
         id="g8575"
         transform="matrix(0.352778,0,0,0.352778,-0.28112,0.0669396)"
         style="stroke:#140000;stroke-width:0.420542;stroke-dasharray:none;stroke-opacity:1">
        <g
           id="g8573"
           transform="translate(22.565001,10.486)"
           style="stroke:#140000;stroke-width:0.420542;stroke-dasharray:none;stroke-opacity:1">
          <path
             d="m 7.875,-2.75 c 0.203125,0 0.421875,0 0.421875,-0.234375 0,-0.25 -0.21875,-0.25 -0.421875,-0.25 H 1.40625 c -0.203125,0 -0.421875,0 -0.421875,0.25 0,0.234375 0.21875,0.234375 0.421875,0.234375 z m 0,0"
             id="path8571"
             style="stroke:#140000;stroke-width:0.420542;stroke-dasharray:none;stroke-opacity:1" />
        </g>
      </g>
      <g
         fill="#000000"
         fill-opacity="1"
         id="g8581"
         transform="matrix(0.352778,0,0,0.352778,-0.28112,0.0669396)"
         style="stroke:#140000;stroke-width:0.420542;stroke-dasharray:none;stroke-opacity:1">
        <g
           id="g8579"
           transform="translate(33.058998,5.7789998)"
           style="stroke:#140000;stroke-width:0.420542;stroke-dasharray:none;stroke-opacity:1">
          <path
             d="m 2.71875,-5.734375 c 0,-0.21875 0,-0.234375 -0.21875,-0.234375 -0.5625,0.5625 -1.390625,0.5625 -1.671875,0.5625 V -5.125 c 0.171875,0 0.71875,0 1.203125,-0.234375 v 4.640625 c 0,0.328125 -0.015625,0.4375 -0.859375,0.4375 H 0.890625 V 0 c 0.3125,-0.03125 1.125,-0.03125 1.484375,-0.03125 0.375,0 1.171875,0 1.5,0.03125 V -0.28125 H 3.59375 c -0.84375,0 -0.875,-0.109375 -0.875,-0.4375 z m 0,0"
             id="path8577"
             style="stroke:#140000;stroke-width:0.420542;stroke-dasharray:none;stroke-opacity:1" />
        </g>
      </g>
      <path
         fill="none"
         stroke-width="0.502"
         stroke-linecap="butt"
         stroke-linejoin="miter"
         stroke="#000000"
         stroke-opacity="1"
         stroke-miterlimit="10"
         d="m 32.261719,7.6858439 h 4.609375"
         id="path8583"
         transform="scale(0.352778)"
         style="stroke:#140000;stroke-width:0.420542;stroke-dasharray:none;stroke-opacity:1" />
      <g
         fill="#000000"
         fill-opacity="1"
         id="g8589"
         transform="matrix(0.352778,0,0,0.352778,-0.28112,0.0669396)"
         style="stroke:#140000;stroke-width:0.420542;stroke-dasharray:none;stroke-opacity:1">
        <g
           id="g8587"
           transform="translate(33.058998,14.608)"
           style="stroke:#140000;stroke-width:0.420542;stroke-dasharray:none;stroke-opacity:1">
          <path
             d="m 4.140625,-1.59375 h -0.25 C 3.875,-1.46875 3.796875,-0.9375 3.6875,-0.796875 3.625,-0.71875 3.015625,-0.71875 2.828125,-0.71875 H 1.234375 L 2.125,-1.5625 c 1.46875,-1.265625 2.015625,-1.75 2.015625,-2.65625 0,-1.03125 -0.84375,-1.75 -1.953125,-1.75 -1.03125,0 -1.734375,0.8125 -1.734375,1.625 0,0.453125 0.390625,0.5 0.46875,0.5 0.203125,0 0.46875,-0.140625 0.46875,-0.46875 0,-0.265625 -0.1875,-0.46875 -0.46875,-0.46875 -0.046875,0 -0.0625,0 -0.109375,0.015625 C 1.03125,-5.40625 1.609375,-5.6875 2.09375,-5.6875 c 0.90625,0 1.21875,0.84375 1.21875,1.46875 0,0.90625 -0.6875,1.65625 -1.109375,2.125 L 0.5625,-0.328125 C 0.453125,-0.21875 0.453125,-0.203125 0.453125,0 h 3.4375 z m 0,0"
             id="path8585"
             style="stroke:#140000;stroke-width:0.420542;stroke-dasharray:none;stroke-opacity:1" />
        </g>
      </g>
      <g
         clip-path="url(#clipPath806)"
         id="g8597"
         transform="matrix(0.352778,0,0,0.352778,-0.28112,0.0669396)"
         style="stroke:#140000;stroke-width:0.420542;stroke-dasharray:none;stroke-opacity:1">
        <g
           fill="#000000"
           fill-opacity="1"
           id="g8595"
           style="stroke:#140000;stroke-width:0.420542;stroke-dasharray:none;stroke-opacity:1">
          <g
             id="g8593"
             transform="translate(14.341,25.181999)"
             style="stroke:#140000;stroke-width:0.420542;stroke-dasharray:none;stroke-opacity:1">
            <path
               d="M 5.265625,-2.015625 H 5 c -0.046875,0.203125 -0.140625,0.875 -0.25,1.0625 C 4.65625,-0.84375 3.984375,-0.84375 3.625,-0.84375 H 1.40625 c 0.328125,-0.28125 1.0625,-1.046875 1.359375,-1.328125 1.828125,-1.671875 2.5,-2.296875 2.5,-3.484375 0,-1.375 -1.09375,-2.296875 -2.484375,-2.296875 -1.375,0 -2.203125,1.1875 -2.203125,2.21875 0,0.609375 0.53125,0.609375 0.5625,0.609375 0.265625,0 0.5625,-0.1875 0.5625,-0.5625 0,-0.34375 -0.21875,-0.5625 -0.5625,-0.5625 -0.09375,0 -0.125,0 -0.15625,0.015625 0.21875,-0.8125 0.875,-1.375 1.640625,-1.375 1.015625,0 1.640625,0.859375 1.640625,1.953125 C 4.265625,-4.640625 3.6875,-3.75 3,-2.984375 L 0.578125,-0.28125 V 0 h 4.375 z m 0,0"
               id="path8591"
               style="stroke:#140000;stroke-width:0.420542;stroke-dasharray:none;stroke-opacity:1" />
          </g>
        </g>
      </g>
    </g>
    <g
       inkscape:label=""
       transform="translate(233.03245,11.080785)"
       id="g9066"
       style="stroke:#140000;stroke-width:0.148358;stroke-dasharray:none;stroke-opacity:1">
      <g
         fill="#000000"
         fill-opacity="1"
         id="g9030"
         transform="matrix(0.352778,0,0,0.352778,-0.28112,0.0669396)"
         style="stroke:#140000;stroke-width:0.420542;stroke-dasharray:none;stroke-opacity:1">
        <g
           id="g9028"
           transform="translate(0,20.538)"
           style="stroke:#140000;stroke-width:0.420542;stroke-dasharray:none;stroke-opacity:1">
          <path
             d="m 8.609375,-6.953125 c -0.015625,-0.0625 -0.09375,-0.1875 -0.09375,-0.25 0,-0.015625 0.03125,-0.03125 0.3125,-0.25 L 10.5,-8.765625 c 2.3125,-1.796875 3.0625,-2.390625 4.25,-2.5 0.125,-0.01563 0.296875,-0.01563 0.296875,-0.3125 0,-0.09375 -0.04687,-0.1875 -0.1875,-0.1875 -0.1875,0 -0.390625,0.04687 -0.578125,0.04687 H 13.625 c -0.53125,0 -1.109375,-0.04687 -1.625,-0.04687 -0.125,0 -0.328125,0 -0.328125,0.3125 0,0.171875 0.125,0.1875 0.21875,0.1875 0.203125,0.01563 0.421875,0.09375 0.421875,0.328125 0,0.34375 -0.515625,0.765625 -0.65625,0.859375 l -6.75,5.25 L 6.34375,-10.5 c 0.140625,-0.59375 0.1875,-0.765625 1.40625,-0.765625 0.328125,0 0.484375,0 0.484375,-0.328125 0,-0.171875 -0.171875,-0.171875 -0.265625,-0.171875 -0.3125,0 -0.671875,0.04687 -1,0.04687 H 4.9375 c -0.3125,0 -0.6875,-0.04687 -1,-0.04687 -0.125,0 -0.328125,0 -0.328125,0.328125 0,0.171875 0.15625,0.171875 0.421875,0.171875 1.046875,0 1.046875,0.140625 1.046875,0.328125 0,0.03125 0,0.140625 -0.0625,0.40625 l -2.328125,9.25 C 2.53125,-0.671875 2.5,-0.5 1.296875,-0.5 c -0.328125,0 -0.5,0 -0.5,0.3125 0,0.1875 0.15625,0.1875 0.25,0.1875 0.328125,0 0.671875,-0.03125 1,-0.03125 H 4.0625 C 4.390625,-0.03125 4.75,0 5.078125,0 5.21875,0 5.40625,0 5.40625,-0.328125 5.40625,-0.5 5.25,-0.5 5,-0.5 c -1.0625,0 -1.0625,-0.140625 -1.0625,-0.3125 0,-0.125 0.109375,-0.546875 0.171875,-0.828125 L 4.78125,-4.3125 l 2.625,-2.046875 c 0.5,1.109375 1.40625,3.3125 2.109375,5 0.0625,0.109375 0.09375,0.203125 0.09375,0.328125 0,0.515625 -0.6875,0.53125 -0.84375,0.53125 -0.15625,0 -0.328125,0 -0.328125,0.328125 C 8.4375,0 8.625,0 8.671875,0 c 0.609375,0 1.25,-0.03125 1.84375,-0.03125 H 11.34375 C 11.609375,-0.03125 11.890625,0 12.15625,0 12.265625,0 12.453125,0 12.453125,-0.328125 12.453125,-0.5 12.296875,-0.5 12.125,-0.5 11.484375,-0.515625 11.265625,-0.65625 11,-1.28125 Z m 0,0"
             id="path9026"
             style="stroke:#140000;stroke-width:0.420542;stroke-dasharray:none;stroke-opacity:1" />
        </g>
      </g>
      <g
         fill="#000000"
         fill-opacity="1"
         id="g9036"
         transform="matrix(0.352778,0,0,0.352778,-0.28112,0.0669396)"
         style="stroke:#140000;stroke-width:0.420542;stroke-dasharray:none;stroke-opacity:1">
        <g
           id="g9034"
           transform="translate(15.577,10.486)"
           style="stroke:#140000;stroke-width:0.420542;stroke-dasharray:none;stroke-opacity:1">
          <path
             d="M 2.46875,-3.5 C 2.484375,-3.578125 2.78125,-4.171875 3.234375,-4.546875 3.53125,-4.84375 3.9375,-5.03125 4.40625,-5.03125 c 0.484375,0 0.65625,0.359375 0.65625,0.828125 0,0.6875 -0.5,2.046875 -0.734375,2.703125 -0.109375,0.28125 -0.171875,0.4375 -0.171875,0.65625 0,0.53125 0.375,0.96875 0.953125,0.96875 1.109375,0 1.53125,-1.765625 1.53125,-1.828125 0,-0.0625 -0.046875,-0.109375 -0.125,-0.109375 -0.109375,0 -0.125,0.03125 -0.1875,0.234375 C 6.0625,-0.59375 5.609375,-0.125 5.140625,-0.125 c -0.125,0 -0.3125,0 -0.3125,-0.390625 0,-0.296875 0.125,-0.65625 0.203125,-0.828125 C 5.265625,-2 5.765625,-3.328125 5.765625,-4.015625 c 0,-0.71875 -0.40625,-1.25 -1.3125,-1.25 -1.078125,0 -1.625,0.75 -1.84375,1.046875 -0.046875,-0.6875 -0.53125,-1.046875 -1.0625,-1.046875 -0.375,0 -0.640625,0.21875 -0.84375,0.625 -0.21875,0.4375 -0.375,1.15625 -0.375,1.203125 0,0.046875 0.046875,0.109375 0.125,0.109375 0.09375,0 0.109375,-0.015625 0.1875,-0.296875 0.1875,-0.71875 0.40625,-1.40625 0.875,-1.40625 0.28125,0 0.375,0.1875 0.375,0.546875 0,0.265625 -0.125,0.734375 -0.203125,1.109375 l -0.34375,1.28125 c -0.046875,0.234375 -0.171875,0.765625 -0.234375,0.984375 -0.078125,0.3125 -0.21875,0.875 -0.21875,0.9375 0,0.15625 0.140625,0.296875 0.3125,0.296875 0.140625,0 0.3125,-0.078125 0.40625,-0.25 C 1.640625,-0.1875 1.75,-0.609375 1.8125,-0.84375 l 0.25,-1.078125 z m 0,0"
             id="path9032"
             style="stroke:#140000;stroke-width:0.420542;stroke-dasharray:none;stroke-opacity:1" />
        </g>
      </g>
      <g
         fill="#000000"
         fill-opacity="1"
         id="g9042"
         transform="matrix(0.352778,0,0,0.352778,-0.28112,0.0669396)"
         style="stroke:#140000;stroke-width:0.420542;stroke-dasharray:none;stroke-opacity:1">
        <g
           id="g9040"
           transform="translate(22.565001,10.486)"
           style="stroke:#140000;stroke-width:0.420542;stroke-dasharray:none;stroke-opacity:1">
          <path
             d="m 7.875,-2.75 c 0.203125,0 0.421875,0 0.421875,-0.234375 0,-0.25 -0.21875,-0.25 -0.421875,-0.25 H 1.40625 c -0.203125,0 -0.421875,0 -0.421875,0.25 0,0.234375 0.21875,0.234375 0.421875,0.234375 z m 0,0"
             id="path9038"
             style="stroke:#140000;stroke-width:0.420542;stroke-dasharray:none;stroke-opacity:1" />
        </g>
      </g>
      <g
         fill="#000000"
         fill-opacity="1"
         id="g9048"
         transform="matrix(0.352778,0,0,0.352778,-0.28112,0.0669396)"
         style="stroke:#140000;stroke-width:0.420542;stroke-dasharray:none;stroke-opacity:1">
        <g
           id="g9046"
           transform="translate(33.058998,5.7789998)"
           style="stroke:#140000;stroke-width:0.420542;stroke-dasharray:none;stroke-opacity:1">
          <path
             d="m 2.71875,-5.734375 c 0,-0.21875 0,-0.234375 -0.21875,-0.234375 -0.5625,0.5625 -1.390625,0.5625 -1.671875,0.5625 V -5.125 c 0.171875,0 0.71875,0 1.203125,-0.234375 v 4.640625 c 0,0.328125 -0.015625,0.4375 -0.859375,0.4375 H 0.890625 V 0 c 0.3125,-0.03125 1.125,-0.03125 1.484375,-0.03125 0.375,0 1.171875,0 1.5,0.03125 V -0.28125 H 3.59375 c -0.84375,0 -0.875,-0.109375 -0.875,-0.4375 z m 0,0"
             id="path9044"
             style="stroke:#140000;stroke-width:0.420542;stroke-dasharray:none;stroke-opacity:1" />
        </g>
      </g>
      <path
         fill="none"
         stroke-width="0.502"
         stroke-linecap="butt"
         stroke-linejoin="miter"
         stroke="#000000"
         stroke-opacity="1"
         stroke-miterlimit="10"
         d="m 32.261719,7.6858439 h 4.609375"
         id="path9050"
         transform="scale(0.352778)"
         style="stroke:#140000;stroke-width:0.420542;stroke-dasharray:none;stroke-opacity:1" />
      <g
         fill="#000000"
         fill-opacity="1"
         id="g9056"
         transform="matrix(0.352778,0,0,0.352778,-0.28112,0.0669396)"
         style="stroke:#140000;stroke-width:0.420542;stroke-dasharray:none;stroke-opacity:1">
        <g
           id="g9054"
           transform="translate(33.058998,14.608)"
           style="stroke:#140000;stroke-width:0.420542;stroke-dasharray:none;stroke-opacity:1">
          <path
             d="m 4.140625,-1.59375 h -0.25 C 3.875,-1.46875 3.796875,-0.9375 3.6875,-0.796875 3.625,-0.71875 3.015625,-0.71875 2.828125,-0.71875 H 1.234375 L 2.125,-1.5625 c 1.46875,-1.265625 2.015625,-1.75 2.015625,-2.65625 0,-1.03125 -0.84375,-1.75 -1.953125,-1.75 -1.03125,0 -1.734375,0.8125 -1.734375,1.625 0,0.453125 0.390625,0.5 0.46875,0.5 0.203125,0 0.46875,-0.140625 0.46875,-0.46875 0,-0.265625 -0.1875,-0.46875 -0.46875,-0.46875 -0.046875,0 -0.0625,0 -0.109375,0.015625 C 1.03125,-5.40625 1.609375,-5.6875 2.09375,-5.6875 c 0.90625,0 1.21875,0.84375 1.21875,1.46875 0,0.90625 -0.6875,1.65625 -1.109375,2.125 L 0.5625,-0.328125 C 0.453125,-0.21875 0.453125,-0.203125 0.453125,0 h 3.4375 z m 0,0"
             id="path9052"
             style="stroke:#140000;stroke-width:0.420542;stroke-dasharray:none;stroke-opacity:1" />
        </g>
      </g>
      <g
         clip-path="url(#clipPath2160)"
         id="g9064"
         transform="matrix(0.352778,0,0,0.352778,-0.28112,0.0669396)"
         style="stroke:#140000;stroke-width:0.420542;stroke-dasharray:none;stroke-opacity:1">
        <g
           fill="#000000"
           fill-opacity="1"
           id="g9062"
           style="stroke:#140000;stroke-width:0.420542;stroke-dasharray:none;stroke-opacity:1">
          <g
             id="g9060"
             transform="translate(14.341,25.181999)"
             style="stroke:#140000;stroke-width:0.420542;stroke-dasharray:none;stroke-opacity:1">
            <path
               d="m 2.203125,-4.296875 c -0.203125,0.015625 -0.25,0.03125 -0.25,0.140625 0,0.109375 0.0625,0.109375 0.265625,0.109375 h 0.546875 c 1.03125,0 1.484375,0.84375 1.484375,1.984375 0,1.578125 -0.8125,1.984375 -1.40625,1.984375 -0.578125,0 -1.546875,-0.265625 -1.90625,-1.0625 0.390625,0.0625 0.734375,-0.15625 0.734375,-0.578125 0,-0.34375 -0.25,-0.59375 -0.578125,-0.59375 -0.296875,0 -0.609375,0.171875 -0.609375,0.625 0,1.0625 1.0625,1.9375 2.390625,1.9375 1.421875,0 2.484375,-1.09375 2.484375,-2.296875 C 5.359375,-3.140625 4.46875,-4 3.328125,-4.203125 4.359375,-4.5 5.03125,-5.375 5.03125,-6.3125 c 0,-0.9375 -0.984375,-1.640625 -2.140625,-1.640625 -1.1875,0 -2.078125,0.734375 -2.078125,1.609375 0,0.46875 0.375,0.578125 0.546875,0.578125 0.25,0 0.546875,-0.1875 0.546875,-0.546875 0,-0.375 -0.296875,-0.546875 -0.5625,-0.546875 -0.0625,0 -0.09375,0 -0.125,0.015625 0.453125,-0.8125 1.578125,-0.8125 1.640625,-0.8125 0.390625,0 1.171875,0.171875 1.171875,1.34375 0,0.234375 -0.03125,0.890625 -0.390625,1.40625 C 3.28125,-4.375 2.875,-4.34375 2.5625,-4.328125 Z m 0,0"
               id="path9058"
               style="stroke:#140000;stroke-width:0.420542;stroke-dasharray:none;stroke-opacity:1" />
          </g>
        </g>
      </g>
    </g>
    <g
       inkscape:label=""
       transform="translate(256.60056,30.698804)"
       id="g9579"
       style="stroke:#140000;stroke-width:0.148358;stroke-dasharray:none;stroke-opacity:1">
      <g
         fill="#000000"
         fill-opacity="1"
         id="g9543"
         transform="matrix(0.352778,0,0,0.352778,-0.28112,0.0669396)"
         style="stroke:#140000;stroke-width:0.420542;stroke-dasharray:none;stroke-opacity:1">
        <g
           id="g9541"
           transform="translate(0,20.538)"
           style="stroke:#140000;stroke-width:0.420542;stroke-dasharray:none;stroke-opacity:1">
          <path
             d="m 8.609375,-6.953125 c -0.015625,-0.0625 -0.09375,-0.1875 -0.09375,-0.25 0,-0.015625 0.03125,-0.03125 0.3125,-0.25 L 10.5,-8.765625 c 2.3125,-1.796875 3.0625,-2.390625 4.25,-2.5 0.125,-0.01563 0.296875,-0.01563 0.296875,-0.3125 0,-0.09375 -0.04687,-0.1875 -0.1875,-0.1875 -0.1875,0 -0.390625,0.04687 -0.578125,0.04687 H 13.625 c -0.53125,0 -1.109375,-0.04687 -1.625,-0.04687 -0.125,0 -0.328125,0 -0.328125,0.3125 0,0.171875 0.125,0.1875 0.21875,0.1875 0.203125,0.01563 0.421875,0.09375 0.421875,0.328125 0,0.34375 -0.515625,0.765625 -0.65625,0.859375 l -6.75,5.25 L 6.34375,-10.5 c 0.140625,-0.59375 0.1875,-0.765625 1.40625,-0.765625 0.328125,0 0.484375,0 0.484375,-0.328125 0,-0.171875 -0.171875,-0.171875 -0.265625,-0.171875 -0.3125,0 -0.671875,0.04687 -1,0.04687 H 4.9375 c -0.3125,0 -0.6875,-0.04687 -1,-0.04687 -0.125,0 -0.328125,0 -0.328125,0.328125 0,0.171875 0.15625,0.171875 0.421875,0.171875 1.046875,0 1.046875,0.140625 1.046875,0.328125 0,0.03125 0,0.140625 -0.0625,0.40625 l -2.328125,9.25 C 2.53125,-0.671875 2.5,-0.5 1.296875,-0.5 c -0.328125,0 -0.5,0 -0.5,0.3125 0,0.1875 0.15625,0.1875 0.25,0.1875 0.328125,0 0.671875,-0.03125 1,-0.03125 H 4.0625 C 4.390625,-0.03125 4.75,0 5.078125,0 5.21875,0 5.40625,0 5.40625,-0.328125 5.40625,-0.5 5.25,-0.5 5,-0.5 c -1.0625,0 -1.0625,-0.140625 -1.0625,-0.3125 0,-0.125 0.109375,-0.546875 0.171875,-0.828125 L 4.78125,-4.3125 l 2.625,-2.046875 c 0.5,1.109375 1.40625,3.3125 2.109375,5 0.0625,0.109375 0.09375,0.203125 0.09375,0.328125 0,0.515625 -0.6875,0.53125 -0.84375,0.53125 -0.15625,0 -0.328125,0 -0.328125,0.328125 C 8.4375,0 8.625,0 8.671875,0 c 0.609375,0 1.25,-0.03125 1.84375,-0.03125 H 11.34375 C 11.609375,-0.03125 11.890625,0 12.15625,0 12.265625,0 12.453125,0 12.453125,-0.328125 12.453125,-0.5 12.296875,-0.5 12.125,-0.5 11.484375,-0.515625 11.265625,-0.65625 11,-1.28125 Z m 0,0"
             id="path9539"
             style="stroke:#140000;stroke-width:0.420542;stroke-dasharray:none;stroke-opacity:1" />
        </g>
      </g>
      <g
         fill="#000000"
         fill-opacity="1"
         id="g9549"
         transform="matrix(0.352778,0,0,0.352778,-0.28112,0.0669396)"
         style="stroke:#140000;stroke-width:0.420542;stroke-dasharray:none;stroke-opacity:1">
        <g
           id="g9547"
           transform="translate(15.577,10.486)"
           style="stroke:#140000;stroke-width:0.420542;stroke-dasharray:none;stroke-opacity:1">
          <path
             d="M 2.46875,-3.5 C 2.484375,-3.578125 2.78125,-4.171875 3.234375,-4.546875 3.53125,-4.84375 3.9375,-5.03125 4.40625,-5.03125 c 0.484375,0 0.65625,0.359375 0.65625,0.828125 0,0.6875 -0.5,2.046875 -0.734375,2.703125 -0.109375,0.28125 -0.171875,0.4375 -0.171875,0.65625 0,0.53125 0.375,0.96875 0.953125,0.96875 1.109375,0 1.53125,-1.765625 1.53125,-1.828125 0,-0.0625 -0.046875,-0.109375 -0.125,-0.109375 -0.109375,0 -0.125,0.03125 -0.1875,0.234375 C 6.0625,-0.59375 5.609375,-0.125 5.140625,-0.125 c -0.125,0 -0.3125,0 -0.3125,-0.390625 0,-0.296875 0.125,-0.65625 0.203125,-0.828125 C 5.265625,-2 5.765625,-3.328125 5.765625,-4.015625 c 0,-0.71875 -0.40625,-1.25 -1.3125,-1.25 -1.078125,0 -1.625,0.75 -1.84375,1.046875 -0.046875,-0.6875 -0.53125,-1.046875 -1.0625,-1.046875 -0.375,0 -0.640625,0.21875 -0.84375,0.625 -0.21875,0.4375 -0.375,1.15625 -0.375,1.203125 0,0.046875 0.046875,0.109375 0.125,0.109375 0.09375,0 0.109375,-0.015625 0.1875,-0.296875 0.1875,-0.71875 0.40625,-1.40625 0.875,-1.40625 0.28125,0 0.375,0.1875 0.375,0.546875 0,0.265625 -0.125,0.734375 -0.203125,1.109375 l -0.34375,1.28125 c -0.046875,0.234375 -0.171875,0.765625 -0.234375,0.984375 -0.078125,0.3125 -0.21875,0.875 -0.21875,0.9375 0,0.15625 0.140625,0.296875 0.3125,0.296875 0.140625,0 0.3125,-0.078125 0.40625,-0.25 C 1.640625,-0.1875 1.75,-0.609375 1.8125,-0.84375 l 0.25,-1.078125 z m 0,0"
             id="path9545"
             style="stroke:#140000;stroke-width:0.420542;stroke-dasharray:none;stroke-opacity:1" />
        </g>
      </g>
      <g
         fill="#000000"
         fill-opacity="1"
         id="g9555"
         transform="matrix(0.352778,0,0,0.352778,-0.28112,0.0669396)"
         style="stroke:#140000;stroke-width:0.420542;stroke-dasharray:none;stroke-opacity:1">
        <g
           id="g9553"
           transform="translate(22.565001,10.486)"
           style="stroke:#140000;stroke-width:0.420542;stroke-dasharray:none;stroke-opacity:1">
          <path
             d="m 7.875,-2.75 c 0.203125,0 0.421875,0 0.421875,-0.234375 0,-0.25 -0.21875,-0.25 -0.421875,-0.25 H 1.40625 c -0.203125,0 -0.421875,0 -0.421875,0.25 0,0.234375 0.21875,0.234375 0.421875,0.234375 z m 0,0"
             id="path9551"
             style="stroke:#140000;stroke-width:0.420542;stroke-dasharray:none;stroke-opacity:1" />
        </g>
      </g>
      <g
         fill="#000000"
         fill-opacity="1"
         id="g9561"
         transform="matrix(0.352778,0,0,0.352778,-0.28112,0.0669396)"
         style="stroke:#140000;stroke-width:0.420542;stroke-dasharray:none;stroke-opacity:1">
        <g
           id="g9559"
           transform="translate(33.058998,5.7789998)"
           style="stroke:#140000;stroke-width:0.420542;stroke-dasharray:none;stroke-opacity:1">
          <path
             d="m 2.71875,-5.734375 c 0,-0.21875 0,-0.234375 -0.21875,-0.234375 -0.5625,0.5625 -1.390625,0.5625 -1.671875,0.5625 V -5.125 c 0.171875,0 0.71875,0 1.203125,-0.234375 v 4.640625 c 0,0.328125 -0.015625,0.4375 -0.859375,0.4375 H 0.890625 V 0 c 0.3125,-0.03125 1.125,-0.03125 1.484375,-0.03125 0.375,0 1.171875,0 1.5,0.03125 V -0.28125 H 3.59375 c -0.84375,0 -0.875,-0.109375 -0.875,-0.4375 z m 0,0"
             id="path9557"
             style="stroke:#140000;stroke-width:0.420542;stroke-dasharray:none;stroke-opacity:1" />
        </g>
      </g>
      <path
         fill="none"
         stroke-width="0.502"
         stroke-linecap="butt"
         stroke-linejoin="miter"
         stroke="#000000"
         stroke-opacity="1"
         stroke-miterlimit="10"
         d="m 32.261719,7.6858439 h 4.609375"
         id="path9563"
         transform="scale(0.352778)"
         style="stroke:#140000;stroke-width:0.420542;stroke-dasharray:none;stroke-opacity:1" />
      <g
         fill="#000000"
         fill-opacity="1"
         id="g9569"
         transform="matrix(0.352778,0,0,0.352778,-0.28112,0.0669396)"
         style="stroke:#140000;stroke-width:0.420542;stroke-dasharray:none;stroke-opacity:1">
        <g
           id="g9567"
           transform="translate(33.058998,14.608)"
           style="stroke:#140000;stroke-width:0.420542;stroke-dasharray:none;stroke-opacity:1">
          <path
             d="m 4.140625,-1.59375 h -0.25 C 3.875,-1.46875 3.796875,-0.9375 3.6875,-0.796875 3.625,-0.71875 3.015625,-0.71875 2.828125,-0.71875 H 1.234375 L 2.125,-1.5625 c 1.46875,-1.265625 2.015625,-1.75 2.015625,-2.65625 0,-1.03125 -0.84375,-1.75 -1.953125,-1.75 -1.03125,0 -1.734375,0.8125 -1.734375,1.625 0,0.453125 0.390625,0.5 0.46875,0.5 0.203125,0 0.46875,-0.140625 0.46875,-0.46875 0,-0.265625 -0.1875,-0.46875 -0.46875,-0.46875 -0.046875,0 -0.0625,0 -0.109375,0.015625 C 1.03125,-5.40625 1.609375,-5.6875 2.09375,-5.6875 c 0.90625,0 1.21875,0.84375 1.21875,1.46875 0,0.90625 -0.6875,1.65625 -1.109375,2.125 L 0.5625,-0.328125 C 0.453125,-0.21875 0.453125,-0.203125 0.453125,0 h 3.4375 z m 0,0"
             id="path9565"
             style="stroke:#140000;stroke-width:0.420542;stroke-dasharray:none;stroke-opacity:1" />
        </g>
      </g>
      <g
         clip-path="url(#clipPath5300)"
         id="g9577"
         transform="matrix(0.352778,0,0,0.352778,-0.28112,0.0669396)"
         style="stroke:#140000;stroke-width:0.420542;stroke-dasharray:none;stroke-opacity:1">
        <g
           fill="#000000"
           fill-opacity="1"
           id="g9575"
           style="stroke:#140000;stroke-width:0.420542;stroke-dasharray:none;stroke-opacity:1">
          <g
             id="g9573"
             transform="translate(14.341,25.181999)"
             style="stroke:#140000;stroke-width:0.420542;stroke-dasharray:none;stroke-opacity:1">
            <path
               d="m 4.3125,-7.78125 c 0,-0.234375 0,-0.28125 -0.171875,-0.28125 -0.09375,0 -0.125,0 -0.21875,0.140625 L 0.328125,-2.34375 V -2 H 3.46875 v 1.09375 c 0,0.4375 -0.03125,0.5625 -0.90625,0.5625 H 2.328125 V 0 c 0.28125,-0.03125 1.21875,-0.03125 1.5625,-0.03125 0.328125,0 1.28125,0 1.5625,0.03125 V -0.34375 H 5.21875 c -0.875,0 -0.90625,-0.125 -0.90625,-0.5625 V -2 H 5.515625 V -2.34375 H 4.3125 Z m -0.78125,0.9375 v 4.5 H 0.625 Z m 0,0"
               id="path9571"
               style="stroke:#140000;stroke-width:0.420542;stroke-dasharray:none;stroke-opacity:1" />
          </g>
        </g>
      </g>
    </g>
  </g>
</svg>
