<?xml version="1.0" encoding="UTF-8" standalone="no"?>
<svg
   width="232.8988pt"
   height="235.3293pt"
   viewBox="0 0 232.89881 235.3293"
   version="1.1"
   id="svg1006"
   sodipodi:docname="out.svg"
   inkscape:version="1.2.2 (732a01da63, 2022-12-09, custom)"
   xmlns:inkscape="http://www.inkscape.org/namespaces/inkscape"
   xmlns:sodipodi="http://sodipodi.sourceforge.net/DTD/sodipodi-0.dtd"
   xmlns:xlink="http://www.w3.org/1999/xlink"
   xmlns="http://www.w3.org/2000/svg"
   xmlns:svg="http://www.w3.org/2000/svg"
   xmlns:rdf="http://www.w3.org/1999/02/22-rdf-syntax-ns#"
   xmlns:cc="http://creativecommons.org/ns#"
   xmlns:dc="http://purl.org/dc/elements/1.1/">
  <sodipodi:namedview
     id="namedview1008"
     pagecolor="#ffffff"
     bordercolor="#000000"
     borderopacity="0.25"
     inkscape:showpageshadow="2"
     inkscape:pageopacity="0.0"
     inkscape:pagecheckerboard="0"
     inkscape:deskcolor="#d1d1d1"
     inkscape:document-units="pt"
     showgrid="false"
     inkscape:zoom="1.7100694"
     inkscape:cx="143.26904"
     inkscape:cy="160.5198"
     inkscape:window-width="1846"
     inkscape:window-height="1016"
     inkscape:window-x="0"
     inkscape:window-y="0"
     inkscape:window-maximized="1"
     inkscape:current-layer="figure_1" />
  <metadata
     id="metadata875">
    <rdf:RDF>
      <cc:Work>
        <dc:type
           rdf:resource="http://purl.org/dc/dcmitype/StillImage" />
        <dc:date>2023-08-31T10:56:57.067470</dc:date>
        <dc:format>image/svg+xml</dc:format>
        <dc:creator>
          <cc:Agent>
            <dc:title>Matplotlib v3.6.2, https://matplotlib.org/</dc:title>
          </cc:Agent>
        </dc:creator>
      </cc:Work>
    </rdf:RDF>
  </metadata>
  <defs
     id="defs879">
    <style
       type="text/css"
       id="style877">*{stroke-linejoin: round; stroke-linecap: butt}</style>
  </defs>
  <g
     id="figure_1"
     transform="translate(-122.84354,-52.515188)">
    <g
       id="axes_1">
      <g
         id="PolyCollection_1">
        <path
           d="M 347.04,285.408 V 63.648 l -221.76,221.76 z"
           clip-path="url(#p2e5473b1b3)"
           style="fill:#ffffff;stroke:#000000"
           id="path884" />
        <path
           d="m 125.28,63.648 v 221.76 L 347.04,63.648 Z"
           clip-path="url(#p2e5473b1b3)"
           style="fill:#ffffff;stroke:#000000"
           id="path886" />
      </g>
      <g
         id="PathCollection_1">
        <defs
           id="defs890">
          <path
             id="m735721df82"
             d="m 0,1.732051 c 0.459345,0 0.899939,-0.1825 1.224745,-0.507306 C 1.549551,0.899939 1.732051,0.459345 1.732051,0 c 0,-0.459345 -0.1825,-0.899939 -0.507306,-1.224745 C 0.899939,-1.549551 0.459345,-1.732051 0,-1.732051 c -0.459345,0 -0.899939,0.1825 -1.224745,0.507306 -0.324806,0.324806 -0.507306,0.7654 -0.507306,1.224745 0,0.459345 0.1825,0.899939 0.507306,1.224745 C -0.899939,1.549551 -0.459345,1.732051 0,1.732051 Z"
             style="stroke:#ff0000" />
        </defs>
        <g
           clip-path="url(#p2e5473b1b3)"
           id="g900">
          <use
             xlink:href="#m735721df82"
             x="125.28"
             y="285.40799"
             style="fill:#ff0000;stroke:#ff0000"
             id="use892" />
          <use
             xlink:href="#m735721df82"
             x="125.28"
             y="63.647999"
             style="fill:#ff0000;stroke:#ff0000"
             id="use894" />
          <use
             xlink:href="#m735721df82"
             x="347.04001"
             y="285.40799"
             style="fill:#ff0000;stroke:#ff0000"
             id="use896" />
          <use
             xlink:href="#m735721df82"
             x="347.04001"
             y="63.647999"
             style="fill:#ff0000;stroke:#ff0000"
             id="use898" />
        </g>
      </g>
      <g
         id="PathCollection_2">
        <defs
           id="defs904">
          <path
             id="m7793fe605a"
             d="M 0,-1.936492 -1.936492,1.936492 H 1.936492 Z"
             style="stroke:#008000" />
        </defs>
        <g
           clip-path="url(#p2e5473b1b3)"
           id="g916">
          <use
             xlink:href="#m7793fe605a"
             x="125.28"
             y="174.528"
             style="fill:#008000;stroke:#008000"
             id="use906" />
          <use
             xlink:href="#m7793fe605a"
             x="236.16"
             y="285.40799"
             style="fill:#008000;stroke:#008000"
             id="use908" />
          <use
             xlink:href="#m7793fe605a"
             x="236.16"
             y="174.528"
             style="fill:#008000;stroke:#008000"
             id="use910" />
          <use
             xlink:href="#m7793fe605a"
             x="236.16"
             y="63.647999"
             style="fill:#008000;stroke:#008000"
             id="use912" />
          <use
             xlink:href="#m7793fe605a"
             x="347.04001"
             y="174.528"
             style="fill:#008000;stroke:#008000"
             id="use914" />
        </g>
      </g>
      <g
         id="PathCollection_3">
        <defs
           id="defs920">
          <path
             id="m764571985a"
             d="M -2.291288,2.291288 H 2.291288 V -2.291288 H -2.291288 Z"
             style="stroke:#0000ff" />
        </defs>
        <g
           clip-path="url(#p2e5473b1b3)"
           id="g926">
          <use
             xlink:href="#m764571985a"
             x="273.12"
             y="211.48801"
             style="fill:#0000ff;stroke:#0000ff"
             id="use922" />
          <use
             xlink:href="#m764571985a"
             x="199.2"
             y="137.56799"
             style="fill:#0000ff;stroke:#0000ff"
             id="use924" />
        </g>
      </g>
      <g
         id="text_1">
        <!-- 0 -->
        <g
           style="fill:#ff0000"
           transform="matrix(0.12,0,0,-0.12,125.28,285.408)"
           id="g934">
          <defs
             id="defs930">
            <path
               id="DejaVuSans-30"
               d="m 2034,4250 q -487,0 -733,-480 -245,-479 -245,-1442 0,-959 245,-1439 246,-480 733,-480 491,0 736,480 246,480 246,1439 0,963 -246,1442 -245,480 -736,480 z m 0,500 q 785,0 1199,-621 414,-620 414,-1801 0,-1178 -414,-1799 -414,-620 -1199,-620 -784,0 -1198,620 -414,621 -414,1799 0,1181 414,1801 414,621 1198,621 z"
               transform="scale(0.015625)" />
          </defs>
          <use
             xlink:href="#DejaVuSans-30"
             id="use932" />
        </g>
      </g>
      <g
         id="text_2">
        <!-- 1 -->
        <g
           style="fill:#ff0000"
           transform="matrix(0.12,0,0,-0.12,125.28,63.648)"
           id="g942">
          <defs
             id="defs938">
            <path
               id="DejaVuSans-31"
               d="M 794,531 H 1825 V 4091 L 703,3866 v 575 l 1116,225 h 631 V 531 H 3481 V 0 H 794 Z"
               transform="scale(0.015625)" />
          </defs>
          <use
             xlink:href="#DejaVuSans-31"
             id="use940" />
        </g>
      </g>
      <g
         id="text_3">
        <!-- 2 -->
        <g
           style="fill:#ff0000"
           transform="matrix(0.12,0,0,-0.12,347.04,285.408)"
           id="g950">
          <defs
             id="defs946">
            <path
               id="DejaVuSans-32"
               d="M 1228,531 H 3431 V 0 H 469 v 531 q 359,372 979,998 621,627 780,809 303,340 423,576 121,236 121,464 0,372 -261,606 -261,235 -680,235 -297,0 -627,-103 -329,-103 -704,-313 v 638 q 381,153 712,231 332,78 607,78 725,0 1156,-363 431,-362 431,-968 0,-288 -108,-546 -107,-257 -392,-607 -78,-91 -497,-524 Q 1991,1309 1228,531 Z"
               transform="scale(0.015625)" />
          </defs>
          <use
             xlink:href="#DejaVuSans-32"
             id="use948" />
        </g>
      </g>
      <g
         id="text_4">
        <!-- 3 -->
        <g
           style="fill:#ff0000"
           transform="matrix(0.12,0,0,-0.12,347.04,63.648)"
           id="g958">
          <defs
             id="defs954">
            <path
               id="DejaVuSans-33"
               d="m 2597,2516 q 453,-97 707,-404 255,-306 255,-756 0,-690 -475,-1069 -475,-378 -1350,-378 -293,0 -604,58 -311,58 -642,174 v 609 q 262,-153 574,-231 313,-78 654,-78 593,0 904,234 311,234 311,681 0,413 -289,645 -289,233 -804,233 h -544 v 519 h 569 q 465,0 712,186 247,186 247,536 0,359 -255,551 -254,193 -729,193 -260,0 -557,-57 -297,-56 -653,-174 v 562 q 360,100 674,150 314,50 592,50 719,0 1137,-327 419,-326 419,-882 0,-388 -222,-655 -222,-267 -631,-370 z"
               transform="scale(0.015625)" />
          </defs>
          <use
             xlink:href="#DejaVuSans-33"
             id="use956" />
        </g>
      </g>
      <g
         id="text_5">
        <!-- 0 -->
        <g
           style="fill:#008000"
           transform="matrix(0.15,0,0,-0.15,125.28,174.528)"
           id="g963">
          <use
             xlink:href="#DejaVuSans-30"
             id="use961" />
        </g>
      </g>
      <g
         id="text_6">
        <!-- 1 -->
        <g
           style="fill:#008000"
           transform="matrix(0.15,0,0,-0.15,236.16,285.408)"
           id="g968">
          <use
             xlink:href="#DejaVuSans-31"
             id="use966" />
        </g>
      </g>
      <g
         id="text_7">
        <!-- 2 -->
        <g
           style="fill:#008000"
           transform="matrix(0.15,0,0,-0.15,236.16,174.528)"
           id="g973">
          <use
             xlink:href="#DejaVuSans-32"
             id="use971" />
        </g>
      </g>
      <g
         id="text_8">
        <!-- 3 -->
        <g
           style="fill:#008000"
           transform="matrix(0.15,0,0,-0.15,236.16,63.648)"
           id="g978">
          <use
             xlink:href="#DejaVuSans-33"
             id="use976" />
        </g>
      </g>
      <g
         id="text_9">
        <!-- 4 -->
        <g
           style="fill:#008000"
           transform="matrix(0.15,0,0,-0.15,347.04,174.528)"
           id="g986">
          <defs
             id="defs982">
            <path
               id="DejaVuSans-34"
               d="M 2419,4116 825,1625 h 1594 z m -166,550 h 794 V 1625 h 666 V 1100 H 3047 V 0 H 2419 V 1100 H 313 v 609 z"
               transform="scale(0.015625)" />
          </defs>
          <use
             xlink:href="#DejaVuSans-34"
             id="use984" />
        </g>
      </g>
      <g
         id="text_10">
        <!-- 0 -->
        <g
           style="fill:#0000ff"
           transform="matrix(0.21,0,0,-0.21,273.12,211.488)"
           id="g991">
          <use
             xlink:href="#DejaVuSans-30"
             id="use989" />
        </g>
      </g>
      <g
         id="text_11">
        <!-- 1 -->
        <g
           style="fill:#0000ff"
           transform="matrix(0.21,0,0,-0.21,199.2,137.568)"
           id="g996">
          <use
             xlink:href="#DejaVuSans-31"
             id="use994" />
        </g>
      </g>
    </g>
  </g>
  <defs
     id="defs1004">
    <clipPath
       id="p2e5473b1b3">
      <rect
         x="103.104"
         y="41.472"
         width="266.112"
         height="266.112"
         id="rect1001" />
    </clipPath>
  </defs>
</svg>
