<?xml version="1.0" encoding="UTF-8" standalone="no"?>
<svg
   width="238.29994pt"
   height="232.89828pt"
   viewBox="0 0 238.29995 232.89828"
   version="1.1"
   id="svg199"
   sodipodi:docname="out1.svg"
   inkscape:export-filename="../820971fd/third-order.pdf"
   inkscape:export-xdpi="96"
   inkscape:export-ydpi="96"
   inkscape:version="1.2.2 (732a01da63, 2022-12-09, custom)"
   xmlns:inkscape="http://www.inkscape.org/namespaces/inkscape"
   xmlns:sodipodi="http://sodipodi.sourceforge.net/DTD/sodipodi-0.dtd"
   xmlns:xlink="http://www.w3.org/1999/xlink"
   xmlns="http://www.w3.org/2000/svg"
   xmlns:svg="http://www.w3.org/2000/svg"
   xmlns:rdf="http://www.w3.org/1999/02/22-rdf-syntax-ns#"
   xmlns:cc="http://creativecommons.org/ns#"
   xmlns:dc="http://purl.org/dc/elements/1.1/">
  <sodipodi:namedview
     id="namedview201"
     pagecolor="#ffffff"
     bordercolor="#000000"
     borderopacity="0.25"
     inkscape:showpageshadow="2"
     inkscape:pageopacity="0.0"
     inkscape:pagecheckerboard="0"
     inkscape:deskcolor="#d1d1d1"
     inkscape:document-units="pt"
     showgrid="false"
     inkscape:zoom="1.7100694"
     inkscape:cx="142.68427"
     inkscape:cy="157.59594"
     inkscape:window-width="1846"
     inkscape:window-height="1016"
     inkscape:window-x="0"
     inkscape:window-y="0"
     inkscape:window-maximized="1"
     inkscape:current-layer="figure_1" />
  <metadata
     id="metadata18">
    <rdf:RDF>
      <cc:Work>
        <dc:type
           rdf:resource="http://purl.org/dc/dcmitype/StillImage" />
        <dc:date>2023-09-01T11:45:25.849920</dc:date>
        <dc:format>image/svg+xml</dc:format>
        <dc:creator>
          <cc:Agent>
            <dc:title>Matplotlib v3.6.2, https://matplotlib.org/</dc:title>
          </cc:Agent>
        </dc:creator>
      </cc:Work>
    </rdf:RDF>
  </metadata>
  <defs
     id="defs22">
    <style
       type="text/css"
       id="style20">*{stroke-linejoin: round; stroke-linecap: butt}</style>
  </defs>
  <g
     id="figure_1"
     transform="translate(-123.04795,-54.74175)">
    <g
       id="axes_1">
      <g
         id="PolyCollection_1">
        <path
           d="M 347.04,285.408 V 63.648 l -221.76,221.76 z"
           clip-path="url(#pc700433b05)"
           style="fill:#ffffff;stroke:#000000"
           id="path27" />
        <path
           d="m 125.28,63.648 v 221.76 L 347.04,63.648 Z"
           clip-path="url(#pc700433b05)"
           style="fill:#ffffff;stroke:#000000"
           id="path29" />
      </g>
      <g
         id="PathCollection_1">
        <defs
           id="defs33">
          <path
             id="md9ed5da366"
             d="m 0,1.732051 c 0.459345,0 0.899939,-0.1825 1.224745,-0.507306 C 1.549551,0.899939 1.732051,0.459345 1.732051,0 c 0,-0.459345 -0.1825,-0.899939 -0.507306,-1.224745 C 0.899939,-1.549551 0.459345,-1.732051 0,-1.732051 c -0.459345,0 -0.899939,0.1825 -1.224745,0.507306 -0.324806,0.324806 -0.507306,0.7654 -0.507306,1.224745 0,0.459345 0.1825,0.899939 0.507306,1.224745 C -0.899939,1.549551 -0.459345,1.732051 0,1.732051 Z"
             style="stroke:#ff0000" />
        </defs>
        <g
           clip-path="url(#pc700433b05)"
           id="g67">
          <use
             xlink:href="#md9ed5da366"
             x="125.28"
             y="285.40799"
             style="fill:#ff0000;stroke:#ff0000"
             id="use35" />
          <use
             xlink:href="#md9ed5da366"
             x="125.28"
             y="63.647999"
             style="fill:#ff0000;stroke:#ff0000"
             id="use37" />
          <use
             xlink:href="#md9ed5da366"
             x="347.04001"
             y="285.40799"
             style="fill:#ff0000;stroke:#ff0000"
             id="use39" />
          <use
             xlink:href="#md9ed5da366"
             x="347.04001"
             y="63.647999"
             style="fill:#ff0000;stroke:#ff0000"
             id="use41" />
          <use
             xlink:href="#md9ed5da366"
             x="125.28"
             y="137.56799"
             style="fill:#ff0000;stroke:#ff0000"
             id="use43" />
          <use
             xlink:href="#md9ed5da366"
             x="125.28"
             y="211.48801"
             style="fill:#ff0000;stroke:#ff0000"
             id="use45" />
          <use
             xlink:href="#md9ed5da366"
             x="199.2"
             y="285.40799"
             style="fill:#ff0000;stroke:#ff0000"
             id="use47" />
          <use
             xlink:href="#md9ed5da366"
             x="273.12"
             y="285.40799"
             style="fill:#ff0000;stroke:#ff0000"
             id="use49" />
          <use
             xlink:href="#md9ed5da366"
             x="273.12"
             y="137.56799"
             style="fill:#ff0000;stroke:#ff0000"
             id="use51" />
          <use
             xlink:href="#md9ed5da366"
             x="199.2"
             y="211.48801"
             style="fill:#ff0000;stroke:#ff0000"
             id="use53" />
          <use
             xlink:href="#md9ed5da366"
             x="273.12"
             y="63.647999"
             style="fill:#ff0000;stroke:#ff0000"
             id="use55" />
          <use
             xlink:href="#md9ed5da366"
             x="199.2"
             y="63.647999"
             style="fill:#ff0000;stroke:#ff0000"
             id="use57" />
          <use
             xlink:href="#md9ed5da366"
             x="347.04001"
             y="211.48801"
             style="fill:#ff0000;stroke:#ff0000"
             id="use59" />
          <use
             xlink:href="#md9ed5da366"
             x="347.04001"
             y="137.56799"
             style="fill:#ff0000;stroke:#ff0000"
             id="use61" />
          <use
             xlink:href="#md9ed5da366"
             x="273.12"
             y="211.48801"
             style="fill:#ff0000;stroke:#ff0000"
             id="use63" />
          <use
             xlink:href="#md9ed5da366"
             x="199.2"
             y="137.56799"
             style="fill:#ff0000;stroke:#ff0000"
             id="use65" />
        </g>
      </g>
      <g
         id="text_1">
        <!-- 0 -->
        <g
           style="fill:#ff0000"
           transform="matrix(0.12,0,0,-0.12,125.28,285.408)"
           id="g75">
          <defs
             id="defs71">
            <path
               id="DejaVuSans-30"
               d="m 2034,4250 q -487,0 -733,-480 -245,-479 -245,-1442 0,-959 245,-1439 246,-480 733,-480 491,0 736,480 246,480 246,1439 0,963 -246,1442 -245,480 -736,480 z m 0,500 q 785,0 1199,-621 414,-620 414,-1801 0,-1178 -414,-1799 -414,-620 -1199,-620 -784,0 -1198,620 -414,621 -414,1799 0,1181 414,1801 414,621 1198,621 z"
               transform="scale(0.015625)" />
          </defs>
          <use
             xlink:href="#DejaVuSans-30"
             id="use73" />
        </g>
      </g>
      <g
         id="text_2">
        <!-- 1 -->
        <g
           style="fill:#ff0000"
           transform="matrix(0.12,0,0,-0.12,125.28,63.648)"
           id="g83">
          <defs
             id="defs79">
            <path
               id="DejaVuSans-31"
               d="M 794,531 H 1825 V 4091 L 703,3866 v 575 l 1116,225 h 631 V 531 H 3481 V 0 H 794 Z"
               transform="scale(0.015625)" />
          </defs>
          <use
             xlink:href="#DejaVuSans-31"
             id="use81" />
        </g>
      </g>
      <g
         id="text_3">
        <!-- 2 -->
        <g
           style="fill:#ff0000"
           transform="matrix(0.12,0,0,-0.12,347.04,285.408)"
           id="g91">
          <defs
             id="defs87">
            <path
               id="DejaVuSans-32"
               d="M 1228,531 H 3431 V 0 H 469 v 531 q 359,372 979,998 621,627 780,809 303,340 423,576 121,236 121,464 0,372 -261,606 -261,235 -680,235 -297,0 -627,-103 -329,-103 -704,-313 v 638 q 381,153 712,231 332,78 607,78 725,0 1156,-363 431,-362 431,-968 0,-288 -108,-546 -107,-257 -392,-607 -78,-91 -497,-524 Q 1991,1309 1228,531 Z"
               transform="scale(0.015625)" />
          </defs>
          <use
             xlink:href="#DejaVuSans-32"
             id="use89" />
        </g>
      </g>
      <g
         id="text_4">
        <!-- 3 -->
        <g
           style="fill:#ff0000"
           transform="matrix(0.12,0,0,-0.12,347.04,63.648)"
           id="g99">
          <defs
             id="defs95">
            <path
               id="DejaVuSans-33"
               d="m 2597,2516 q 453,-97 707,-404 255,-306 255,-756 0,-690 -475,-1069 -475,-378 -1350,-378 -293,0 -604,58 -311,58 -642,174 v 609 q 262,-153 574,-231 313,-78 654,-78 593,0 904,234 311,234 311,681 0,413 -289,645 -289,233 -804,233 h -544 v 519 h 569 q 465,0 712,186 247,186 247,536 0,359 -255,551 -254,193 -729,193 -260,0 -557,-57 -297,-56 -653,-174 v 562 q 360,100 674,150 314,50 592,50 719,0 1137,-327 419,-326 419,-882 0,-388 -222,-655 -222,-267 -631,-370 z"
               transform="scale(0.015625)" />
          </defs>
          <use
             xlink:href="#DejaVuSans-33"
             id="use97" />
        </g>
      </g>
      <g
         id="text_5">
        <!-- 4 -->
        <g
           style="fill:#ff0000"
           transform="matrix(0.12,0,0,-0.12,125.28,137.568)"
           id="g107">
          <defs
             id="defs103">
            <path
               id="DejaVuSans-34"
               d="M 2419,4116 825,1625 h 1594 z m -166,550 h 794 V 1625 h 666 V 1100 H 3047 V 0 H 2419 V 1100 H 313 v 609 z"
               transform="scale(0.015625)" />
          </defs>
          <use
             xlink:href="#DejaVuSans-34"
             id="use105" />
        </g>
      </g>
      <g
         id="text_6">
        <!-- 5 -->
        <g
           style="fill:#ff0000"
           transform="matrix(0.12,0,0,-0.12,125.28,211.488)"
           id="g115">
          <defs
             id="defs111">
            <path
               id="DejaVuSans-35"
               d="M 691,4666 H 3169 V 4134 H 1269 V 2991 q 137,47 274,70 138,23 276,23 781,0 1237,-428 457,-428 457,-1159 Q 3513,744 3044,326 2575,-91 1722,-91 1428,-91 1123,-41 819,9 494,109 v 635 q 281,-153 581,-228 300,-75 634,-75 541,0 856,284 316,284 316,772 0,487 -316,771 -315,285 -856,285 -253,0 -505,-56 -251,-56 -513,-175 z"
               transform="scale(0.015625)" />
          </defs>
          <use
             xlink:href="#DejaVuSans-35"
             id="use113" />
        </g>
      </g>
      <g
         id="text_7">
        <!-- 6 -->
        <g
           style="fill:#ff0000"
           transform="matrix(0.12,0,0,-0.12,199.2,285.408)"
           id="g123">
          <defs
             id="defs119">
            <path
               id="DejaVuSans-36"
               d="m 2113,2584 q -425,0 -674,-291 -248,-290 -248,-796 0,-503 248,-796 249,-292 674,-292 425,0 673,292 248,293 248,796 0,506 -248,796 -248,291 -673,291 z m 1253,1979 v -575 q -238,112 -480,171 -242,60 -480,60 -625,0 -955,-422 -329,-422 -376,-1275 184,272 462,417 279,145 613,145 703,0 1111,-427 408,-426 408,-1160 0,-719 -425,-1154 -425,-434 -1131,-434 -810,0 -1238,620 -428,621 -428,1799 0,1106 525,1764 525,658 1409,658 238,0 480,-47 242,-47 505,-140 z"
               transform="scale(0.015625)" />
          </defs>
          <use
             xlink:href="#DejaVuSans-36"
             id="use121" />
        </g>
      </g>
      <g
         id="text_8">
        <!-- 7 -->
        <g
           style="fill:#ff0000"
           transform="matrix(0.12,0,0,-0.12,273.12,285.408)"
           id="g131">
          <defs
             id="defs127">
            <path
               id="DejaVuSans-37"
               d="M 525,4666 H 3525 V 4397 L 1831,0 H 1172 L 2766,4134 H 525 Z"
               transform="scale(0.015625)" />
          </defs>
          <use
             xlink:href="#DejaVuSans-37"
             id="use129" />
        </g>
      </g>
      <g
         id="text_9">
        <!-- 8 -->
        <g
           style="fill:#ff0000"
           transform="matrix(0.12,0,0,-0.12,273.12,137.568)"
           id="g139">
          <defs
             id="defs135">
            <path
               id="DejaVuSans-38"
               d="m 2034,2216 q -450,0 -708,-241 -257,-241 -257,-662 0,-422 257,-663 258,-241 708,-241 450,0 709,242 260,243 260,662 0,421 -258,662 -257,241 -711,241 z m -631,268 q -406,100 -633,378 -226,279 -226,679 0,559 398,884 399,325 1092,325 697,0 1094,-325 397,-325 397,-884 0,-400 -227,-679 -226,-278 -629,-378 456,-106 710,-416 255,-309 255,-755 Q 3634,634 3220,271 2806,-91 2034,-91 1263,-91 848,271 434,634 434,1313 q 0,446 256,755 257,310 713,416 z m -231,997 q 0,-362 226,-565 227,-203 636,-203 407,0 636,203 230,203 230,565 0,363 -230,566 -229,203 -636,203 -409,0 -636,-203 -226,-203 -226,-566 z"
               transform="scale(0.015625)" />
          </defs>
          <use
             xlink:href="#DejaVuSans-38"
             id="use137" />
        </g>
      </g>
      <g
         id="text_10">
        <!-- 9 -->
        <g
           style="fill:#ff0000"
           transform="matrix(0.12,0,0,-0.12,199.2,211.488)"
           id="g147">
          <defs
             id="defs143">
            <path
               id="DejaVuSans-39"
               d="m 703,97 v 575 q 238,-113 481,-172 244,-59 479,-59 625,0 954,420 330,420 377,1277 -181,-269 -460,-413 -278,-144 -615,-144 -700,0 -1108,423 -408,424 -408,1159 0,718 425,1152 425,435 1131,435 810,0 1236,-621 427,-620 427,-1801 Q 3622,1225 3098,567 2575,-91 1691,-91 1453,-91 1209,-44 966,3 703,97 Z m 1256,1978 q 425,0 673,290 249,291 249,798 0,503 -249,795 -248,292 -673,292 -425,0 -673,-292 -248,-292 -248,-795 0,-507 248,-798 248,-290 673,-290 z"
               transform="scale(0.015625)" />
          </defs>
          <use
             xlink:href="#DejaVuSans-39"
             id="use145" />
        </g>
      </g>
      <g
         id="text_11">
        <!-- 10 -->
        <g
           style="fill:#ff0000"
           transform="matrix(0.12,0,0,-0.12,273.12,63.648)"
           id="g154">
          <use
             xlink:href="#DejaVuSans-31"
             id="use150" />
          <use
             xlink:href="#DejaVuSans-30"
             x="63.623047"
             id="use152" />
        </g>
      </g>
      <g
         id="text_12">
        <!-- 11 -->
        <g
           style="fill:#ff0000"
           transform="matrix(0.12,0,0,-0.12,199.2,63.648)"
           id="g161">
          <use
             xlink:href="#DejaVuSans-31"
             id="use157" />
          <use
             xlink:href="#DejaVuSans-31"
             x="63.623047"
             id="use159" />
        </g>
      </g>
      <g
         id="text_13">
        <!-- 12 -->
        <g
           style="fill:#ff0000"
           transform="matrix(0.12,0,0,-0.12,347.04,211.488)"
           id="g168">
          <use
             xlink:href="#DejaVuSans-31"
             id="use164" />
          <use
             xlink:href="#DejaVuSans-32"
             x="63.623047"
             id="use166" />
        </g>
      </g>
      <g
         id="text_14">
        <!-- 13 -->
        <g
           style="fill:#ff0000"
           transform="matrix(0.12,0,0,-0.12,347.04,137.568)"
           id="g175">
          <use
             xlink:href="#DejaVuSans-31"
             id="use171" />
          <use
             xlink:href="#DejaVuSans-33"
             x="63.623047"
             id="use173" />
        </g>
      </g>
      <g
         id="text_15">
        <!-- 14 -->
        <g
           style="fill:#ff0000"
           transform="matrix(0.12,0,0,-0.12,273.12,211.488)"
           id="g182">
          <use
             xlink:href="#DejaVuSans-31"
             id="use178" />
          <use
             xlink:href="#DejaVuSans-34"
             x="63.623047"
             id="use180" />
        </g>
      </g>
      <g
         id="text_16">
        <!-- 15 -->
        <g
           style="fill:#ff0000"
           transform="matrix(0.12,0,0,-0.12,199.2,137.568)"
           id="g189">
          <use
             xlink:href="#DejaVuSans-31"
             id="use185" />
          <use
             xlink:href="#DejaVuSans-35"
             x="63.623047"
             id="use187" />
        </g>
      </g>
    </g>
  </g>
  <defs
     id="defs197">
    <clipPath
       id="pc700433b05">
      <rect
         x="103.104"
         y="41.472"
         width="266.112"
         height="266.112"
         id="rect194" />
    </clipPath>
  </defs>
</svg>
