<?xml version="1.0" encoding="UTF-8" standalone="no"?>
<!-- Created with Inkscape (http://www.inkscape.org/) -->

<svg
   width="107.41301mm"
   height="107.77911mm"
   viewBox="0 0 107.41301 107.77911"
   version="1.1"
   id="svg5943"
   inkscape:version="1.1.2 (0a00cf5339, 2022-02-04)"
   sodipodi:docname="polygon_normal_vector.svg"
   xmlns:inkscape="http://www.inkscape.org/namespaces/inkscape"
   xmlns:sodipodi="http://sodipodi.sourceforge.net/DTD/sodipodi-0.dtd"
   xmlns:xlink="http://www.w3.org/1999/xlink"
   xmlns="http://www.w3.org/2000/svg"
   xmlns:svg="http://www.w3.org/2000/svg">
  <sodipodi:namedview
     id="namedview5945"
     pagecolor="#ffffff"
     bordercolor="#000000"
     borderopacity="0.25"
     inkscape:showpageshadow="2"
     inkscape:pageopacity="0.0"
     inkscape:pagecheckerboard="0"
     inkscape:deskcolor="#d1d1d1"
     inkscape:document-units="mm"
     showgrid="false"
     inkscape:zoom="0.7786055"
     inkscape:cx="191.36777"
     inkscape:cy="221.54994"
     inkscape:window-width="1850"
     inkscape:window-height="1016"
     inkscape:window-x="0"
     inkscape:window-y="0"
     inkscape:window-maximized="1"
     inkscape:current-layer="g7992"
     inkscape:pageshadow="2" />
  <defs
     id="defs5940">
    <marker
       style="overflow:visible;"
       id="marker4500"
       refX="0.0"
       refY="0.0"
       orient="auto"
       inkscape:stockid="Arrow1Mend"
       inkscape:isstock="true">
      <path
         transform="scale(0.4) rotate(180) translate(10,0)"
         style="fill-rule:evenodd;fill:context-stroke;stroke:context-stroke;stroke-width:1.0pt;"
         d="M 0.0,0.0 L 5.0,-5.0 L -12.5,0.0 L 5.0,5.0 L 0.0,0.0 z "
         id="path4498" />
    </marker>
    <marker
       style="overflow:visible;"
       id="marker4254"
       refX="0.0"
       refY="0.0"
       orient="auto"
       inkscape:stockid="Arrow1Mend"
       inkscape:isstock="true">
      <path
         transform="scale(0.4) rotate(180) translate(10,0)"
         style="fill-rule:evenodd;fill:context-stroke;stroke:context-stroke;stroke-width:1.0pt;"
         d="M 0.0,0.0 L 5.0,-5.0 L -12.5,0.0 L 5.0,5.0 L 0.0,0.0 z "
         id="path4252" />
    </marker>
    <marker
       style="overflow:visible;"
       id="Arrow1Mend"
       refX="0.0"
       refY="0.0"
       orient="auto"
       inkscape:stockid="Arrow1Mend"
       inkscape:isstock="true">
      <path
         transform="scale(0.4) rotate(180) translate(10,0)"
         style="fill-rule:evenodd;fill:context-stroke;stroke:context-stroke;stroke-width:1.0pt;"
         d="M 0.0,0.0 L 5.0,-5.0 L -12.5,0.0 L 5.0,5.0 L 0.0,0.0 z "
         id="path3913" />
    </marker>
    <g
       id="g3416">
      <symbol
         overflow="visible"
         id="symbol9112">
        <path
           style="stroke:none;"
           d=""
           id="path8423" />
      </symbol>
      <symbol
         overflow="visible"
         id="symbol6302">
        <path
           style="stroke:none;"
           d="M 2.796875 -3.75 C 2.65625 -4.25 2.109375 -4.5 1.5625 -4.5 C 1.203125 -4.5 0.921875 -4.296875 0.703125 -3.9375 C 0.453125 -3.53125 0.3125 -3 0.3125 -2.953125 C 0.3125 -2.8125 0.46875 -2.8125 0.5625 -2.8125 C 0.671875 -2.8125 0.703125 -2.8125 0.75 -2.859375 C 0.78125 -2.875 0.78125 -2.90625 0.84375 -3.15625 C 1.03125 -3.921875 1.25 -4.140625 1.515625 -4.140625 C 1.671875 -4.140625 1.75 -4.046875 1.75 -3.78125 C 1.75 -3.609375 1.703125 -3.453125 1.609375 -3.046875 C 1.53125 -2.765625 1.4375 -2.375 1.390625 -2.15625 L 1.03125 -0.75 C 1 -0.625 0.953125 -0.421875 0.953125 -0.359375 C 0.953125 -0.15625 1.109375 0.078125 1.421875 0.078125 C 1.9375 0.078125 2.046875 -0.375 2.125 -0.671875 C 2.21875 -1.046875 2.296875 -1.359375 2.40625 -1.796875 C 2.4375 -1.921875 2.6875 -2.953125 2.71875 -2.984375 C 2.71875 -3.046875 3 -3.484375 3.328125 -3.765625 C 3.609375 -3.984375 3.9375 -4.140625 4.359375 -4.140625 C 4.609375 -4.140625 4.859375 -4.046875 4.859375 -3.5625 C 4.859375 -2.984375 4.421875 -1.828125 4.234375 -1.328125 C 4.109375 -1.0625 4.09375 -0.984375 4.09375 -0.8125 C 4.09375 -0.234375 4.671875 0.078125 5.21875 0.078125 C 6.265625 0.078125 6.765625 -1.28125 6.765625 -1.46875 C 6.765625 -1.609375 6.625 -1.609375 6.53125 -1.609375 C 6.40625 -1.609375 6.34375 -1.609375 6.296875 -1.484375 C 5.96875 -0.375 5.4375 -0.28125 5.28125 -0.28125 C 5.203125 -0.28125 5.109375 -0.28125 5.109375 -0.484375 C 5.109375 -0.71875 5.203125 -0.96875 5.296875 -1.21875 C 5.46875 -1.625 5.921875 -2.796875 5.921875 -3.34375 C 5.921875 -4.265625 5.15625 -4.5 4.4375 -4.5 C 4.234375 -4.5 3.5 -4.5 2.796875 -3.75 Z M 2.796875 -3.75 "
           id="path5658" />
      </symbol>
      <symbol
         overflow="visible"
         id="symbol7223">
        <path
           style="stroke:none;"
           d="M 2.515625 -3.953125 L 3.40625 -3.953125 C 3.59375 -3.953125 3.625 -3.953125 3.671875 -4 C 3.734375 -4.046875 3.765625 -4.1875 3.765625 -4.25 C 3.765625 -4.421875 3.59375 -4.421875 3.421875 -4.421875 L 2.625 -4.421875 L 2.953125 -5.71875 C 2.984375 -5.875 2.984375 -5.9375 2.984375 -5.96875 C 2.984375 -6.296875 2.734375 -6.40625 2.515625 -6.40625 C 2.375 -6.40625 2.109375 -6.34375 1.9375 -6.0625 C 1.90625 -5.984375 1.78125 -5.515625 1.71875 -5.25 L 1.515625 -4.421875 L 0.625 -4.421875 C 0.421875 -4.421875 0.25 -4.421875 0.25 -4.140625 C 0.25 -3.953125 0.40625 -3.953125 0.59375 -3.953125 L 1.390625 -3.953125 L 0.828125 -1.6875 C 0.75 -1.421875 0.65625 -1 0.65625 -0.890625 C 0.65625 -0.25 1.296875 0.078125 1.90625 0.078125 C 3.09375 0.078125 3.78125 -1.3125 3.78125 -1.46875 C 3.78125 -1.609375 3.625 -1.609375 3.53125 -1.609375 C 3.375 -1.609375 3.359375 -1.609375 3.296875 -1.453125 C 2.90625 -0.59375 2.359375 -0.28125 1.96875 -0.28125 C 1.875 -0.28125 1.71875 -0.28125 1.71875 -0.640625 C 1.71875 -0.84375 1.75 -0.953125 1.78125 -1.078125 Z M 2.515625 -3.953125 "
           id="path1382" />
      </symbol>
      <symbol
         overflow="visible"
         id="symbol2767">
        <path
           style="stroke:none;"
           d=""
           id="path7395" />
      </symbol>
      <symbol
         overflow="visible"
         id="symbol717">
        <path
           style="stroke:none;"
           d="M 1.5625 -1.59375 C 1.75 -1.59375 2.3125 -1.609375 2.6875 -1.734375 C 3.203125 -1.921875 3.296875 -2.25 3.296875 -2.453125 C 3.296875 -2.84375 2.90625 -3.078125 2.4375 -3.078125 C 1.59375 -3.078125 0.46875 -2.4375 0.46875 -1.234375 C 0.46875 -0.53125 0.90625 0.0625 1.71875 0.0625 C 2.90625 0.0625 3.453125 -0.625 3.453125 -0.71875 C 3.453125 -0.765625 3.390625 -0.84375 3.328125 -0.84375 C 3.296875 -0.84375 3.28125 -0.828125 3.21875 -0.765625 C 2.671875 -0.125 1.859375 -0.125 1.734375 -0.125 C 1.3125 -0.125 1.03125 -0.40625 1.03125 -0.96875 C 1.03125 -1.0625 1.03125 -1.203125 1.125 -1.59375 Z M 1.171875 -1.78125 C 1.46875 -2.796875 2.234375 -2.875 2.4375 -2.875 C 2.734375 -2.875 3 -2.71875 3 -2.453125 C 3 -1.78125 1.8125 -1.78125 1.515625 -1.78125 Z M 1.171875 -1.78125 "
           id="path8182" />
      </symbol>
      <symbol
         overflow="visible"
         id="symbol6348">
        <path
           style="stroke:none;"
           d="M 1.46875 -0.109375 C 1.46875 0.265625 1.40625 0.71875 0.921875 1.15625 C 0.90625 1.1875 0.875 1.21875 0.875 1.25 C 0.875 1.296875 0.9375 1.34375 0.96875 1.34375 C 1.078125 1.34375 1.671875 0.78125 1.671875 -0.046875 C 1.671875 -0.46875 1.5 -0.796875 1.171875 -0.796875 C 0.953125 -0.796875 0.78125 -0.625 0.78125 -0.40625 C 0.78125 -0.1875 0.9375 0 1.1875 0 C 1.359375 0 1.46875 -0.109375 1.46875 -0.109375 Z M 1.46875 -0.109375 "
           id="path1531" />
      </symbol>
      <symbol
         overflow="visible"
         id="symbol6457">
        <path
           style="stroke:none;"
           d="M 2.390625 -2.25 L 3.125 -2.25 C 3.65625 -2.25 3.75 -2.15625 3.75 -1.9375 C 3.75 -1.828125 3.75 -1.8125 3.703125 -1.609375 C 3.6875 -1.578125 3.671875 -1.546875 3.671875 -1.53125 C 3.671875 -1.46875 3.734375 -1.421875 3.796875 -1.421875 C 3.890625 -1.421875 3.890625 -1.46875 3.9375 -1.59375 L 4.3125 -3.0625 C 4.3125 -3.09375 4.328125 -3.1875 4.328125 -3.203125 C 4.328125 -3.28125 4.28125 -3.3125 4.21875 -3.3125 C 4.125 -3.3125 4.109375 -3.265625 4.078125 -3.140625 C 3.9375 -2.59375 3.734375 -2.5 3.140625 -2.5 L 2.453125 -2.5 L 2.890625 -4.25 C 2.9375 -4.453125 2.953125 -4.484375 3.234375 -4.484375 L 4.3125 -4.484375 C 5.234375 -4.484375 5.40625 -4.265625 5.40625 -3.671875 C 5.40625 -3.453125 5.375 -3.296875 5.375 -3.25 C 5.375 -3.1875 5.40625 -3.125 5.5 -3.125 C 5.609375 -3.125 5.609375 -3.1875 5.625 -3.3125 L 5.75 -4.515625 C 5.765625 -4.734375 5.71875 -4.734375 5.546875 -4.734375 L 1.828125 -4.734375 C 1.6875 -4.734375 1.609375 -4.734375 1.609375 -4.578125 C 1.609375 -4.484375 1.6875 -4.484375 1.828125 -4.484375 C 1.828125 -4.484375 1.96875 -4.484375 2.09375 -4.46875 C 2.234375 -4.453125 2.25 -4.4375 2.25 -4.375 C 2.25 -4.328125 2.234375 -4.25 2.21875 -4.21875 L 1.3125 -0.578125 C 1.234375 -0.296875 1.234375 -0.25 0.6875 -0.25 C 0.578125 -0.25 0.484375 -0.25 0.484375 -0.109375 C 0.484375 -0.03125 0.53125 0 0.59375 0 C 0.796875 0 1.3125 -0.03125 1.515625 -0.03125 L 2.046875 -0.015625 C 2.234375 -0.015625 2.421875 0 2.59375 0 C 2.640625 0 2.75 0 2.75 -0.15625 C 2.75 -0.25 2.671875 -0.25 2.515625 -0.25 C 2.5 -0.25 2.328125 -0.25 2.140625 -0.265625 C 2 -0.28125 1.9375 -0.28125 1.9375 -0.390625 C 1.9375 -0.40625 1.9375 -0.4375 1.953125 -0.515625 Z M 2.390625 -2.25 "
           id="path1554" />
      </symbol>
      <symbol
         overflow="visible"
         id="symbol2102">
        <path
           style="stroke:none;"
           d=""
           id="path2272" />
      </symbol>
      <symbol
         overflow="visible"
         id="symbol5623">
        <path
           style="stroke:none;"
           d="M 3.59375 -2.21875 C 3.59375 -2.984375 3.5 -3.546875 3.1875 -4.03125 C 2.96875 -4.34375 2.53125 -4.625 1.984375 -4.625 C 0.359375 -4.625 0.359375 -2.71875 0.359375 -2.21875 C 0.359375 -1.71875 0.359375 0.140625 1.984375 0.140625 C 3.59375 0.140625 3.59375 -1.71875 3.59375 -2.21875 Z M 1.984375 -0.0625 C 1.65625 -0.0625 1.234375 -0.25 1.09375 -0.8125 C 1 -1.21875 1 -1.796875 1 -2.3125 C 1 -2.828125 1 -3.359375 1.09375 -3.734375 C 1.25 -4.28125 1.6875 -4.4375 1.984375 -4.4375 C 2.359375 -4.4375 2.71875 -4.203125 2.84375 -3.796875 C 2.953125 -3.421875 2.96875 -2.921875 2.96875 -2.3125 C 2.96875 -1.796875 2.96875 -1.28125 2.875 -0.84375 C 2.734375 -0.203125 2.265625 -0.0625 1.984375 -0.0625 Z M 1.984375 -0.0625 "
           id="path1963" />
      </symbol>
      <symbol
         overflow="visible"
         id="symbol3247">
        <path
           style="stroke:none;"
           d="M 2.328125 -4.4375 C 2.328125 -4.625 2.328125 -4.625 2.125 -4.625 C 1.671875 -4.1875 1.046875 -4.1875 0.765625 -4.1875 L 0.765625 -3.9375 C 0.921875 -3.9375 1.390625 -3.9375 1.765625 -4.125 L 1.765625 -0.578125 C 1.765625 -0.34375 1.765625 -0.25 1.078125 -0.25 L 0.8125 -0.25 L 0.8125 0 C 0.9375 0 1.796875 -0.03125 2.046875 -0.03125 C 2.265625 -0.03125 3.140625 0 3.296875 0 L 3.296875 -0.25 L 3.03125 -0.25 C 2.328125 -0.25 2.328125 -0.34375 2.328125 -0.578125 Z M 2.328125 -4.4375 "
           id="path4976" />
      </symbol>
    </g>
  </defs>
  <g
     inkscape:label="Layer 1"
     inkscape:groupmode="layer"
     id="layer1"
     transform="translate(-44.1608, -57.2306)">
    <ellipse
       style="fill:#000000;fill-opacity:1;stroke:#000000;stroke-width:0.639576"
       id="path5226-5-5-26"
       cx="121.29784"
       cy="112.82557"
       rx="0.68021148"
       ry="0.6802116" />
    <ellipse
       style="fill:#000000;fill-opacity:1;stroke:#000000;stroke-width:0.639576"
       id="path5226-5-5-1"
       cx="60.937851"
       cy="122.00065"
       rx="0.68021148"
       ry="0.6802116" />
    <ellipse
       style="fill:#000000;fill-opacity:1;stroke:#000000;stroke-width:0.639576"
       id="path5226-5-5-0"
       cx="67.498505"
       cy="85.272476"
       rx="0.68021148"
       ry="0.6802116" />
    <ellipse
       style="fill:#000000;fill-opacity:1;stroke:#000000;stroke-width:0.639576"
       id="path5226-5-5-49"
       cx="105.76418"
       cy="79.926094"
       rx="0.68021148"
       ry="0.6802116" />
    <ellipse
       style="fill:#000000;fill-opacity:1;stroke:#000000;stroke-width:0.639576"
       id="path5226-5-5-490"
       cx="93.839951"
       cy="138.93153"
       rx="0.68021148"
       ry="0.6802116" />
    <g
       id="g7992"
       transform="matrix(0.189305 0 0 0.180527 159.428 -71.2173)">
      <g
         id="g7928"
         transform="translate(-589.12613,732.00965)">
        <path
           d="M 63.797,70.227 103.348,133.98 67.219,335.598 1.199,397.055"
           style="fill:none;stroke:#000000;stroke-width:1.45134;stroke-linecap:butt;stroke-linejoin:miter;stroke-miterlimit:4;stroke-dasharray:17.416, 17.416;stroke-dashoffset:0;stroke-opacity:1"
           id="path7930" />
      </g>
      <g
         id="g7932"
         transform="translate(-589.12613,732.00965)">
        <path
           d="m 67.375,336.613 173.879,94.512 47.359,119.762"
           style="fill:none;stroke:#000000;stroke-width:1.45134;stroke-linecap:butt;stroke-linejoin:miter;stroke-miterlimit:4;stroke-dasharray:17.416, 17.416;stroke-dashoffset:0;stroke-opacity:1"
           id="path7934" />
      </g>
      <g
         id="g7936"
         transform="translate(-589.12613,732.00965)">
        <path
           d="M 300.219,104.543 102.992,132.52"
           style="fill:none;stroke:#000000;stroke-width:1.45134;stroke-linecap:butt;stroke-linejoin:miter;stroke-miterlimit:4;stroke-dasharray:17.416, 17.416;stroke-dashoffset:0;stroke-opacity:1"
           id="path7938" />
      </g>
      <g
         id="g7962"
         transform="translate(-589.12613,732.00965)">
        <path
           d="m 524.574,158.227 3.043,155.984 -60.633,166.832"
           style="fill:none;stroke:#000000;stroke-width:1.15087;stroke-linecap:butt;stroke-linejoin:miter;stroke-miterlimit:4;stroke-dasharray:13.8104, 13.8104;stroke-dashoffset:0;stroke-opacity:1"
           id="path7964" />
      </g>
      <g
         id="g7966"
         transform="translate(-589.12613,732.00965)">
        <path
           d="M 388.668,286.473 301.305,104.215 385.355,20.492"
           style="fill:none;stroke:#000000;stroke-width:1.45134;stroke-linecap:butt;stroke-linejoin:miter;stroke-miterlimit:4;stroke-dasharray:17.416, 17.416;stroke-dashoffset:0;stroke-opacity:1"
           id="path7968" />
      </g>
      <path
         d="m -526.56413,801.87265 -61.039,166.129 135.165,30.399 147.839,-142.582 -48.539,-122.329 z"
         style="fill:none;fill-opacity:0.489026;fill-rule:evenodd;stroke:none"
         id="path7970" />
      <g
         id="g7972"
         transform="translate(-588.85313,732.13865)"
         style="fill:#ffffff;fill-opacity:0.551074">
        <path
           d="M 62.562,69.863 1.523,235.992 136.688,266.391 284.527,123.809 235.988,1.48 Z"
           style="fill:#ffffff;fill-opacity:0.551074;stroke:#000000;stroke-width:2.28472;stroke-linecap:butt;stroke-linejoin:miter;stroke-miterlimit:4;stroke-dasharray:none;stroke-opacity:1"
           id="path7974" />
      </g>
      <g
         id="g7976"
         transform="translate(-589.12613,732.00965)">
        <path
           d="M 242.465,430.848 388.543,286.676 527.344,313.551"
           style="fill:none;stroke:#000000;stroke-width:1.45134;stroke-linecap:butt;stroke-linejoin:miter;stroke-miterlimit:4;stroke-dasharray:17.416, 17.416;stroke-dashoffset:0;stroke-opacity:1"
           id="path7978" />
      </g>
      <path
         d="m -452.16513,998.52965 87.609,181.96395 200.848,-28.898 35.215,-201.10195 -176.039,-94.812 z"
         style="fill:none;fill-opacity:0.532031;fill-rule:evenodd;stroke:none"
         id="path7980" />
      <g
         id="g7982"
         transform="translate(-858.51654,1106.0734)"
         style="fill:#ffffff;fill-opacity:0.551074">
        <path
           d="m 406.04341,-108.23471 87.609,181.964004 200.848,-28.898 35.215,-201.102004 -176.039,-94.812 z"
           style="fill:#ffffff;fill-opacity:0.551074;stroke:#000000;stroke-width:2.28756;stroke-linecap:butt;stroke-linejoin:miter;stroke-miterlimit:4;stroke-dasharray:none;stroke-opacity:1"
           id="path7984" />
      </g>
      <g
         id="g7986"
         transform="matrix(1,-0.312477,0.312477,1,-589.12613,732.00965)">
        <path
           d="m 214.351,67.858 c -0.004,0.011 -0.01,0.017 -0.017,0.015 -0.008,10e-4 -0.014,-0.005 -0.015,-0.013 -0.002,-0.008 0.005,-0.018 0.016,-0.014 0.008,-0.002 0.014,0.004 0.016,0.012 z"
           style="fill:#80e673;fill-opacity:1;fill-rule:nonzero;stroke:#000000;stroke-width:0.715864;stroke-linecap:butt;stroke-linejoin:miter;stroke-miterlimit:4;stroke-dasharray:none;stroke-opacity:1"
           id="path7988" />
      </g>
      <path
         d="m -352.45413,733.38065 48.101,121.551 175.965,94.535 63.067005,-61.484 -137.692005,-136.039 z"
         style="fill:none;fill-opacity:0.504288;fill-rule:evenodd;stroke:none"
         id="path7990" />
      <path
         d="m -587.44213,968.19365 -0.079,162.54295 140.469,132.687 82.5,-82.926 -87.574,-181.40195 z"
         style="fill:none;fill-opacity:0.498328;fill-rule:evenodd;stroke:none"
         id="path7996" />
      <g
         id="g7998"
         transform="translate(-327.86909,600.47973)"
         style="fill:#ffffff;fill-opacity:0.551074">
        <path
           d="m -259.88504,367.01892 -0.079,162.543 140.469,132.687 82.500001,-82.926 -87.574001,-181.402 z"
           style="fill:#ffffff;fill-opacity:0.551074;stroke:#000000;stroke-width:2.28472;stroke-linecap:butt;stroke-linejoin:miter;stroke-miterlimit:4;stroke-dasharray:none;stroke-opacity:1"
           id="path8000" />
      </g>
      <path
         d="m -446.64213,1263.2716 146.77,20.679 176.609,-69.695 -40.39,-62.605 -200.825,28.656 z"
         style="fill:none;fill-opacity:0.498201;fill-rule:evenodd;stroke:none"
         id="path8002" />
      <g
         id="g8004"
         transform="translate(-589.12613,732.00965)"
         style="fill:#ffffff;fill-opacity:0.551074">
        <path
           d="m 142.484,531.262 146.77,20.679 176.609,-69.695 -40.39,-62.605 -200.825,28.656 z"
           style="fill:#ffffff;fill-opacity:0.551074;stroke:#000000;stroke-width:2.28756;stroke-linecap:butt;stroke-linejoin:miter;stroke-miterlimit:4;stroke-dasharray:none;stroke-opacity:1"
           id="path8006" />
      </g>
      <path
         d="m -128.21213,950.56465 62.957005,-62.266 3.5,158.58605 -61.000005,167.8399 -40.894,-63.09 z"
         style="fill:none;fill-opacity:0.721984;fill-rule:evenodd;stroke:none"
         id="path8008" />
      <g
         id="g8010"
         transform="translate(-589.12613,732.00965)"
         style="fill:#ffffff;fill-opacity:0.551074;stroke-width:1.54167;stroke-dasharray:none">
        <path
           d="m 460.914,218.555 62.957,-62.266 3.5,158.586 -61,167.84 -40.894,-63.09 z"
           style="fill:#ffffff;fill-opacity:0.551074;stroke:#000000;stroke-width:1.54167;stroke-linecap:butt;stroke-linejoin:miter;stroke-miterlimit:4;stroke-dasharray:none;stroke-opacity:1"
           id="path8012" />
      </g>
      <path
         d="m -352.94113,733.43969 48.101,121.551 175.965,94.535 63.067,-61.484 -137.692,-136.039 z"
         style="fill:#ffffff;fill-opacity:0.551074;stroke:#000000;stroke-width:2.01731;stroke-linecap:butt;stroke-linejoin:miter;stroke-miterlimit:4;stroke-dasharray:none;stroke-opacity:1"
         id="path7994" />
      <path
         style="fill:none;fill-opacity:1;fill-rule:evenodd;stroke:#ff0000;stroke-width:3.24563;stroke-miterlimit:4;stroke-dasharray:none;stroke-opacity:1;marker-end:url(#marker4254)"
         d="m -225.50787,898.08357 39.21318,-68.50198"
         id="path3900"
         sodipodi:nodetypes="cc" />
      <path
         style="fill:none;fill-opacity:1;fill-rule:evenodd;stroke:#ff0000;stroke-width:3.24563;stroke-miterlimit:4;stroke-dasharray:none;stroke-opacity:1;marker-end:url(#Arrow1Mend)"
         d="m -225.50787,898.08357 42.74097,57.62335"
         id="path3902"
         sodipodi:nodetypes="cc" />
      <path
         style="fill:none;fill-opacity:1;fill-rule:evenodd;stroke:#0000ff;stroke-width:3.24563;stroke-miterlimit:4;stroke-dasharray:none;stroke-opacity:1;marker-end:url(#marker4500)"
         d="m -225.50787,898.08357 -53.46687,-28.67642"
         id="path4439"
         sodipodi:nodetypes="cc" />
      <g
         inkscape:label=""
         transform="matrix(5.28248 0 0 5.53933 -196.372 938.123)"
         id="g5252">
        <g
           id="g3915">
          <g
             style="fill:#000000;fill-opacity:1"
             id="g8690"
             transform="matrix(0.71999753,0,0,0.71998126,-63.871179,-74.567215)">
            <use
               xlink:href="#symbol6302"
               x="91.925003"
               y="81.962997"
               id="use8235"
               width="100%"
               height="100%" />
          </g>
          <g
             style="fill:#000000;fill-opacity:1"
             id="g501"
             transform="matrix(0.71999753,0,0,0.71998126,-63.871179,-74.567215)">
            <use
               xlink:href="#symbol717"
               x="99.028"
               y="83.457001"
               id="use7723"
               width="100%"
               height="100%" />
            <use
               xlink:href="#symbol6348"
               x="102.8078"
               y="83.457001"
               id="use5297"
               width="100%"
               height="100%" />
          </g>
          <g
             style="fill:#000000;fill-opacity:1"
             id="g2367"
             transform="matrix(0.71999753,0,0,0.71998126,-63.871179,-74.567215)">
            <use
               xlink:href="#symbol5623"
               x="105.174"
               y="83.457001"
               id="use9979"
               width="100%"
               height="100%" />
          </g>
          <g
             style="fill:#000000;fill-opacity:1"
             id="g874"
             transform="matrix(0.71999753,0,0,0.71998126,-82.762252,-52.721336)">
            <use
               xlink:href="#symbol6302"
               x="109.644"
               y="81.962997"
               id="use4156"
               width="100%"
               height="100%" />
          </g>
          <g
             style="fill:#000000;fill-opacity:1"
             id="g132"
             transform="matrix(0.71999753,0,0,0.71998126,-82.762252,-52.721336)">
            <use
               xlink:href="#symbol717"
               x="116.747"
               y="83.457001"
               id="use5054"
               width="100%"
               height="100%" />
            <use
               xlink:href="#symbol6348"
               x="120.5268"
               y="83.457001"
               id="use4366"
               width="100%"
               height="100%" />
          </g>
          <g
             style="fill:#000000;fill-opacity:1"
             id="g634"
             transform="matrix(0.71999753,0,0,0.71998126,-82.762252,-52.721336)">
            <use
               xlink:href="#symbol3247"
               x="122.893"
               y="83.457001"
               id="use8084"
               width="100%"
               height="100%" />
          </g>
          <g
             style="fill:#000000;fill-opacity:1"
             id="g836"
             transform="matrix(0.71999753,0,0,0.71998126,-147.42151,-15.231128)">
            <use
               xlink:href="#symbol7223"
               x="127.362"
               y="81.962997"
               id="use585"
               width="100%"
               height="100%" />
          </g>
          <g
             style="fill:#000000;fill-opacity:1"
             id="g4540"
             transform="matrix(0.71999753,0,0,0.71998126,-147.42151,-15.231128)">
            <use
               xlink:href="#symbol6457"
               x="131.49899"
               y="83.457001"
               id="use7214"
               width="100%"
               height="100%" />
          </g>
          <g
             style="fill:#000000;fill-opacity:1"
             id="g9443"
             transform="matrix(0.71999753,0,0,0.71998126,-147.42151,-15.231128)">
            <use
               xlink:href="#symbol6348"
               x="136.7677"
               y="83.457001"
               id="use2167"
               width="100%"
               height="100%" />
          </g>
          <g
             style="fill:#000000;fill-opacity:1"
             id="g651"
             transform="matrix(0.71999753,0,0,0.71998126,-147.42151,-15.231128)">
            <use
               xlink:href="#symbol5623"
               x="139.133"
               y="83.457001"
               id="use6263"
               width="100%"
               height="100%" />
          </g>
          <g
             style="fill:#000000;fill-opacity:1"
             id="g2454"
             transform="matrix(0.71999753,0,0,0.71998126,-156.64288,-31.744756)">
            <use
               xlink:href="#symbol7223"
               x="143.60201"
               y="81.962997"
               id="use5998"
               width="100%"
               height="100%" />
          </g>
          <g
             style="fill:#000000;fill-opacity:1"
             id="g6584"
             transform="matrix(0.71999753,0,0,0.71998126,-156.64288,-31.744756)">
            <use
               xlink:href="#symbol6457"
               x="147.739"
               y="83.457001"
               id="use1397"
               width="100%"
               height="100%" />
          </g>
          <g
             style="fill:#000000;fill-opacity:1"
             id="g1532"
             transform="matrix(0.71999753,0,0,0.71998126,-156.64288,-31.744756)">
            <use
               xlink:href="#symbol6348"
               x="153.00771"
               y="83.457001"
               id="use3138"
               width="100%"
               height="100%" />
          </g>
          <g
             style="fill:#000000;fill-opacity:1"
             id="g1889"
             transform="matrix(0.71999753,0,0,0.71998126,-156.64288,-31.744756)">
            <use
               xlink:href="#symbol3247"
               x="155.37199"
               y="83.457001"
               id="use2438"
               width="100%"
               height="100%" />
          </g>
          <g
             style="fill:#000000;fill-opacity:1"
             id="g7849"
             transform="matrix(0.71999753,0,0,0.71998126,-133.30505,-62.663727)">
            <use
               xlink:href="#symbol7223"
               x="159.842"
               y="81.962997"
               id="use7358"
               width="100%"
               height="100%" />
          </g>
          <g
             style="fill:#000000;fill-opacity:1"
             id="g6456"
             transform="matrix(0.71999753,0,0,0.71998126,-133.30505,-62.663727)">
            <use
               xlink:href="#symbol717"
               x="163.979"
               y="83.457001"
               id="use6413"
               width="100%"
               height="100%" />
          </g>
          <g
             style="fill:#000000;fill-opacity:1"
             id="g3806"
             transform="matrix(0.71999753,0,0,0.71998126,-193.69443,-26.379619)">
            <use
               xlink:href="#symbol6302"
               x="168.257"
               y="81.962997"
               id="use1811"
               width="100%"
               height="100%" />
          </g>
          <g
             style="fill:#000000;fill-opacity:1"
             id="g5756"
             transform="matrix(0.71999753,0,0,0.71998126,-193.69443,-26.379619)">
            <use
               xlink:href="#symbol6457"
               x="175.36"
               y="83.457001"
               id="use7118"
               width="100%"
               height="100%" />
          </g>
          <path
             style="fill:none;fill-opacity:1;fill-rule:evenodd;stroke:#001fff;stroke-width:0.6;stroke-miterlimit:4;stroke-dasharray:none;stroke-opacity:1;marker-end:url(#marker4254)"
             d="m -57.355213,29.295465 -0.05807,12.971137"
             id="path6643" />
          <path
             style="fill:none;fill-opacity:1;fill-rule:evenodd;stroke:#001fff;stroke-width:0.600001;stroke-miterlimit:4;stroke-dasharray:none;stroke-opacity:1;marker-end:url(#marker4254)"
             d="m -57.355213,29.295465 12.30841,1.201972"
             id="path6645" />
          <path
             style="fill:none;fill-opacity:1;fill-rule:evenodd;stroke:#ff0000;stroke-width:0.600001;stroke-miterlimit:4;stroke-dasharray:none;stroke-opacity:1;marker-end:url(#marker4254)"
             d="M -57.355213,29.295465 -72.853389,40.501143"
             id="path6647" />
        </g>
      </g>
    </g>
    <ellipse
       style="fill:#000000;fill-opacity:1;stroke:#000000;stroke-width:0.639576"
       id="path5226-5-5"
       cx="48.335629"
       cy="103.77455"
       rx="0.68021148"
       ry="0.6802116" />
    <ellipse
       style="fill:#000000;fill-opacity:1;stroke:#000000;stroke-width:0.639576"
       id="path5226-5-5-7"
       cx="48.305588"
       cy="133.05952"
       rx="0.68021148"
       ry="0.6802116" />
    <ellipse
       style="fill:#000000;fill-opacity:1;stroke:#000000;stroke-width:0.639576"
       id="path5226-5-5-5"
       cx="75.127617"
       cy="156.81787"
       rx="0.68021148"
       ry="0.6802116" />
    <ellipse
       style="fill:#000000;fill-opacity:1;stroke:#000000;stroke-width:0.639576"
       id="path5226-5-5-3"
       cx="102.82067"
       cy="161.08296"
       rx="0.68021148"
       ry="0.6802116" />
    <ellipse
       style="fill:#000000;fill-opacity:1;stroke:#000000;stroke-width:0.639576"
       id="path5226-5-5-4"
       cx="90.145538"
       cy="141.79996"
       rx="0.68021148"
       ry="0.6802116" />
    <ellipse
       style="fill:#000000;fill-opacity:1;stroke:#000000;stroke-width:0.639576"
       id="path5226-5-5-2"
       cx="73.978333"
       cy="109.34246"
       rx="0.68021148"
       ry="0.6802116" />
    <ellipse
       style="fill:#000000;fill-opacity:1;stroke:#000000;stroke-width:0.639576"
       id="path5226-5-5-74"
       cx="60.109688"
       cy="73.678635"
       rx="0.68021148"
       ry="0.6802116" />
    <ellipse
       style="fill:#000000;fill-opacity:1;stroke:#000000;stroke-width:0.639576"
       id="path5226-5-5-6"
       cx="92.788696"
       cy="61.303856"
       rx="0.68021148"
       ry="0.6802116" />
    <ellipse
       style="fill:#000000;fill-opacity:1;stroke:#000000;stroke-width:0.639576"
       id="path5226-5-5-8"
       cx="121.08247"
       cy="64.547729"
       rx="0.68021148"
       ry="0.6802116" />
    <ellipse
       style="fill:#000000;fill-opacity:1;stroke:#000000;stroke-width:0.639576"
       id="path5226-5-5-06"
       cx="101.67931"
       cy="83.2901"
       rx="0.68021148"
       ry="0.6802116" />
    <ellipse
       style="fill:#000000;fill-opacity:1;stroke:#000000;stroke-width:0.639576"
       id="path5226-5-5-9"
       cx="135.14539"
       cy="100.67713"
       rx="0.68021148"
       ry="0.6802116" />
    <ellipse
       style="fill:#000000;fill-opacity:1;stroke:#000000;stroke-width:0.639576"
       id="path5226-5-5-48"
       cx="147.12393"
       cy="89.038391"
       rx="0.68021148"
       ry="0.6802116" />
    <ellipse
       style="fill:#000000;fill-opacity:1;stroke:#000000;stroke-width:0.639576"
       id="path5226-5-5-72"
       cx="147.71861"
       cy="117.75292"
       rx="0.68021148"
       ry="0.6802116" />
    <ellipse
       style="fill:#000000;fill-opacity:1;stroke:#000000;stroke-width:0.639576"
       id="path5226-5-5-261"
       cx="136.24979"
       cy="148.33644"
       rx="0.68021148"
       ry="0.6802116" />
    <ellipse
       style="fill:#000000;fill-opacity:1;stroke:#000000;stroke-width:0.639576"
       id="path5226-5-5-61"
       cx="128.68886"
       cy="137.03754"
       rx="0.68021148"
       ry="0.6802116" />
  </g>
</svg>
